# MagicaVoxel @ Ephtracy

# group
o 

# material
mtllib Car3.mtl
usemtl palette

# normals
vn -1 0 0
vn 1 0 0
vn 0 0 1
vn 0 0 -1
vn 0 -1 0
vn 0 1 0

# texcoords
vt 0.736328 0.5
vt 0.755859 0.5
vt 0.912109 0.5
vt 0.916016 0.5
vt 0.974609 0.5
vt 0.994141 0.5

# verts
v 0 0.8 -1.4
v 0 0.8 -1.5
v 0 1 -1.4
v 0 1 -1.5
v 0.1 0.5 -0.8
v 0.1 0.5 -1.1
v 0.1 0.5 -1.5
v 0.1 0.5 -1.8
v 0.1 0.6 -0.7
v 0.1 0.6 -0.8
v 0.1 0.6 -0.9
v 0.1 0.6 -1
v 0.1 0.6 -1.1
v 0.1 0.6 -1.5
v 0.1 0.6 -1.6
v 0.1 0.6 -1.7
v 0.1 0.6 -1.8
v 0.1 0.6 -1.9
v 0.1 0.7 -0.7
v 0.1 0.7 -0.8
v 0.1 0.7 -0.9
v 0.1 0.7 -1
v 0.1 0.7 -1.1
v 0.1 0.7 -1.5
v 0.1 0.7 -1.6
v 0.1 0.7 -1.7
v 0.1 0.7 -1.8
v 0.1 0.7 -1.9
v 0.1 0.8 -0.7
v 0.1 0.8 -0.8
v 0.1 0.8 -1.1
v 0.1 0.8 -1.4
v 0.1 0.8 -1.5
v 0.1 0.8 -1.8
v 0.1 0.8 -1.9
v 0.1 1 -0.7
v 0.1 1 -1.4
v 0.1 1 -1.5
v 0.1 1 -1.9
v 0.2 1 -0.9
v 0.2 1 -1
v 0.2 1 -1.4
v 0.2 1 -1.5
v 0.2 1.2 -0.9
v 0.2 1.2 -1
v 0.2 1.2 -1.4
v 0.2 1.2 -1.5
v 0.2 1.3 -0.9
v 0.2 1.3 -1.5
v 0.8 0.5 -0.8
v 0.8 0.5 -1.1
v 0.8 0.5 -1.5
v 0.8 0.5 -1.8
v 0.8 0.6 -0.8
v 0.8 0.6 -1.1
v 0.8 0.6 -1.5
v 0.8 0.6 -1.8
v 0.2 0.5 -0.8
v 0.2 0.5 -1.1
v 0.2 0.5 -1.5
v 0.2 0.5 -1.8
v 0.2 0.6 -0.8
v 0.2 0.6 -1.1
v 0.2 0.6 -1.5
v 0.2 0.6 -1.8
v 0.8 1 -0.9
v 0.8 1 -1
v 0.8 1 -1.4
v 0.8 1 -1.5
v 0.8 1.2 -0.9
v 0.8 1.2 -1
v 0.8 1.2 -1.4
v 0.8 1.2 -1.5
v 0.8 1.3 -0.9
v 0.8 1.3 -1.5
v 0.9 0.5 -0.8
v 0.9 0.5 -1.1
v 0.9 0.5 -1.5
v 0.9 0.5 -1.8
v 0.9 0.6 -0.7
v 0.9 0.6 -0.8
v 0.9 0.6 -0.9
v 0.9 0.6 -1
v 0.9 0.6 -1.1
v 0.9 0.6 -1.5
v 0.9 0.6 -1.6
v 0.9 0.6 -1.7
v 0.9 0.6 -1.8
v 0.9 0.6 -1.9
v 0.9 0.7 -0.7
v 0.9 0.7 -0.8
v 0.9 0.7 -0.9
v 0.9 0.7 -1
v 0.9 0.7 -1.1
v 0.9 0.7 -1.5
v 0.9 0.7 -1.6
v 0.9 0.7 -1.7
v 0.9 0.7 -1.8
v 0.9 0.7 -1.9
v 0.9 0.8 -0.7
v 0.9 0.8 -0.8
v 0.9 0.8 -1.1
v 0.9 0.8 -1.4
v 0.9 0.8 -1.5
v 0.9 0.8 -1.8
v 0.9 0.8 -1.9
v 0.9 1 -0.7
v 0.9 1 -1.4
v 0.9 1 -1.5
v 0.9 1 -1.9
v 1 0.8 -1.4
v 1 0.8 -1.5
v 1 1 -1.4
v 1 1 -1.5
v 0.1 0.6 -0.7
v 0.1 0.7 -0.7
v 0.1 0.8 -0.7
v 0.1 1 -0.7
v 0.4 0.8 -0.7
v 0.4 1 -0.7
v 0.6 0.8 -0.7
v 0.6 1 -0.7
v 0.9 0.6 -0.7
v 0.9 0.7 -0.7
v 0.9 0.8 -0.7
v 0.9 1 -0.7
v 0.1 0.5 -0.8
v 0.1 0.6 -0.8
v 0.2 0.5 -0.8
v 0.2 0.6 -0.8
v 0.8 0.5 -0.8
v 0.8 0.6 -0.8
v 0.9 0.5 -0.8
v 0.9 0.6 -0.8
v 0.2 1 -0.9
v 0.2 1.2 -0.9
v 0.2 1.3 -0.9
v 0.3 1 -0.9
v 0.3 1.2 -0.9
v 0.4 1 -0.9
v 0.6 1 -0.9
v 0.7 1 -0.9
v 0.7 1.2 -0.9
v 0.8 1 -0.9
v 0.8 1.2 -0.9
v 0.8 1.3 -0.9
v 0 0.8 -1.4
v 0 1 -1.4
v 0.1 0.8 -1.4
v 0.1 1 -1.4
v 0.9 0.8 -1.4
v 0.9 1 -1.4
v 1 0.8 -1.4
v 1 1 -1.4
v 0.1 0.5 -1.5
v 0.1 0.6 -1.5
v 0.2 0.5 -1.5
v 0.2 0.6 -1.5
v 0.8 0.5 -1.5
v 0.8 0.6 -1.5
v 0.9 0.5 -1.5
v 0.9 0.6 -1.5
v 0.1 0.5 -1.1
v 0.1 0.6 -1.1
v 0.2 0.5 -1.1
v 0.2 0.6 -1.1
v 0.8 0.5 -1.1
v 0.8 0.6 -1.1
v 0.9 0.5 -1.1
v 0.9 0.6 -1.1
v 0 0.8 -1.5
v 0 1 -1.5
v 0.1 0.8 -1.5
v 0.1 1 -1.5
v 0.2 1 -1.5
v 0.2 1.2 -1.5
v 0.2 1.3 -1.5
v 0.3 1 -1.5
v 0.3 1.2 -1.5
v 0.4 1 -1.5
v 0.6 1 -1.5
v 0.7 1 -1.5
v 0.7 1.2 -1.5
v 0.8 1 -1.5
v 0.8 1.2 -1.5
v 0.8 1.3 -1.5
v 0.9 0.8 -1.5
v 0.9 1 -1.5
v 1 0.8 -1.5
v 1 1 -1.5
v 0.1 0.5 -1.8
v 0.1 0.6 -1.8
v 0.2 0.5 -1.8
v 0.2 0.6 -1.8
v 0.8 0.5 -1.8
v 0.8 0.6 -1.8
v 0.9 0.5 -1.8
v 0.9 0.6 -1.8
v 0.1 0.6 -1.9
v 0.1 0.7 -1.9
v 0.1 0.8 -1.9
v 0.1 1 -1.9
v 0.2 0.8 -1.9
v 0.2 0.9 -1.9
v 0.3 0.8 -1.9
v 0.3 0.9 -1.9
v 0.4 0.8 -1.9
v 0.4 1 -1.9
v 0.6 0.8 -1.9
v 0.6 1 -1.9
v 0.7 0.8 -1.9
v 0.7 0.9 -1.9
v 0.8 0.8 -1.9
v 0.8 0.9 -1.9
v 0.9 0.6 -1.9
v 0.9 0.7 -1.9
v 0.9 0.8 -1.9
v 0.9 1 -1.9
v 0.1 0.5 -0.8
v 0.2 0.5 -0.8
v 0.8 0.5 -0.8
v 0.9 0.5 -0.8
v 0.1 0.5 -1.1
v 0.2 0.5 -1.1
v 0.8 0.5 -1.1
v 0.9 0.5 -1.1
v 0.1 0.5 -1.5
v 0.2 0.5 -1.5
v 0.8 0.5 -1.5
v 0.9 0.5 -1.5
v 0.1 0.5 -1.8
v 0.2 0.5 -1.8
v 0.8 0.5 -1.8
v 0.9 0.5 -1.8
v 0.1 0.6 -0.7
v 0.9 0.6 -0.7
v 0.1 0.6 -0.8
v 0.2 0.6 -0.8
v 0.8 0.6 -0.8
v 0.9 0.6 -0.8
v 0.1 0.6 -1.1
v 0.2 0.6 -1.1
v 0.8 0.6 -1.1
v 0.9 0.6 -1.1
v 0.1 0.6 -1.5
v 0.2 0.6 -1.5
v 0.8 0.6 -1.5
v 0.9 0.6 -1.5
v 0.1 0.6 -1.8
v 0.2 0.6 -1.8
v 0.8 0.6 -1.8
v 0.9 0.6 -1.8
v 0.1 0.6 -1.9
v 0.9 0.6 -1.9
v 0 0.8 -1.4
v 0.1 0.8 -1.4
v 0.9 0.8 -1.4
v 1 0.8 -1.4
v 0 0.8 -1.5
v 0.1 0.8 -1.5
v 0.9 0.8 -1.5
v 1 0.8 -1.5
v 0.1 1 -0.7
v 0.4 1 -0.7
v 0.6 1 -0.7
v 0.9 1 -0.7
v 0.2 1 -0.9
v 0.3 1 -0.9
v 0.4 1 -0.9
v 0.6 1 -0.9
v 0.7 1 -0.9
v 0.8 1 -0.9
v 0.2 1 -1
v 0.8 1 -1
v 0 1 -1.4
v 0.1 1 -1.4
v 0.2 1 -1.4
v 0.8 1 -1.4
v 0.9 1 -1.4
v 1 1 -1.4
v 0 1 -1.5
v 0.1 1 -1.5
v 0.2 1 -1.5
v 0.3 1 -1.5
v 0.4 1 -1.5
v 0.6 1 -1.5
v 0.7 1 -1.5
v 0.8 1 -1.5
v 0.9 1 -1.5
v 1 1 -1.5
v 0.1 1 -1.9
v 0.4 1 -1.9
v 0.6 1 -1.9
v 0.9 1 -1.9
v 0.2 1.3 -0.9
v 0.8 1.3 -0.9
v 0.2 1.3 -1.5
v 0.8 1.3 -1.5

# faces
f 3/5/1 2/5/1 1/5/1
f 4/5/1 2/5/1 3/5/1
f 10/6/1 6/6/1 5/6/1
f 11/6/1 6/6/1 10/6/1
f 12/6/1 6/6/1 11/6/1
f 13/6/1 6/6/1 12/6/1
f 14/6/1 8/6/1 7/6/1
f 15/6/1 8/6/1 14/6/1
f 16/6/1 8/6/1 15/6/1
f 17/6/1 8/6/1 16/6/1
f 19/5/1 10/5/1 9/5/1
f 20/6/1 11/6/1 10/6/1
f 20/5/1 10/5/1 19/5/1
f 21/4/1 12/4/1 11/4/1
f 21/6/1 11/6/1 20/6/1
f 22/6/1 13/6/1 12/6/1
f 22/4/1 12/4/1 21/4/1
f 23/5/1 14/5/1 13/5/1
f 23/6/1 13/6/1 22/6/1
f 24/6/1 15/6/1 14/6/1
f 24/5/1 14/5/1 23/5/1
f 25/4/1 16/4/1 15/4/1
f 25/6/1 15/6/1 24/6/1
f 26/6/1 17/6/1 16/6/1
f 26/4/1 16/4/1 25/4/1
f 27/5/1 18/5/1 17/5/1
f 27/6/1 17/6/1 26/6/1
f 28/5/1 18/5/1 27/5/1
f 29/1/1 20/1/1 19/1/1
f 30/6/1 21/6/1 20/6/1
f 30/1/1 20/1/1 29/1/1
f 30/6/1 22/6/1 21/6/1
f 30/6/1 23/6/1 22/6/1
f 31/1/1 24/1/1 23/1/1
f 31/6/1 23/6/1 30/6/1
f 32/1/1 24/1/1 31/1/1
f 33/6/1 26/6/1 25/6/1
f 33/1/1 24/1/1 32/1/1
f 33/6/1 27/6/1 26/6/1
f 33/6/1 25/6/1 24/6/1
f 34/1/1 28/1/1 27/1/1
f 34/6/1 27/6/1 33/6/1
f 35/1/1 28/1/1 34/1/1
f 36/2/1 32/2/1 31/2/1
f 36/2/1 31/2/1 30/2/1
f 36/2/1 30/2/1 29/2/1
f 37/2/1 32/2/1 36/2/1
f 38/2/1 35/2/1 34/2/1
f 38/2/1 34/2/1 33/2/1
f 39/2/1 35/2/1 38/2/1
f 44/3/1 41/3/1 40/3/1
f 45/6/1 42/6/1 41/6/1
f 45/3/1 41/3/1 44/3/1
f 46/3/1 43/3/1 42/3/1
f 46/6/1 42/6/1 45/6/1
f 47/3/1 43/3/1 46/3/1
f 48/4/1 45/4/1 44/4/1
f 48/4/1 46/4/1 45/4/1
f 48/4/1 47/4/1 46/4/1
f 49/4/1 47/4/1 48/4/1
f 54/6/1 51/6/1 50/6/1
f 55/6/1 51/6/1 54/6/1
f 56/6/1 53/6/1 52/6/1
f 57/6/1 53/6/1 56/6/1
f 58/6/2 59/6/2 62/6/2
f 62/6/2 59/6/2 63/6/2
f 60/6/2 61/6/2 64/6/2
f 64/6/2 61/6/2 65/6/2
f 66/3/2 67/3/2 70/3/2
f 67/6/2 68/6/2 71/6/2
f 70/3/2 67/3/2 71/3/2
f 68/3/2 69/3/2 72/3/2
f 71/6/2 68/6/2 72/6/2
f 72/3/2 69/3/2 73/3/2
f 70/4/2 71/4/2 74/4/2
f 71/4/2 72/4/2 74/4/2
f 72/4/2 73/4/2 74/4/2
f 74/4/2 73/4/2 75/4/2
f 76/6/2 77/6/2 81/6/2
f 81/6/2 77/6/2 82/6/2
f 82/6/2 77/6/2 83/6/2
f 83/6/2 77/6/2 84/6/2
f 78/6/2 79/6/2 85/6/2
f 85/6/2 79/6/2 86/6/2
f 86/6/2 79/6/2 87/6/2
f 87/6/2 79/6/2 88/6/2
f 80/5/2 81/5/2 90/5/2
f 81/6/2 82/6/2 91/6/2
f 90/5/2 81/5/2 91/5/2
f 82/4/2 83/4/2 92/4/2
f 91/6/2 82/6/2 92/6/2
f 83/6/2 84/6/2 93/6/2
f 92/4/2 83/4/2 93/4/2
f 84/5/2 85/5/2 94/5/2
f 93/6/2 84/6/2 94/6/2
f 85/6/2 86/6/2 95/6/2
f 94/5/2 85/5/2 95/5/2
f 86/4/2 87/4/2 96/4/2
f 95/6/2 86/6/2 96/6/2
f 87/6/2 88/6/2 97/6/2
f 96/4/2 87/4/2 97/4/2
f 88/5/2 89/5/2 98/5/2
f 97/6/2 88/6/2 98/6/2
f 98/5/2 89/5/2 99/5/2
f 90/1/2 91/1/2 100/1/2
f 91/6/2 92/6/2 101/6/2
f 100/1/2 91/1/2 101/1/2
f 92/6/2 93/6/2 101/6/2
f 93/6/2 94/6/2 101/6/2
f 94/1/2 95/1/2 102/1/2
f 101/6/2 94/6/2 102/6/2
f 102/1/2 95/1/2 103/1/2
f 96/6/2 97/6/2 104/6/2
f 103/1/2 95/1/2 104/1/2
f 97/6/2 98/6/2 104/6/2
f 95/6/2 96/6/2 104/6/2
f 98/1/2 99/1/2 105/1/2
f 104/6/2 98/6/2 105/6/2
f 105/1/2 99/1/2 106/1/2
f 102/2/2 103/2/2 107/2/2
f 101/2/2 102/2/2 107/2/2
f 100/2/2 101/2/2 107/2/2
f 107/2/2 103/2/2 108/2/2
f 105/2/2 106/2/2 109/2/2
f 104/2/2 105/2/2 109/2/2
f 109/2/2 106/2/2 110/2/2
f 111/5/2 112/5/2 113/5/2
f 113/5/2 112/5/2 114/5/2
f 119/1/3 117/1/3 116/1/3
f 119/2/3 118/2/3 117/2/3
f 120/2/3 118/2/3 119/2/3
f 121/1/3 119/1/3 116/1/3
f 121/1/3 120/1/3 119/1/3
f 122/1/3 120/1/3 121/1/3
f 123/5/3 116/5/3 115/5/3
f 124/1/3 121/1/3 116/1/3
f 124/5/3 116/5/3 123/5/3
f 125/2/3 122/2/3 121/2/3
f 125/1/3 121/1/3 124/1/3
f 126/2/3 122/2/3 125/2/3
f 129/6/3 128/6/3 127/6/3
f 130/6/3 128/6/3 129/6/3
f 133/6/3 132/6/3 131/6/3
f 134/6/3 132/6/3 133/6/3
f 138/3/3 136/3/3 135/3/3
f 139/4/3 137/4/3 136/4/3
f 139/3/3 136/3/3 138/3/3
f 140/6/3 139/6/3 138/6/3
f 141/6/3 139/6/3 140/6/3
f 142/6/3 139/6/3 141/6/3
f 143/4/3 137/4/3 139/4/3
f 143/6/3 139/6/3 142/6/3
f 144/3/3 143/3/3 142/3/3
f 145/4/3 137/4/3 143/4/3
f 145/3/3 143/3/3 144/3/3
f 146/4/3 137/4/3 145/4/3
f 149/5/3 148/5/3 147/5/3
f 150/5/3 148/5/3 149/5/3
f 153/5/3 152/5/3 151/5/3
f 154/5/3 152/5/3 153/5/3
f 157/6/3 156/6/3 155/6/3
f 158/6/3 156/6/3 157/6/3
f 161/6/3 160/6/3 159/6/3
f 162/6/3 160/6/3 161/6/3
f 163/6/4 164/6/4 165/6/4
f 165/6/4 164/6/4 166/6/4
f 167/6/4 168/6/4 169/6/4
f 169/6/4 168/6/4 170/6/4
f 171/5/4 172/5/4 173/5/4
f 173/5/4 172/5/4 174/5/4
f 175/3/4 176/3/4 178/3/4
f 176/4/4 177/4/4 179/4/4
f 178/3/4 176/3/4 179/3/4
f 178/6/4 179/6/4 180/6/4
f 180/6/4 179/6/4 181/6/4
f 181/6/4 179/6/4 182/6/4
f 179/4/4 177/4/4 183/4/4
f 182/6/4 179/6/4 183/6/4
f 182/3/4 183/3/4 184/3/4
f 183/4/4 177/4/4 185/4/4
f 184/3/4 183/3/4 185/3/4
f 185/4/4 177/4/4 186/4/4
f 187/5/4 188/5/4 189/5/4
f 189/5/4 188/5/4 190/5/4
f 191/6/4 192/6/4 193/6/4
f 193/6/4 192/6/4 194/6/4
f 195/6/4 196/6/4 197/6/4
f 197/6/4 196/6/4 198/6/4
f 200/1/4 201/1/4 203/1/4
f 201/2/4 202/2/4 203/2/4
f 203/2/4 202/2/4 204/2/4
f 200/1/4 203/1/4 205/1/4
f 203/4/4 204/4/4 205/4/4
f 204/2/4 202/2/4 206/2/4
f 205/4/4 204/4/4 206/4/4
f 200/1/4 205/1/4 207/1/4
f 205/2/4 206/2/4 207/2/4
f 206/2/4 202/2/4 208/2/4
f 207/2/4 206/2/4 208/2/4
f 200/1/4 207/1/4 209/1/4
f 207/1/4 208/1/4 209/1/4
f 209/1/4 208/1/4 210/1/4
f 200/1/4 209/1/4 211/1/4
f 209/2/4 210/2/4 211/2/4
f 211/2/4 210/2/4 212/2/4
f 200/1/4 211/1/4 213/1/4
f 211/4/4 212/4/4 213/4/4
f 212/2/4 210/2/4 214/2/4
f 213/4/4 212/4/4 214/4/4
f 199/5/4 200/5/4 215/5/4
f 200/1/4 213/1/4 216/1/4
f 215/5/4 200/5/4 216/5/4
f 213/2/4 214/2/4 217/2/4
f 216/1/4 213/1/4 217/1/4
f 214/2/4 210/2/4 218/2/4
f 217/2/4 214/2/4 218/2/4
f 223/6/5 220/6/5 219/6/5
f 224/6/5 220/6/5 223/6/5
f 225/6/5 222/6/5 221/6/5
f 226/6/5 222/6/5 225/6/5
f 231/6/5 228/6/5 227/6/5
f 232/6/5 228/6/5 231/6/5
f 233/6/5 230/6/5 229/6/5
f 234/6/5 230/6/5 233/6/5
f 237/5/5 236/5/5 235/5/5
f 238/5/5 236/5/5 237/5/5
f 239/5/5 236/5/5 238/5/5
f 240/5/5 236/5/5 239/5/5
f 242/5/5 239/5/5 238/5/5
f 243/5/5 239/5/5 242/5/5
f 245/5/5 242/5/5 241/5/5
f 245/5/5 244/5/5 243/5/5
f 245/5/5 243/5/5 242/5/5
f 246/5/5 244/5/5 245/5/5
f 247/5/5 244/5/5 246/5/5
f 248/5/5 244/5/5 247/5/5
f 250/5/5 247/5/5 246/5/5
f 251/5/5 247/5/5 250/5/5
f 253/5/5 250/5/5 249/5/5
f 253/5/5 252/5/5 251/5/5
f 253/5/5 251/5/5 250/5/5
f 254/5/5 252/5/5 253/5/5
f 259/5/5 256/5/5 255/5/5
f 260/5/5 256/5/5 259/5/5
f 261/5/5 258/5/5 257/5/5
f 262/5/5 258/5/5 261/5/5
f 263/2/6 264/2/6 267/2/6
f 267/2/6 264/2/6 268/2/6
f 264/1/6 265/1/6 269/1/6
f 268/2/6 264/2/6 269/2/6
f 265/2/6 266/2/6 270/2/6
f 269/1/6 265/1/6 270/1/6
f 270/2/6 266/2/6 271/2/6
f 271/2/6 266/2/6 272/2/6
f 263/2/6 267/2/6 273/2/6
f 272/2/6 266/2/6 274/2/6
f 263/2/6 273/2/6 276/2/6
f 276/2/6 273/2/6 277/2/6
f 274/2/6 266/2/6 278/2/6
f 278/2/6 266/2/6 279/2/6
f 275/5/6 276/5/6 281/5/6
f 276/2/6 277/2/6 282/2/6
f 281/5/6 276/5/6 282/5/6
f 282/2/6 277/2/6 283/2/6
f 278/2/6 279/2/6 288/2/6
f 279/5/6 280/5/6 289/5/6
f 288/2/6 279/2/6 289/2/6
f 289/5/6 280/5/6 290/5/6
f 282/2/6 283/2/6 291/2/6
f 283/2/6 284/2/6 291/2/6
f 284/2/6 285/2/6 291/2/6
f 285/1/6 286/1/6 292/1/6
f 291/2/6 285/2/6 292/2/6
f 287/2/6 288/2/6 293/2/6
f 292/1/6 286/1/6 293/1/6
f 286/2/6 287/2/6 293/2/6
f 288/2/6 289/2/6 293/2/6
f 293/2/6 289/2/6 294/2/6
f 295/4/6 296/4/6 297/4/6
f 297/4/6 296/4/6 298/4/6
