# MagicaVoxel @ Ephtracy

# group
o 

# material
mtllib Tree3.mtl
usemtl palette

# normals
vn -1 0 0
vn 1 0 0
vn 0 0 1
vn 0 0 -1
vn 0 -1 0
vn 0 1 0

# texcoords
vt 0.216797 0.5
vt 0.970703 0.5
vt 0.974609 0.5
vt 0.978516 0.5

# verts
v 0.1 2.4 -0.1
v 0.1 2.4 -0.9
v 0.1 2.5 -0.1
v 0.1 2.5 -0.9
v 0.1 2.8 -0.1
v 0.1 2.8 -0.9
v 0.1 2.9 -0.1
v 0.1 2.9 -0.9
v 0.1 3.2 -0.1
v 0.1 3.2 -0.9
v 0.1 3.3 -0.1
v 0.1 3.3 -0.9
v 0.1 3.6 -0.1
v 0.1 3.6 -0.9
v 0.1 3.7 -0.1
v 0.1 3.7 -0.9
v 0.3 2 -0.3
v 0.3 2 -0.7
v 0.3 2.3 -0.3
v 0.3 2.3 -0.7
v 0.3 2.4 -0.3
v 0.3 2.4 -0.7
v 0.7 2 -0.3
v 0.7 2 -0.7
v 0.7 2.3 -0.3
v 0.7 2.3 -0.7
v 0.7 2.4 -0.3
v 0.7 2.4 -0.7
v 0.9 2.4 -0.1
v 0.9 2.4 -0.9
v 0.9 2.5 -0.1
v 0.9 2.5 -0.9
v 0.9 2.8 -0.1
v 0.9 2.8 -0.9
v 0.9 2.9 -0.1
v 0.9 2.9 -0.9
v 0.9 3.2 -0.1
v 0.9 3.2 -0.9
v 0.9 3.3 -0.1
v 0.9 3.3 -0.9
v 0.9 3.6 -0.1
v 0.9 3.6 -0.9
v 0.9 3.7 -0.1
v 0.9 3.7 -0.9
v 0.1 2.4 -0.1
v 0.1 2.5 -0.1
v 0.1 2.8 -0.1
v 0.1 2.9 -0.1
v 0.1 3.2 -0.1
v 0.1 3.3 -0.1
v 0.1 3.6 -0.1
v 0.1 3.7 -0.1
v 0.9 2.4 -0.1
v 0.9 2.5 -0.1
v 0.9 2.8 -0.1
v 0.9 2.9 -0.1
v 0.9 3.2 -0.1
v 0.9 3.3 -0.1
v 0.9 3.6 -0.1
v 0.9 3.7 -0.1
v 0.3 2 -0.3
v 0.3 2.3 -0.3
v 0.3 2.4 -0.3
v 0.7 2 -0.3
v 0.7 2.3 -0.3
v 0.7 2.4 -0.3
v 0.3 2 -0.7
v 0.3 2.3 -0.7
v 0.3 2.4 -0.7
v 0.7 2 -0.7
v 0.7 2.3 -0.7
v 0.7 2.4 -0.7
v 0.1 2.4 -0.9
v 0.1 2.5 -0.9
v 0.1 2.8 -0.9
v 0.1 2.9 -0.9
v 0.1 3.2 -0.9
v 0.1 3.3 -0.9
v 0.1 3.6 -0.9
v 0.1 3.7 -0.9
v 0.9 2.4 -0.9
v 0.9 2.5 -0.9
v 0.9 2.8 -0.9
v 0.9 2.9 -0.9
v 0.9 3.2 -0.9
v 0.9 3.3 -0.9
v 0.9 3.6 -0.9
v 0.9 3.7 -0.9
v 0.3 2 -0.3
v 0.7 2 -0.3
v 0.3 2 -0.7
v 0.7 2 -0.7
v 0.1 2.4 -0.1
v 0.9 2.4 -0.1
v 0.3 2.4 -0.3
v 0.7 2.4 -0.3
v 0.3 2.4 -0.7
v 0.7 2.4 -0.7
v 0.1 2.4 -0.9
v 0.9 2.4 -0.9
v 0.1 3.7 -0.1
v 0.9 3.7 -0.1
v 0.1 3.7 -0.9
v 0.9 3.7 -0.9

# faces
f 3/3/1 2/3/1 1/3/1
f 4/3/1 2/3/1 3/3/1
f 5/4/1 4/4/1 3/4/1
f 6/4/1 4/4/1 5/4/1
f 7/3/1 6/3/1 5/3/1
f 8/3/1 6/3/1 7/3/1
f 9/4/1 8/4/1 7/4/1
f 10/4/1 8/4/1 9/4/1
f 11/3/1 10/3/1 9/3/1
f 12/3/1 10/3/1 11/3/1
f 13/4/1 12/4/1 11/4/1
f 14/4/1 12/4/1 13/4/1
f 15/3/1 14/3/1 13/3/1
f 16/3/1 14/3/1 15/3/1
f 19/2/1 18/2/1 17/2/1
f 20/2/1 18/2/1 19/2/1
f 21/1/1 20/1/1 19/1/1
f 22/1/1 20/1/1 21/1/1
f 23/2/2 24/2/2 25/2/2
f 25/2/2 24/2/2 26/2/2
f 25/1/2 26/1/2 27/1/2
f 27/1/2 26/1/2 28/1/2
f 29/3/2 30/3/2 31/3/2
f 31/3/2 30/3/2 32/3/2
f 31/4/2 32/4/2 33/4/2
f 33/4/2 32/4/2 34/4/2
f 33/3/2 34/3/2 35/3/2
f 35/3/2 34/3/2 36/3/2
f 35/4/2 36/4/2 37/4/2
f 37/4/2 36/4/2 38/4/2
f 37/3/2 38/3/2 39/3/2
f 39/3/2 38/3/2 40/3/2
f 39/4/2 40/4/2 41/4/2
f 41/4/2 40/4/2 42/4/2
f 41/3/2 42/3/2 43/3/2
f 43/3/2 42/3/2 44/3/2
f 53/3/3 46/3/3 45/3/3
f 54/4/3 47/4/3 46/4/3
f 54/3/3 46/3/3 53/3/3
f 55/3/3 48/3/3 47/3/3
f 55/4/3 47/4/3 54/4/3
f 56/4/3 49/4/3 48/4/3
f 56/3/3 48/3/3 55/3/3
f 57/3/3 50/3/3 49/3/3
f 57/4/3 49/4/3 56/4/3
f 58/4/3 51/4/3 50/4/3
f 58/3/3 50/3/3 57/3/3
f 59/3/3 52/3/3 51/3/3
f 59/4/3 51/4/3 58/4/3
f 60/3/3 52/3/3 59/3/3
f 64/2/3 62/2/3 61/2/3
f 65/1/3 63/1/3 62/1/3
f 65/2/3 62/2/3 64/2/3
f 66/1/3 63/1/3 65/1/3
f 67/2/4 68/2/4 70/2/4
f 68/1/4 69/1/4 71/1/4
f 70/2/4 68/2/4 71/2/4
f 71/1/4 69/1/4 72/1/4
f 73/3/4 74/3/4 81/3/4
f 74/4/4 75/4/4 82/4/4
f 81/3/4 74/3/4 82/3/4
f 75/3/4 76/3/4 83/3/4
f 82/4/4 75/4/4 83/4/4
f 76/4/4 77/4/4 84/4/4
f 83/3/4 76/3/4 84/3/4
f 77/3/4 78/3/4 85/3/4
f 84/4/4 77/4/4 85/4/4
f 78/4/4 79/4/4 86/4/4
f 85/3/4 78/3/4 86/3/4
f 79/3/4 80/3/4 87/3/4
f 86/4/4 79/4/4 87/4/4
f 87/3/4 80/3/4 88/3/4
f 91/2/5 90/2/5 89/2/5
f 92/2/5 90/2/5 91/2/5
f 95/3/5 94/3/5 93/3/5
f 96/3/5 94/3/5 95/3/5
f 97/3/5 95/3/5 93/3/5
f 98/3/5 94/3/5 96/3/5
f 99/3/5 97/3/5 93/3/5
f 99/3/5 98/3/5 97/3/5
f 100/3/5 94/3/5 98/3/5
f 100/3/5 98/3/5 99/3/5
f 101/3/6 102/3/6 103/3/6
f 103/3/6 102/3/6 104/3/6
