# MagicaVoxel @ Ephtracy

# group
o 

# material
mtllib RailRoad1.mtl
usemtl palette

# normals
vn -1 0 0
vn 1 0 0
vn 0 0 1
vn 0 0 -1
vn 0 -1 0
vn 0 1 0

# texcoords
vt 0.00195313 0.5
vt 0.169922 0.5
vt 0.173828 0.5
vt 0.177734 0.5
vt 0.267578 0.5
vt 0.599609 0.5
vt 0.994141 0.5

# verts
v 0.2 0.2 -0.1
v 0.2 0.2 -1.1
v 0.2 0.6 -0.1
v 0.2 0.6 -1.1
v 0.2 0.7 -0.2
v 0.2 0.7 -0.3
v 0.2 0.7 -0.9
v 0.2 0.7 -1
v 0.2 0.8 -0.2
v 0.2 0.8 -0.3
v 0.2 0.8 -0.9
v 0.2 0.8 -1
v 0.9 1.7 0
v 0.9 1.7 -0.1
v 0.9 1.9 0
v 0.9 1.9 -0.1
v 1 1.6 0
v 1 1.6 -0.1
v 1 1.7 0
v 1 1.7 -0.1
v 1.1 0.6 -0.1
v 1.1 0.6 -1.1
v 1.1 0.7 -0.1
v 1.1 0.7 -0.2
v 1.1 0.7 -0.3
v 1.1 0.7 -0.9
v 1.1 0.7 -1
v 1.1 0.7 -1.1
v 1.1 0.8 -0.1
v 1.1 0.8 -0.2
v 1.1 0.9 -0.1
v 1.1 0.9 -0.2
v 1.1 1.1 -0.1
v 1.1 1.1 -0.2
v 1.1 1.2 -0.1
v 1.1 1.2 -0.2
v 1.1 1.4 -0.1
v 1.1 1.4 -0.2
v 1.1 1.5 -0.1
v 1.1 1.5 -0.2
v 1.1 1.6 -0.1
v 1.1 1.7 -0.1
v 1.1 1.7 -0.2
v 1.1 1.8 -0.1
v 1.1 1.8 -0.2
v 1.1 1.9 -0.1
v 1.1 2 -0.1
v 1.1 2 -0.2
v 1.1 2.1 -0.1
v 1.1 2.1 -0.2
v 1.2 1.6 0
v 1.2 1.6 -0.1
v 1.2 1.7 0
v 1.2 1.7 -0.1
v 1.1 1.6 0
v 1.1 1.6 -0.1
v 1.1 1.7 0
v 1.1 1.7 -0.1
v 1.2 0.2 -0.1
v 1.2 0.2 -1.1
v 1.2 0.6 -0.1
v 1.2 0.6 -1.1
v 1.2 0.7 -0.1
v 1.2 0.7 -0.2
v 1.2 0.7 -0.3
v 1.2 0.7 -0.9
v 1.2 0.7 -1
v 1.2 0.7 -1.1
v 1.2 0.8 -0.1
v 1.2 0.8 -0.2
v 1.2 0.8 -0.3
v 1.2 0.8 -0.9
v 1.2 0.8 -1
v 1.2 0.9 -0.1
v 1.2 0.9 -0.2
v 1.2 1.1 -0.1
v 1.2 1.1 -0.2
v 1.2 1.2 -0.1
v 1.2 1.2 -0.2
v 1.2 1.4 -0.1
v 1.2 1.4 -0.2
v 1.2 1.5 -0.1
v 1.2 1.5 -0.2
v 1.2 1.6 -0.1
v 1.2 1.7 -0.1
v 1.2 1.7 -0.2
v 1.2 1.8 -0.1
v 1.2 1.8 -0.2
v 1.2 1.9 -0.1
v 1.2 2 -0.1
v 1.2 2 -0.2
v 1.2 2.1 -0.1
v 1.2 2.1 -0.2
v 1.3 1.6 0
v 1.3 1.6 -0.1
v 1.3 1.7 0
v 1.3 1.7 -0.1
v 1.4 1.7 0
v 1.4 1.7 -0.1
v 1.4 1.9 0
v 1.4 1.9 -0.1
v 0.9 1.7 0
v 0.9 1.9 0
v 1 1.6 0
v 1 1.7 0
v 1.1 1.6 0
v 1.1 1.7 0
v 1.2 1.6 0
v 1.2 1.7 0
v 1.3 1.6 0
v 1.3 1.7 0
v 1.4 1.7 0
v 1.4 1.9 0
v 0.2 0.2 -0.1
v 0.2 0.6 -0.1
v 1.1 0.6 -0.1
v 1.1 0.7 -0.1
v 1.1 0.8 -0.1
v 1.1 0.9 -0.1
v 1.1 1.1 -0.1
v 1.1 1.2 -0.1
v 1.1 1.4 -0.1
v 1.1 1.5 -0.1
v 1.1 1.6 -0.1
v 1.1 1.7 -0.1
v 1.1 1.9 -0.1
v 1.1 2 -0.1
v 1.1 2.1 -0.1
v 1.2 0.2 -0.1
v 1.2 0.6 -0.1
v 1.2 0.7 -0.1
v 1.2 0.8 -0.1
v 1.2 0.9 -0.1
v 1.2 1.1 -0.1
v 1.2 1.2 -0.1
v 1.2 1.4 -0.1
v 1.2 1.5 -0.1
v 1.2 1.6 -0.1
v 1.2 1.7 -0.1
v 1.2 1.9 -0.1
v 1.2 2 -0.1
v 1.2 2.1 -0.1
v 0.2 0.7 -0.2
v 0.2 0.8 -0.2
v 1.1 0.7 -0.2
v 1.1 0.8 -0.2
v 0.2 0.7 -0.9
v 0.2 0.8 -0.9
v 1.1 0.7 -0.9
v 1.2 0.7 -0.9
v 1.2 0.8 -0.9
v 0.9 1.7 -0.1
v 0.9 1.9 -0.1
v 1 1.6 -0.1
v 1 1.7 -0.1
v 1.1 1.6 -0.1
v 1.1 1.7 -0.1
v 1.1 1.8 -0.1
v 1.1 1.9 -0.1
v 1.2 1.6 -0.1
v 1.2 1.7 -0.1
v 1.2 1.8 -0.1
v 1.2 1.9 -0.1
v 1.3 1.6 -0.1
v 1.3 1.7 -0.1
v 1.4 1.7 -0.1
v 1.4 1.9 -0.1
v 1.1 0.8 -0.2
v 1.1 0.9 -0.2
v 1.1 1.1 -0.2
v 1.1 1.2 -0.2
v 1.1 1.4 -0.2
v 1.1 1.5 -0.2
v 1.1 1.7 -0.2
v 1.1 1.8 -0.2
v 1.1 2 -0.2
v 1.1 2.1 -0.2
v 1.2 0.8 -0.2
v 1.2 0.9 -0.2
v 1.2 1.1 -0.2
v 1.2 1.2 -0.2
v 1.2 1.4 -0.2
v 1.2 1.5 -0.2
v 1.2 1.7 -0.2
v 1.2 1.8 -0.2
v 1.2 2 -0.2
v 1.2 2.1 -0.2
v 0.2 0.7 -0.3
v 0.2 0.8 -0.3
v 1.1 0.7 -0.3
v 1.2 0.7 -0.3
v 1.2 0.8 -0.3
v 0.2 0.7 -1
v 0.2 0.8 -1
v 1.1 0.7 -1
v 1.2 0.7 -1
v 1.2 0.8 -1
v 0.2 0.2 -1.1
v 0.2 0.6 -1.1
v 1.1 0.6 -1.1
v 1.1 0.7 -1.1
v 1.2 0.2 -1.1
v 1.2 0.6 -1.1
v 1.2 0.7 -1.1
v 0.2 0.2 -0.1
v 1.2 0.2 -0.1
v 0.2 0.2 -1.1
v 1.2 0.2 -1.1
v 0.2 0.7 -0.2
v 1.1 0.7 -0.2
v 0.2 0.7 -0.3
v 1.1 0.7 -0.3
v 0.2 0.7 -0.9
v 1.1 0.7 -0.9
v 0.2 0.7 -1
v 1.1 0.7 -1
v 1 1.6 0
v 1.1 1.6 0
v 1.2 1.6 0
v 1.3 1.6 0
v 1 1.6 -0.1
v 1.1 1.6 -0.1
v 1.2 1.6 -0.1
v 1.3 1.6 -0.1
v 0.9 1.7 0
v 1 1.7 0
v 1.1 1.7 0
v 1.2 1.7 0
v 1.3 1.7 0
v 1.4 1.7 0
v 0.9 1.7 -0.1
v 1 1.7 -0.1
v 1.1 1.7 -0.1
v 1.2 1.7 -0.1
v 1.3 1.7 -0.1
v 1.4 1.7 -0.1
v 0.2 0.6 -0.1
v 1.1 0.6 -0.1
v 0.2 0.6 -1.1
v 1.1 0.6 -1.1
v 1.1 0.7 -0.3
v 1.2 0.7 -0.3
v 1.1 0.7 -0.9
v 1.2 0.7 -0.9
v 1.1 0.7 -1
v 1.2 0.7 -1
v 1.1 0.7 -1.1
v 1.2 0.7 -1.1
v 0.2 0.8 -0.2
v 1.1 0.8 -0.2
v 1.2 0.8 -0.2
v 0.2 0.8 -0.3
v 1.2 0.8 -0.3
v 0.2 0.8 -0.9
v 1.2 0.8 -0.9
v 0.2 0.8 -1
v 1.2 0.8 -1
v 0.9 1.9 0
v 1.4 1.9 0
v 0.9 1.9 -0.1
v 1.1 1.9 -0.1
v 1.2 1.9 -0.1
v 1.4 1.9 -0.1
v 1.1 2.1 -0.1
v 1.2 2.1 -0.1
v 1.1 2.1 -0.2
v 1.2 2.1 -0.2

# faces
f 3/6/1 2/6/1 1/6/1
f 4/6/1 2/6/1 3/6/1
f 9/5/1 6/5/1 5/5/1
f 10/5/1 6/5/1 9/5/1
f 11/5/1 8/5/1 7/5/1
f 12/5/1 8/5/1 11/5/1
f 15/7/1 14/7/1 13/7/1
f 16/7/1 14/7/1 15/7/1
f 19/2/1 18/2/1 17/2/1
f 20/2/1 18/2/1 19/2/1
f 23/4/1 22/4/1 21/4/1
f 24/4/1 22/4/1 23/4/1
f 25/4/1 22/4/1 24/4/1
f 26/4/1 22/4/1 25/4/1
f 27/4/1 22/4/1 26/4/1
f 28/4/1 22/4/1 27/4/1
f 29/3/1 24/3/1 23/3/1
f 30/3/1 24/3/1 29/3/1
f 31/1/1 30/1/1 29/1/1
f 32/1/1 30/1/1 31/1/1
f 33/3/1 32/3/1 31/3/1
f 34/3/1 32/3/1 33/3/1
f 35/1/1 34/1/1 33/1/1
f 36/1/1 34/1/1 35/1/1
f 37/3/1 36/3/1 35/3/1
f 38/3/1 36/3/1 37/3/1
f 39/1/1 38/1/1 37/1/1
f 40/1/1 38/1/1 39/1/1
f 41/3/1 40/3/1 39/3/1
f 42/3/1 40/3/1 41/3/1
f 43/3/1 40/3/1 42/3/1
f 44/1/1 43/1/1 42/1/1
f 45/1/1 43/1/1 44/1/1
f 46/3/1 45/3/1 44/3/1
f 47/3/1 45/3/1 46/3/1
f 48/3/1 45/3/1 47/3/1
f 49/1/1 48/1/1 47/1/1
f 50/1/1 48/1/1 49/1/1
f 53/2/1 52/2/1 51/2/1
f 54/2/1 52/2/1 53/2/1
f 55/2/2 56/2/2 57/2/2
f 57/2/2 56/2/2 58/2/2
f 59/6/2 60/6/2 61/6/2
f 61/6/2 60/6/2 62/6/2
f 61/4/2 62/4/2 63/4/2
f 63/4/2 62/4/2 64/4/2
f 64/4/2 62/4/2 65/4/2
f 65/4/2 62/4/2 66/4/2
f 66/4/2 62/4/2 67/4/2
f 67/4/2 62/4/2 68/4/2
f 63/3/2 64/3/2 69/3/2
f 64/5/2 65/5/2 70/5/2
f 69/3/2 64/3/2 70/3/2
f 70/5/2 65/5/2 71/5/2
f 66/5/2 67/5/2 72/5/2
f 72/5/2 67/5/2 73/5/2
f 69/1/2 70/1/2 74/1/2
f 74/1/2 70/1/2 75/1/2
f 74/3/2 75/3/2 76/3/2
f 76/3/2 75/3/2 77/3/2
f 76/1/2 77/1/2 78/1/2
f 78/1/2 77/1/2 79/1/2
f 78/3/2 79/3/2 80/3/2
f 80/3/2 79/3/2 81/3/2
f 80/1/2 81/1/2 82/1/2
f 82/1/2 81/1/2 83/1/2
f 82/3/2 83/3/2 84/3/2
f 84/3/2 83/3/2 85/3/2
f 85/3/2 83/3/2 86/3/2
f 85/1/2 86/1/2 87/1/2
f 87/1/2 86/1/2 88/1/2
f 87/3/2 88/3/2 89/3/2
f 89/3/2 88/3/2 90/3/2
f 90/3/2 88/3/2 91/3/2
f 90/1/2 91/1/2 92/1/2
f 92/1/2 91/1/2 93/1/2
f 94/2/2 95/2/2 96/2/2
f 96/2/2 95/2/2 97/2/2
f 98/7/2 99/7/2 100/7/2
f 100/7/2 99/7/2 101/7/2
f 105/7/3 103/7/3 102/7/3
f 106/2/3 105/2/3 104/2/3
f 107/7/3 103/7/3 105/7/3
f 107/2/3 105/2/3 106/2/3
f 109/7/3 103/7/3 107/7/3
f 110/2/3 109/2/3 108/2/3
f 111/7/3 103/7/3 109/7/3
f 111/2/3 109/2/3 110/2/3
f 112/7/3 103/7/3 111/7/3
f 113/7/3 103/7/3 112/7/3
f 116/6/3 115/6/3 114/6/3
f 129/6/3 116/6/3 114/6/3
f 130/4/3 117/4/3 116/4/3
f 130/6/3 116/6/3 129/6/3
f 131/3/3 118/3/3 117/3/3
f 131/4/3 117/4/3 130/4/3
f 132/1/3 119/1/3 118/1/3
f 132/3/3 118/3/3 131/3/3
f 133/3/3 120/3/3 119/3/3
f 133/1/3 119/1/3 132/1/3
f 134/1/3 121/1/3 120/1/3
f 134/3/3 120/3/3 133/3/3
f 135/3/3 122/3/3 121/3/3
f 135/1/3 121/1/3 134/1/3
f 136/1/3 123/1/3 122/1/3
f 136/3/3 122/3/3 135/3/3
f 137/3/3 124/3/3 123/3/3
f 137/1/3 123/1/3 136/1/3
f 137/3/3 125/3/3 124/3/3
f 138/3/3 125/3/3 137/3/3
f 139/3/3 125/3/3 138/3/3
f 140/3/3 127/3/3 126/3/3
f 141/1/3 128/1/3 127/1/3
f 141/3/3 127/3/3 140/3/3
f 142/1/3 128/1/3 141/1/3
f 145/5/3 144/5/3 143/5/3
f 146/5/3 144/5/3 145/5/3
f 149/5/3 148/5/3 147/5/3
f 150/5/3 148/5/3 149/5/3
f 151/5/3 148/5/3 150/5/3
f 152/7/4 153/7/4 155/7/4
f 154/2/4 155/2/4 156/2/4
f 155/7/4 153/7/4 157/7/4
f 156/2/4 155/2/4 157/2/4
f 157/7/4 153/7/4 158/7/4
f 158/7/4 153/7/4 159/7/4
f 160/2/4 161/2/4 164/2/4
f 162/7/4 163/7/4 165/7/4
f 164/2/4 161/2/4 165/2/4
f 161/7/4 162/7/4 165/7/4
f 165/7/4 163/7/4 166/7/4
f 166/7/4 163/7/4 167/7/4
f 168/1/4 169/1/4 178/1/4
f 169/3/4 170/3/4 179/3/4
f 178/1/4 169/1/4 179/1/4
f 170/1/4 171/1/4 180/1/4
f 179/3/4 170/3/4 180/3/4
f 171/3/4 172/3/4 181/3/4
f 180/1/4 171/1/4 181/1/4
f 172/1/4 173/1/4 182/1/4
f 181/3/4 172/3/4 182/3/4
f 173/3/4 174/3/4 183/3/4
f 182/1/4 173/1/4 183/1/4
f 174/1/4 175/1/4 184/1/4
f 183/3/4 174/3/4 184/3/4
f 175/3/4 176/3/4 185/3/4
f 184/1/4 175/1/4 185/1/4
f 176/1/4 177/1/4 186/1/4
f 185/3/4 176/3/4 186/3/4
f 186/1/4 177/1/4 187/1/4
f 188/5/4 189/5/4 190/5/4
f 190/5/4 189/5/4 191/5/4
f 191/5/4 189/5/4 192/5/4
f 193/5/4 194/5/4 195/5/4
f 195/5/4 194/5/4 196/5/4
f 196/5/4 194/5/4 197/5/4
f 198/6/4 199/6/4 200/6/4
f 198/6/4 200/6/4 202/6/4
f 200/4/4 201/4/4 203/4/4
f 202/6/4 200/6/4 203/6/4
f 203/4/4 201/4/4 204/4/4
f 207/6/5 206/6/5 205/6/5
f 208/6/5 206/6/5 207/6/5
f 211/5/5 210/5/5 209/5/5
f 212/5/5 210/5/5 211/5/5
f 215/5/5 214/5/5 213/5/5
f 216/5/5 214/5/5 215/5/5
f 221/2/5 218/2/5 217/2/5
f 222/2/5 218/2/5 221/2/5
f 223/2/5 220/2/5 219/2/5
f 224/2/5 220/2/5 223/2/5
f 231/7/5 226/7/5 225/7/5
f 232/7/5 226/7/5 231/7/5
f 233/7/5 228/7/5 227/7/5
f 234/7/5 228/7/5 233/7/5
f 235/7/5 230/7/5 229/7/5
f 236/7/5 230/7/5 235/7/5
f 237/6/6 238/6/6 239/6/6
f 239/6/6 238/6/6 240/6/6
f 241/4/6 242/4/6 243/4/6
f 243/4/6 242/4/6 244/4/6
f 245/4/6 246/4/6 247/4/6
f 247/4/6 246/4/6 248/4/6
f 249/5/6 250/5/6 252/5/6
f 250/5/6 251/5/6 252/5/6
f 252/5/6 251/5/6 253/5/6
f 254/5/6 255/5/6 256/5/6
f 256/5/6 255/5/6 257/5/6
f 258/7/6 259/7/6 260/7/6
f 260/7/6 259/7/6 261/7/6
f 261/7/6 259/7/6 262/7/6
f 262/7/6 259/7/6 263/7/6
f 264/1/6 265/1/6 266/1/6
f 266/1/6 265/1/6 267/1/6
