# MagicaVoxel @ Ephtracy

# group
o 

# material
mtllib Log0.mtl
usemtl palette

# normals
vn -1 0 0
vn 1 0 0
vn 0 0 1
vn 0 0 -1
vn 0 -1 0
vn 0 1 0

# texcoords
vt 0.244141 0.5
vt 0.248047 0.5
vt 0.279297 0.5

# verts
v 0.1 0.3 -0.2
v 0.1 0.3 -0.3
v 0.1 0.3 -0.7
v 0.1 0.3 -0.8
v 0.1 0.6 -0.3
v 0.1 0.6 -0.7
v 0.1 0.7 -0.2
v 0.1 0.7 -0.8
v 2.9 0.3 -0.2
v 2.9 0.3 -0.3
v 2.9 0.3 -0.7
v 2.9 0.3 -0.8
v 2.9 0.6 -0.3
v 2.9 0.6 -0.7
v 2.9 0.7 -0.2
v 2.9 0.7 -0.8
v 0.1 0.3 -0.2
v 0.1 0.7 -0.2
v 0.2 0.3 -0.2
v 0.2 0.5 -0.2
v 0.2 0.7 -0.2
v 0.3 0.3 -0.2
v 0.3 0.5 -0.2
v 0.5 0.5 -0.2
v 0.5 0.7 -0.2
v 0.9 0.5 -0.2
v 0.9 0.7 -0.2
v 1 0.3 -0.2
v 1 0.4 -0.2
v 1.5 0.3 -0.2
v 1.5 0.4 -0.2
v 1.6 0.3 -0.2
v 1.6 0.4 -0.2
v 1.7 0.3 -0.2
v 1.7 0.4 -0.2
v 2.1 0.5 -0.2
v 2.1 0.7 -0.2
v 2.3 0.5 -0.2
v 2.3 0.7 -0.2
v 2.4 0.3 -0.2
v 2.4 0.5 -0.2
v 2.7 0.3 -0.2
v 2.7 0.5 -0.2
v 2.8 0.3 -0.2
v 2.8 0.7 -0.2
v 2.9 0.3 -0.2
v 2.9 0.7 -0.2
v 0.1 0.3 -0.7
v 0.1 0.6 -0.7
v 0.2 0.3 -0.7
v 0.2 0.4 -0.7
v 0.2 0.6 -0.7
v 0.4 0.3 -0.7
v 0.4 0.4 -0.7
v 1 0.4 -0.7
v 1 0.6 -0.7
v 1.1 0.6 -0.7
v 1.7 0.4 -0.7
v 1.7 0.6 -0.7
v 1.9 0.3 -0.7
v 1.9 0.5 -0.7
v 2.2 0.3 -0.7
v 2.2 0.5 -0.7
v 2.3 0.5 -0.7
v 2.3 0.6 -0.7
v 2.5 0.5 -0.7
v 2.5 0.6 -0.7
v 2.6 0.3 -0.7
v 2.6 0.5 -0.7
v 2.8 0.3 -0.7
v 2.8 0.5 -0.7
v 2.8 0.6 -0.7
v 2.9 0.3 -0.7
v 2.9 0.6 -0.7
v 0.1 0.3 -0.3
v 0.1 0.6 -0.3
v 0.2 0.3 -0.3
v 0.2 0.5 -0.3
v 0.2 0.6 -0.3
v 0.3 0.3 -0.3
v 0.3 0.5 -0.3
v 0.5 0.5 -0.3
v 0.5 0.6 -0.3
v 0.9 0.5 -0.3
v 0.9 0.6 -0.3
v 1 0.3 -0.3
v 1 0.4 -0.3
v 1.1 0.6 -0.3
v 1.5 0.3 -0.3
v 1.5 0.4 -0.3
v 1.5 0.6 -0.3
v 1.6 0.3 -0.3
v 1.6 0.4 -0.3
v 1.7 0.3 -0.3
v 1.7 0.4 -0.3
v 1.7 0.6 -0.3
v 1.9 0.6 -0.3
v 2.1 0.5 -0.3
v 2.1 0.6 -0.3
v 2.3 0.5 -0.3
v 2.3 0.6 -0.3
v 2.4 0.3 -0.3
v 2.4 0.5 -0.3
v 2.5 0.6 -0.3
v 2.7 0.3 -0.3
v 2.7 0.5 -0.3
v 2.8 0.3 -0.3
v 2.8 0.6 -0.3
v 2.9 0.3 -0.3
v 2.9 0.6 -0.3
v 0.1 0.3 -0.8
v 0.1 0.7 -0.8
v 0.2 0.3 -0.8
v 0.2 0.4 -0.8
v 0.2 0.7 -0.8
v 0.4 0.3 -0.8
v 0.4 0.4 -0.8
v 0.7 0.6 -0.8
v 0.7 0.7 -0.8
v 1 0.4 -0.8
v 1 0.6 -0.8
v 1.1 0.6 -0.8
v 1.1 0.7 -0.8
v 1.5 0.6 -0.8
v 1.5 0.7 -0.8
v 1.7 0.4 -0.8
v 1.7 0.7 -0.8
v 1.9 0.3 -0.8
v 1.9 0.5 -0.8
v 2.2 0.3 -0.8
v 2.2 0.5 -0.8
v 2.3 0.5 -0.8
v 2.3 0.7 -0.8
v 2.5 0.5 -0.8
v 2.5 0.6 -0.8
v 2.6 0.3 -0.8
v 2.6 0.5 -0.8
v 2.7 0.6 -0.8
v 2.7 0.7 -0.8
v 2.8 0.3 -0.8
v 2.8 0.5 -0.8
v 2.8 0.7 -0.8
v 2.9 0.3 -0.8
v 2.9 0.7 -0.8
v 0.1 0.3 -0.2
v 0.2 0.3 -0.2
v 0.3 0.3 -0.2
v 1 0.3 -0.2
v 1.5 0.3 -0.2
v 1.6 0.3 -0.2
v 1.7 0.3 -0.2
v 2.4 0.3 -0.2
v 2.7 0.3 -0.2
v 2.8 0.3 -0.2
v 2.9 0.3 -0.2
v 0.1 0.3 -0.3
v 0.2 0.3 -0.3
v 0.3 0.3 -0.3
v 1 0.3 -0.3
v 1.5 0.3 -0.3
v 1.6 0.3 -0.3
v 1.7 0.3 -0.3
v 2.4 0.3 -0.3
v 2.7 0.3 -0.3
v 2.8 0.3 -0.3
v 2.9 0.3 -0.3
v 0.1 0.3 -0.7
v 0.2 0.3 -0.7
v 0.4 0.3 -0.7
v 1.9 0.3 -0.7
v 2.2 0.3 -0.7
v 2.6 0.3 -0.7
v 2.8 0.3 -0.7
v 2.9 0.3 -0.7
v 0.1 0.3 -0.8
v 0.2 0.3 -0.8
v 0.4 0.3 -0.8
v 1.9 0.3 -0.8
v 2.2 0.3 -0.8
v 2.6 0.3 -0.8
v 2.8 0.3 -0.8
v 2.9 0.3 -0.8
v 0.1 0.6 -0.3
v 0.2 0.6 -0.3
v 0.5 0.6 -0.3
v 0.9 0.6 -0.3
v 1.1 0.6 -0.3
v 1.5 0.6 -0.3
v 1.7 0.6 -0.3
v 1.9 0.6 -0.3
v 2.1 0.6 -0.3
v 2.3 0.6 -0.3
v 2.5 0.6 -0.3
v 2.8 0.6 -0.3
v 2.9 0.6 -0.3
v 0.5 0.6 -0.4
v 0.9 0.6 -0.4
v 1.9 0.6 -0.4
v 2.2 0.6 -0.4
v 0.2 0.6 -0.5
v 0.8 0.6 -0.5
v 1.1 0.6 -0.5
v 1.5 0.6 -0.5
v 1.7 0.6 -0.5
v 1.8 0.6 -0.5
v 2.5 0.6 -0.5
v 2.8 0.6 -0.5
v 0.8 0.6 -0.6
v 1.1 0.6 -0.6
v 1.8 0.6 -0.6
v 2.2 0.6 -0.6
v 0.1 0.6 -0.7
v 0.2 0.6 -0.7
v 1 0.6 -0.7
v 1.1 0.6 -0.7
v 1.7 0.6 -0.7
v 2.3 0.6 -0.7
v 2.5 0.6 -0.7
v 2.8 0.6 -0.7
v 2.9 0.6 -0.7
v 0.1 0.7 -0.2
v 0.2 0.7 -0.2
v 0.5 0.7 -0.2
v 0.9 0.7 -0.2
v 2.1 0.7 -0.2
v 2.3 0.7 -0.2
v 2.8 0.7 -0.2
v 2.9 0.7 -0.2
v 1.1 0.7 -0.3
v 1.5 0.7 -0.3
v 1.7 0.7 -0.3
v 1.9 0.7 -0.3
v 2.1 0.7 -0.3
v 2.3 0.7 -0.3
v 2.5 0.7 -0.3
v 2.8 0.7 -0.3
v 0.5 0.7 -0.4
v 0.9 0.7 -0.4
v 1.9 0.7 -0.4
v 2.2 0.7 -0.4
v 0.2 0.7 -0.5
v 0.8 0.7 -0.5
v 1.1 0.7 -0.5
v 1.5 0.7 -0.5
v 1.7 0.7 -0.5
v 1.8 0.7 -0.5
v 2.5 0.7 -0.5
v 2.8 0.7 -0.5
v 0.8 0.7 -0.6
v 1.1 0.7 -0.6
v 1.8 0.7 -0.6
v 2.2 0.7 -0.6
v 0.2 0.7 -0.7
v 0.7 0.7 -0.7
v 1.5 0.7 -0.7
v 1.7 0.7 -0.7
v 2.3 0.7 -0.7
v 2.7 0.7 -0.7
v 0.1 0.7 -0.8
v 0.2 0.7 -0.8
v 0.7 0.7 -0.8
v 1.1 0.7 -0.8
v 1.5 0.7 -0.8
v 1.7 0.7 -0.8
v 2.3 0.7 -0.8
v 2.7 0.7 -0.8
v 2.8 0.7 -0.8
v 2.9 0.7 -0.8

# faces
f 5/2/1 2/2/1 1/2/1
f 6/2/1 4/2/1 3/2/1
f 7/2/1 5/2/1 1/2/1
f 7/2/1 6/2/1 5/2/1
f 8/2/1 4/2/1 6/2/1
f 8/2/1 6/2/1 7/2/1
f 9/2/2 10/2/2 13/2/2
f 11/2/2 12/2/2 14/2/2
f 9/2/2 13/2/2 15/2/2
f 13/2/2 14/2/2 15/2/2
f 14/2/2 12/2/2 16/2/2
f 15/2/2 14/2/2 16/2/2
f 19/2/3 18/2/3 17/2/3
f 20/2/3 18/2/3 19/2/3
f 21/2/3 18/2/3 20/2/3
f 22/3/3 20/3/3 19/3/3
f 23/1/3 21/1/3 20/1/3
f 23/3/3 20/3/3 22/3/3
f 24/1/3 23/1/3 22/1/3
f 24/1/3 21/1/3 23/1/3
f 25/1/3 21/1/3 24/1/3
f 26/1/3 24/1/3 22/1/3
f 26/3/3 25/3/3 24/3/3
f 27/3/3 25/3/3 26/3/3
f 28/1/3 26/1/3 22/1/3
f 28/1/3 27/1/3 26/1/3
f 29/1/3 27/1/3 28/1/3
f 30/3/3 29/3/3 28/3/3
f 31/1/3 27/1/3 29/1/3
f 31/3/3 29/3/3 30/3/3
f 32/1/3 31/1/3 30/1/3
f 33/1/3 27/1/3 31/1/3
f 33/1/3 31/1/3 32/1/3
f 34/3/3 33/3/3 32/3/3
f 35/1/3 27/1/3 33/1/3
f 35/3/3 33/3/3 34/3/3
f 36/1/3 35/1/3 34/1/3
f 36/1/3 27/1/3 35/1/3
f 37/1/3 27/1/3 36/1/3
f 38/1/3 36/1/3 34/1/3
f 38/3/3 37/3/3 36/3/3
f 39/3/3 37/3/3 38/3/3
f 40/1/3 38/1/3 34/1/3
f 40/1/3 39/1/3 38/1/3
f 41/1/3 39/1/3 40/1/3
f 42/3/3 41/3/3 40/3/3
f 43/1/3 39/1/3 41/1/3
f 43/3/3 41/3/3 42/3/3
f 44/1/3 43/1/3 42/1/3
f 45/1/3 39/1/3 43/1/3
f 45/1/3 43/1/3 44/1/3
f 46/2/3 45/2/3 44/2/3
f 47/2/3 45/2/3 46/2/3
f 50/2/3 49/2/3 48/2/3
f 51/2/3 49/2/3 50/2/3
f 52/2/3 49/2/3 51/2/3
f 53/3/3 51/3/3 50/3/3
f 54/1/3 52/1/3 51/1/3
f 54/3/3 51/3/3 53/3/3
f 55/1/3 54/1/3 53/1/3
f 55/1/3 52/1/3 54/1/3
f 56/1/3 52/1/3 55/1/3
f 57/3/3 56/3/3 55/3/3
f 58/1/3 55/1/3 53/1/3
f 58/3/3 57/3/3 55/3/3
f 59/3/3 57/3/3 58/3/3
f 60/1/3 58/1/3 53/1/3
f 60/1/3 59/1/3 58/1/3
f 61/1/3 59/1/3 60/1/3
f 62/3/3 61/3/3 60/3/3
f 63/1/3 59/1/3 61/1/3
f 63/3/3 61/3/3 62/3/3
f 64/1/3 63/1/3 62/1/3
f 64/1/3 59/1/3 63/1/3
f 65/1/3 59/1/3 64/1/3
f 66/1/3 64/1/3 62/1/3
f 66/3/3 65/3/3 64/3/3
f 67/3/3 65/3/3 66/3/3
f 68/1/3 66/1/3 62/1/3
f 68/1/3 67/1/3 66/1/3
f 69/1/3 67/1/3 68/1/3
f 70/3/3 69/3/3 68/3/3
f 71/1/3 67/1/3 69/1/3
f 71/3/3 69/3/3 70/3/3
f 72/1/3 67/1/3 71/1/3
f 73/2/3 71/2/3 70/2/3
f 73/2/3 72/2/3 71/2/3
f 74/2/3 72/2/3 73/2/3
f 75/2/4 76/2/4 77/2/4
f 77/2/4 76/2/4 78/2/4
f 78/2/4 76/2/4 79/2/4
f 77/3/4 78/3/4 80/3/4
f 78/1/4 79/1/4 81/1/4
f 80/3/4 78/3/4 81/3/4
f 80/1/4 81/1/4 82/1/4
f 81/1/4 79/1/4 82/1/4
f 82/1/4 79/1/4 83/1/4
f 80/1/4 82/1/4 84/1/4
f 82/3/4 83/3/4 84/3/4
f 84/3/4 83/3/4 85/3/4
f 80/1/4 84/1/4 86/1/4
f 84/1/4 85/1/4 86/1/4
f 86/1/4 85/1/4 87/1/4
f 87/1/4 85/1/4 88/1/4
f 86/3/4 87/3/4 89/3/4
f 87/1/4 88/1/4 90/1/4
f 89/3/4 87/3/4 90/3/4
f 90/1/4 88/1/4 91/1/4
f 89/1/4 90/1/4 92/1/4
f 90/1/4 91/1/4 92/1/4
f 92/1/4 91/1/4 93/1/4
f 92/3/4 93/3/4 94/3/4
f 93/1/4 91/1/4 95/1/4
f 94/3/4 93/3/4 95/3/4
f 95/1/4 91/1/4 96/1/4
f 94/1/4 95/1/4 97/1/4
f 95/1/4 96/1/4 97/1/4
f 94/1/4 97/1/4 98/1/4
f 98/1/4 97/1/4 99/1/4
f 94/1/4 98/1/4 100/1/4
f 98/3/4 99/3/4 100/3/4
f 100/3/4 99/3/4 101/3/4
f 94/1/4 100/1/4 102/1/4
f 100/1/4 101/1/4 102/1/4
f 102/1/4 101/1/4 103/1/4
f 103/1/4 101/1/4 104/1/4
f 102/3/4 103/3/4 105/3/4
f 103/1/4 104/1/4 106/1/4
f 105/3/4 103/3/4 106/3/4
f 105/1/4 106/1/4 107/1/4
f 106/1/4 104/1/4 108/1/4
f 107/1/4 106/1/4 108/1/4
f 107/2/4 108/2/4 109/2/4
f 109/2/4 108/2/4 110/2/4
f 111/2/4 112/2/4 113/2/4
f 113/2/4 112/2/4 114/2/4
f 114/2/4 112/2/4 115/2/4
f 113/3/4 114/3/4 116/3/4
f 114/1/4 115/1/4 117/1/4
f 116/3/4 114/3/4 117/3/4
f 116/1/4 117/1/4 118/1/4
f 117/1/4 115/1/4 118/1/4
f 118/1/4 115/1/4 119/1/4
f 116/1/4 118/1/4 120/1/4
f 118/3/4 119/3/4 121/3/4
f 120/1/4 118/1/4 121/1/4
f 120/3/4 121/3/4 122/3/4
f 121/3/4 119/3/4 122/3/4
f 122/3/4 119/3/4 123/3/4
f 120/3/4 122/3/4 124/3/4
f 122/1/4 123/1/4 124/1/4
f 124/1/4 123/1/4 125/1/4
f 116/1/4 120/1/4 126/1/4
f 120/3/4 124/3/4 126/3/4
f 124/3/4 125/3/4 126/3/4
f 126/3/4 125/3/4 127/3/4
f 116/1/4 126/1/4 128/1/4
f 126/1/4 127/1/4 128/1/4
f 128/1/4 127/1/4 129/1/4
f 128/3/4 129/3/4 130/3/4
f 129/1/4 127/1/4 131/1/4
f 130/3/4 129/3/4 131/3/4
f 130/1/4 131/1/4 132/1/4
f 131/1/4 127/1/4 132/1/4
f 132/1/4 127/1/4 133/1/4
f 130/1/4 132/1/4 134/1/4
f 132/3/4 133/3/4 134/3/4
f 134/3/4 133/3/4 135/3/4
f 130/1/4 134/1/4 136/1/4
f 134/1/4 135/1/4 136/1/4
f 136/1/4 135/1/4 137/1/4
f 135/3/4 133/3/4 138/3/4
f 137/1/4 135/1/4 138/1/4
f 138/3/4 133/3/4 139/3/4
f 136/3/4 137/3/4 140/3/4
f 137/1/4 138/1/4 141/1/4
f 140/3/4 137/3/4 141/3/4
f 138/1/4 139/1/4 141/1/4
f 141/1/4 139/1/4 142/1/4
f 140/2/4 141/2/4 143/2/4
f 141/2/4 142/2/4 143/2/4
f 143/2/4 142/2/4 144/2/4
f 156/2/5 146/2/5 145/2/5
f 157/3/5 147/3/5 146/3/5
f 157/2/5 146/2/5 156/2/5
f 158/1/5 148/1/5 147/1/5
f 158/3/5 147/3/5 157/3/5
f 159/3/5 149/3/5 148/3/5
f 159/1/5 148/1/5 158/1/5
f 160/1/5 150/1/5 149/1/5
f 160/3/5 149/3/5 159/3/5
f 161/3/5 151/3/5 150/3/5
f 161/1/5 150/1/5 160/1/5
f 162/1/5 152/1/5 151/1/5
f 162/3/5 151/3/5 161/3/5
f 163/3/5 153/3/5 152/3/5
f 163/1/5 152/1/5 162/1/5
f 164/1/5 154/1/5 153/1/5
f 164/3/5 153/3/5 163/3/5
f 165/2/5 155/2/5 154/2/5
f 165/1/5 154/1/5 164/1/5
f 166/2/5 155/2/5 165/2/5
f 175/2/5 168/2/5 167/2/5
f 176/3/5 169/3/5 168/3/5
f 176/2/5 168/2/5 175/2/5
f 177/1/5 170/1/5 169/1/5
f 177/3/5 169/3/5 176/3/5
f 178/3/5 171/3/5 170/3/5
f 178/1/5 170/1/5 177/1/5
f 179/1/5 172/1/5 171/1/5
f 179/3/5 171/3/5 178/3/5
f 180/3/5 173/3/5 172/3/5
f 180/1/5 172/1/5 179/1/5
f 181/2/5 174/2/5 173/2/5
f 181/3/5 173/3/5 180/3/5
f 182/2/5 174/2/5 181/2/5
f 196/1/5 185/1/5 184/1/5
f 196/3/5 186/3/5 185/3/5
f 197/1/5 187/1/5 186/1/5
f 197/3/5 186/3/5 196/3/5
f 198/3/5 190/3/5 189/3/5
f 198/1/5 191/1/5 190/1/5
f 198/1/5 192/1/5 191/1/5
f 198/1/5 193/1/5 192/1/5
f 199/1/5 193/1/5 198/1/5
f 200/2/5 184/2/5 183/2/5
f 200/1/5 196/1/5 184/1/5
f 200/1/5 197/1/5 196/1/5
f 201/1/5 197/1/5 200/1/5
f 202/3/5 188/3/5 187/3/5
f 202/1/5 197/1/5 201/1/5
f 202/1/5 187/1/5 197/1/5
f 203/1/5 189/1/5 188/1/5
f 203/3/5 188/3/5 202/3/5
f 204/3/5 199/3/5 198/3/5
f 204/1/5 189/1/5 203/1/5
f 204/3/5 198/3/5 189/3/5
f 205/3/5 199/3/5 204/3/5
f 206/1/5 193/1/5 199/1/5
f 206/3/5 194/3/5 193/3/5
f 207/2/5 195/2/5 194/2/5
f 207/3/5 194/3/5 206/3/5
f 208/1/5 205/1/5 204/1/5
f 208/1/5 203/1/5 202/1/5
f 208/3/5 201/3/5 200/3/5
f 208/1/5 204/1/5 203/1/5
f 208/1/5 202/1/5 201/1/5
f 209/1/5 205/1/5 208/1/5
f 210/3/5 199/3/5 205/3/5
f 210/1/5 205/1/5 209/1/5
f 211/1/5 206/1/5 199/1/5
f 211/3/5 199/3/5 210/3/5
f 211/1/5 207/1/5 206/1/5
f 212/2/5 200/2/5 183/2/5
f 213/3/5 209/3/5 208/3/5
f 213/2/5 200/2/5 212/2/5
f 213/3/5 208/3/5 200/3/5
f 214/3/5 209/3/5 213/3/5
f 215/1/5 210/1/5 209/1/5
f 215/3/5 209/3/5 214/3/5
f 215/1/5 211/1/5 210/1/5
f 216/1/5 211/1/5 215/1/5
f 217/1/5 207/1/5 211/1/5
f 217/1/5 211/1/5 216/1/5
f 218/1/5 207/1/5 217/1/5
f 219/2/5 195/2/5 207/2/5
f 219/1/5 207/1/5 218/1/5
f 220/2/5 195/2/5 219/2/5
f 224/1/6 225/1/6 229/1/6
f 229/1/6 225/1/6 230/1/6
f 230/1/6 225/1/6 231/1/6
f 231/1/6 225/1/6 232/1/6
f 225/3/6 226/3/6 233/3/6
f 232/1/6 225/1/6 233/1/6
f 226/1/6 227/1/6 234/1/6
f 233/3/6 226/3/6 234/3/6
f 234/1/6 227/1/6 235/1/6
f 227/2/6 228/2/6 236/2/6
f 235/1/6 227/1/6 236/1/6
f 222/1/6 223/1/6 237/1/6
f 223/3/6 224/3/6 237/3/6
f 224/1/6 229/1/6 238/1/6
f 237/3/6 224/3/6 238/3/6
f 234/1/6 235/1/6 239/1/6
f 231/3/6 232/3/6 239/3/6
f 232/1/6 233/1/6 239/1/6
f 233/1/6 234/1/6 239/1/6
f 239/1/6 235/1/6 240/1/6
f 221/2/6 222/2/6 241/2/6
f 237/1/6 238/1/6 241/1/6
f 222/1/6 237/1/6 241/1/6
f 241/1/6 238/1/6 242/1/6
f 238/1/6 229/1/6 243/1/6
f 242/1/6 238/1/6 243/1/6
f 229/3/6 230/3/6 243/3/6
f 230/1/6 231/1/6 244/1/6
f 243/3/6 230/3/6 244/3/6
f 239/3/6 240/3/6 245/3/6
f 244/1/6 231/1/6 245/1/6
f 231/3/6 239/3/6 245/3/6
f 245/3/6 240/3/6 246/3/6
f 240/1/6 235/1/6 247/1/6
f 235/3/6 236/3/6 247/3/6
f 236/2/6 228/2/6 248/2/6
f 247/3/6 236/3/6 248/3/6
f 245/1/6 246/1/6 249/1/6
f 241/3/6 242/3/6 249/3/6
f 243/1/6 244/1/6 249/1/6
f 244/1/6 245/1/6 249/1/6
f 242/1/6 243/1/6 249/1/6
f 249/1/6 246/1/6 250/1/6
f 246/3/6 240/3/6 251/3/6
f 250/1/6 246/1/6 251/1/6
f 240/1/6 247/1/6 252/1/6
f 251/3/6 240/3/6 252/3/6
f 247/1/6 248/1/6 252/1/6
f 249/3/6 250/3/6 253/3/6
f 241/3/6 249/3/6 253/3/6
f 221/2/6 241/2/6 253/2/6
f 253/3/6 250/3/6 254/3/6
f 250/1/6 251/1/6 255/1/6
f 251/1/6 252/1/6 255/1/6
f 255/1/6 252/1/6 256/1/6
f 252/1/6 248/1/6 257/1/6
f 256/1/6 252/1/6 257/1/6
f 257/1/6 248/1/6 258/1/6
f 221/2/6 253/2/6 259/2/6
f 253/1/6 254/1/6 260/1/6
f 259/2/6 253/2/6 260/2/6
f 254/3/6 250/3/6 261/3/6
f 260/1/6 254/1/6 261/1/6
f 250/1/6 255/1/6 262/1/6
f 261/3/6 250/3/6 262/3/6
f 255/3/6 256/3/6 263/3/6
f 262/1/6 255/1/6 263/1/6
f 256/1/6 257/1/6 264/1/6
f 263/3/6 256/3/6 264/3/6
f 257/3/6 258/3/6 265/3/6
f 264/1/6 257/1/6 265/1/6
f 258/1/6 248/1/6 266/1/6
f 265/3/6 258/3/6 266/3/6
f 248/2/6 228/2/6 267/2/6
f 266/1/6 248/1/6 267/1/6
f 267/2/6 228/2/6 268/2/6
