# MagicaVoxel @ Ephtracy

# group
o 

# material
mtllib Chicken.mtl
usemtl palette

# normals
vn -1 0 0
vn 1 0 0
vn 0 0 1
vn 0 0 -1
vn 0 -1 0
vn 0 1 0

# texcoords
vt 0.0683594 0.5
vt 0.134766 0.5
vt 0.958984 0.5
vt 0.994141 0.5

# verts
v 0.1 3.2 -0.4
v 0.1 3.2 -0.6
v 0.1 3.4 -0.4
v 0.1 3.4 -0.6
v 0.2 3 -0.4
v 0.2 3 -0.6
v 0.2 3.2 -0.4
v 0.2 3.2 -0.6
v 0.4 2.5 -0.2
v 0.4 2.5 -0.8
v 0.4 3 -0.4
v 0.4 3 -0.6
v 0.4 3.2 -0.4
v 0.4 3.2 -0.6
v 0.4 3.4 -0.4
v 0.4 3.4 -0.6
v 0.4 3.5 -0.2
v 0.4 3.5 -0.8
v 0.5 2 -0.1
v 0.5 2 -0.2
v 0.5 2 -0.3
v 0.5 2 -0.4
v 0.5 2 -0.6
v 0.5 2 -0.7
v 0.5 2 -0.8
v 0.5 2 -0.9
v 0.5 2.1 -0.1
v 0.5 2.1 -0.2
v 0.5 2.1 -0.3
v 0.5 2.1 -0.4
v 0.5 2.1 -0.6
v 0.5 2.1 -0.7
v 0.5 2.1 -0.8
v 0.5 2.1 -0.9
v 0.5 3.5 -0.4
v 0.5 3.5 -0.6
v 0.5 3.7 -0.4
v 0.5 3.7 -0.6
v 0.6 2.6 -0.1
v 0.6 2.6 -0.2
v 0.6 2.6 -0.8
v 0.6 2.6 -0.9
v 0.6 2.9 -0.1
v 0.6 2.9 -0.2
v 0.6 2.9 -0.8
v 0.6 2.9 -0.9
v 0.7 2 -0.2
v 0.7 2 -0.3
v 0.7 2 -0.7
v 0.7 2 -0.8
v 0.7 2.1 -0.2
v 0.7 2.1 -0.3
v 0.7 2.1 -0.7
v 0.7 2.1 -0.8
v 0.8 2.1 -0.2
v 0.8 2.1 -0.3
v 0.8 2.1 -0.7
v 0.8 2.1 -0.8
v 0.8 2.5 -0.2
v 0.8 2.5 -0.3
v 0.8 2.5 -0.7
v 0.8 2.5 -0.8
v 0.8 3.5 -0.4
v 0.8 3.5 -0.6
v 0.8 3.7 -0.4
v 0.8 3.7 -0.6
v 0.9 2.1 -0.2
v 0.9 2.1 -0.3
v 0.9 2.1 -0.7
v 0.9 2.1 -0.8
v 0.9 2.5 -0.2
v 0.9 2.5 -0.3
v 0.9 2.5 -0.7
v 0.9 2.5 -0.8
v 0.9 3 -0.2
v 0.9 3 -0.8
v 0.9 3.5 -0.2
v 0.9 3.5 -0.8
v 1 2 -0.1
v 1 2 -0.4
v 1 2 -0.6
v 1 2 -0.9
v 1 2.1 -0.1
v 1 2.1 -0.4
v 1 2.1 -0.6
v 1 2.1 -0.9
v 1.1 2.6 -0.1
v 1.1 2.6 -0.2
v 1.1 2.6 -0.8
v 1.1 2.6 -0.9
v 1.1 2.9 -0.1
v 1.1 2.9 -0.2
v 1.1 2.9 -0.8
v 1.1 2.9 -0.9
v 1.3 2.5 -0.2
v 1.3 2.5 -0.3
v 1.3 2.5 -0.7
v 1.3 2.5 -0.8
v 1.3 3 -0.2
v 1.3 3 -0.3
v 1.3 3 -0.7
v 1.3 3 -0.8
v 1.4 2.5 -0.3
v 1.4 2.5 -0.7
v 1.4 3 -0.3
v 1.4 3 -0.7
v 0.5 2 -0.1
v 0.5 2.1 -0.1
v 0.6 2.6 -0.1
v 0.6 2.9 -0.1
v 1 2 -0.1
v 1 2.1 -0.1
v 1.1 2.6 -0.1
v 1.1 2.9 -0.1
v 0.4 2.5 -0.2
v 0.4 3.5 -0.2
v 0.5 3.3 -0.2
v 0.5 3.4 -0.2
v 0.6 2.6 -0.2
v 0.6 2.9 -0.2
v 0.6 3.3 -0.2
v 0.6 3.4 -0.2
v 0.8 2.1 -0.2
v 0.8 2.5 -0.2
v 0.9 2.1 -0.2
v 0.9 2.5 -0.2
v 0.9 3 -0.2
v 0.9 3.5 -0.2
v 1.1 2.6 -0.2
v 1.1 2.9 -0.2
v 1.3 2.5 -0.2
v 1.3 3 -0.2
v 0.5 2 -0.3
v 0.5 2.1 -0.3
v 0.7 2 -0.3
v 0.7 2.1 -0.3
v 1.3 2.5 -0.3
v 1.3 3 -0.3
v 1.4 2.5 -0.3
v 1.4 3 -0.3
v 0.1 3.2 -0.4
v 0.1 3.4 -0.4
v 0.2 3 -0.4
v 0.2 3.2 -0.4
v 0.4 3 -0.4
v 0.4 3.2 -0.4
v 0.4 3.4 -0.4
v 0.5 3.5 -0.4
v 0.5 3.7 -0.4
v 0.8 3.5 -0.4
v 0.8 3.7 -0.4
v 0.5 2 -0.6
v 0.5 2.1 -0.6
v 1 2 -0.6
v 1 2.1 -0.6
v 0.8 2.1 -0.7
v 0.8 2.5 -0.7
v 0.9 2.1 -0.7
v 0.9 2.5 -0.7
v 0.5 2 -0.8
v 0.5 2.1 -0.8
v 0.7 2 -0.8
v 0.7 2.1 -0.8
v 0.5 2 -0.2
v 0.5 2.1 -0.2
v 0.7 2 -0.2
v 0.7 2.1 -0.2
v 0.8 2.1 -0.3
v 0.8 2.5 -0.3
v 0.9 2.1 -0.3
v 0.9 2.5 -0.3
v 0.5 2 -0.4
v 0.5 2.1 -0.4
v 1 2 -0.4
v 1 2.1 -0.4
v 0.1 3.2 -0.6
v 0.1 3.4 -0.6
v 0.2 3 -0.6
v 0.2 3.2 -0.6
v 0.4 3 -0.6
v 0.4 3.2 -0.6
v 0.4 3.4 -0.6
v 0.5 3.5 -0.6
v 0.5 3.7 -0.6
v 0.8 3.5 -0.6
v 0.8 3.7 -0.6
v 0.5 2 -0.7
v 0.5 2.1 -0.7
v 0.7 2 -0.7
v 0.7 2.1 -0.7
v 1.3 2.5 -0.7
v 1.3 3 -0.7
v 1.4 2.5 -0.7
v 1.4 3 -0.7
v 0.4 2.5 -0.8
v 0.4 3.5 -0.8
v 0.5 3.3 -0.8
v 0.5 3.4 -0.8
v 0.6 2.6 -0.8
v 0.6 2.9 -0.8
v 0.6 3.3 -0.8
v 0.6 3.4 -0.8
v 0.8 2.1 -0.8
v 0.8 2.5 -0.8
v 0.9 2.1 -0.8
v 0.9 2.5 -0.8
v 0.9 3 -0.8
v 0.9 3.5 -0.8
v 1.1 2.6 -0.8
v 1.1 2.9 -0.8
v 1.3 2.5 -0.8
v 1.3 3 -0.8
v 0.5 2 -0.9
v 0.5 2.1 -0.9
v 0.6 2.6 -0.9
v 0.6 2.9 -0.9
v 1 2 -0.9
v 1 2.1 -0.9
v 1.1 2.6 -0.9
v 1.1 2.9 -0.9
v 0.5 2 -0.1
v 1 2 -0.1
v 0.5 2 -0.2
v 0.7 2 -0.2
v 0.5 2 -0.3
v 0.7 2 -0.3
v 0.5 2 -0.4
v 1 2 -0.4
v 0.5 2 -0.6
v 1 2 -0.6
v 0.5 2 -0.7
v 0.7 2 -0.7
v 0.5 2 -0.8
v 0.7 2 -0.8
v 0.5 2 -0.9
v 1 2 -0.9
v 0.4 2.5 -0.2
v 0.8 2.5 -0.2
v 0.9 2.5 -0.2
v 1.3 2.5 -0.2
v 0.8 2.5 -0.3
v 0.9 2.5 -0.3
v 1.3 2.5 -0.3
v 1.4 2.5 -0.3
v 0.8 2.5 -0.7
v 0.9 2.5 -0.7
v 1.3 2.5 -0.7
v 1.4 2.5 -0.7
v 0.4 2.5 -0.8
v 0.8 2.5 -0.8
v 0.9 2.5 -0.8
v 1.3 2.5 -0.8
v 0.6 2.6 -0.1
v 1.1 2.6 -0.1
v 0.6 2.6 -0.2
v 1.1 2.6 -0.2
v 0.6 2.6 -0.8
v 1.1 2.6 -0.8
v 0.6 2.6 -0.9
v 1.1 2.6 -0.9
v 0.2 3 -0.4
v 0.4 3 -0.4
v 0.2 3 -0.6
v 0.4 3 -0.6
v 0.1 3.2 -0.4
v 0.2 3.2 -0.4
v 0.1 3.2 -0.6
v 0.2 3.2 -0.6
v 0.5 2.1 -0.1
v 1 2.1 -0.1
v 0.5 2.1 -0.2
v 0.7 2.1 -0.2
v 0.8 2.1 -0.2
v 0.9 2.1 -0.2
v 0.5 2.1 -0.3
v 0.7 2.1 -0.3
v 0.8 2.1 -0.3
v 0.9 2.1 -0.3
v 0.5 2.1 -0.4
v 1 2.1 -0.4
v 0.5 2.1 -0.6
v 1 2.1 -0.6
v 0.5 2.1 -0.7
v 0.7 2.1 -0.7
v 0.8 2.1 -0.7
v 0.9 2.1 -0.7
v 0.5 2.1 -0.8
v 0.7 2.1 -0.8
v 0.8 2.1 -0.8
v 0.9 2.1 -0.8
v 0.5 2.1 -0.9
v 1 2.1 -0.9
v 0.6 2.9 -0.1
v 1.1 2.9 -0.1
v 0.6 2.9 -0.2
v 1.1 2.9 -0.2
v 0.6 2.9 -0.8
v 1.1 2.9 -0.8
v 0.6 2.9 -0.9
v 1.1 2.9 -0.9
v 0.9 3 -0.2
v 1.3 3 -0.2
v 1.3 3 -0.3
v 1.4 3 -0.3
v 1.3 3 -0.7
v 1.4 3 -0.7
v 0.9 3 -0.8
v 1.3 3 -0.8
v 0.1 3.4 -0.4
v 0.4 3.4 -0.4
v 0.1 3.4 -0.6
v 0.4 3.4 -0.6
v 0.4 3.5 -0.2
v 0.9 3.5 -0.2
v 0.5 3.5 -0.4
v 0.8 3.5 -0.4
v 0.5 3.5 -0.6
v 0.8 3.5 -0.6
v 0.4 3.5 -0.8
v 0.9 3.5 -0.8
v 0.5 3.7 -0.4
v 0.8 3.7 -0.4
v 0.5 3.7 -0.6
v 0.8 3.7 -0.6

# faces
f 3/1/1 2/1/1 1/1/1
f 4/1/1 2/1/1 3/1/1
f 7/2/1 6/2/1 5/2/1
f 8/2/1 6/2/1 7/2/1
f 11/3/1 10/3/1 9/3/1
f 12/3/1 10/3/1 11/3/1
f 13/3/1 11/3/1 9/3/1
f 14/3/1 10/3/1 12/3/1
f 15/3/1 13/3/1 9/3/1
f 16/3/1 10/3/1 14/3/1
f 17/3/1 15/3/1 9/3/1
f 17/3/1 16/3/1 15/3/1
f 18/3/1 10/3/1 16/3/1
f 18/3/1 16/3/1 17/3/1
f 27/1/1 20/1/1 19/1/1
f 28/1/1 20/1/1 27/1/1
f 29/1/1 22/1/1 21/1/1
f 30/1/1 22/1/1 29/1/1
f 31/1/1 24/1/1 23/1/1
f 32/1/1 24/1/1 31/1/1
f 33/1/1 26/1/1 25/1/1
f 34/1/1 26/1/1 33/1/1
f 37/2/1 36/2/1 35/2/1
f 38/2/1 36/2/1 37/2/1
f 43/3/1 40/3/1 39/3/1
f 44/3/1 40/3/1 43/3/1
f 45/3/1 42/3/1 41/3/1
f 46/3/1 42/3/1 45/3/1
f 51/1/1 48/1/1 47/1/1
f 52/1/1 48/1/1 51/1/1
f 53/1/1 50/1/1 49/1/1
f 54/1/1 50/1/1 53/1/1
f 59/1/1 56/1/1 55/1/1
f 60/1/1 56/1/1 59/1/1
f 61/1/1 58/1/1 57/1/1
f 62/1/1 58/1/1 61/1/1
f 63/2/2 64/2/2 65/2/2
f 65/2/2 64/2/2 66/2/2
f 67/1/2 68/1/2 71/1/2
f 71/1/2 68/1/2 72/1/2
f 69/1/2 70/1/2 73/1/2
f 73/1/2 70/1/2 74/1/2
f 75/3/2 76/3/2 77/3/2
f 77/3/2 76/3/2 78/3/2
f 79/1/2 80/1/2 83/1/2
f 83/1/2 80/1/2 84/1/2
f 81/1/2 82/1/2 85/1/2
f 85/1/2 82/1/2 86/1/2
f 87/3/2 88/3/2 91/3/2
f 91/3/2 88/3/2 92/3/2
f 89/3/2 90/3/2 93/3/2
f 93/3/2 90/3/2 94/3/2
f 95/3/2 96/3/2 99/3/2
f 99/3/2 96/3/2 100/3/2
f 97/3/2 98/3/2 101/3/2
f 101/3/2 98/3/2 102/3/2
f 103/3/2 104/3/2 105/3/2
f 105/3/2 104/3/2 106/3/2
f 111/1/3 108/1/3 107/1/3
f 112/1/3 108/1/3 111/1/3
f 113/3/3 110/3/3 109/3/3
f 114/3/3 110/3/3 113/3/3
f 117/3/3 116/3/3 115/3/3
f 118/3/3 116/3/3 117/3/3
f 119/3/3 117/3/3 115/3/3
f 120/3/3 117/3/3 119/3/3
f 121/4/3 118/4/3 117/4/3
f 121/3/3 117/3/3 120/3/3
f 122/3/3 116/3/3 118/3/3
f 122/4/3 118/4/3 121/4/3
f 124/3/3 119/3/3 115/3/3
f 125/1/3 124/1/3 123/1/3
f 126/3/3 119/3/3 124/3/3
f 126/1/3 124/1/3 125/1/3
f 127/3/3 121/3/3 120/3/3
f 127/3/3 122/3/3 121/3/3
f 128/3/3 116/3/3 122/3/3
f 128/3/3 122/3/3 127/3/3
f 129/3/3 119/3/3 126/3/3
f 130/3/3 127/3/3 120/3/3
f 131/3/3 129/3/3 126/3/3
f 131/3/3 130/3/3 129/3/3
f 132/3/3 127/3/3 130/3/3
f 132/3/3 130/3/3 131/3/3
f 135/1/3 134/1/3 133/1/3
f 136/1/3 134/1/3 135/1/3
f 139/3/3 138/3/3 137/3/3
f 140/3/3 138/3/3 139/3/3
f 144/1/3 142/1/3 141/1/3
f 145/2/3 144/2/3 143/2/3
f 146/1/3 142/1/3 144/1/3
f 146/2/3 144/2/3 145/2/3
f 147/1/3 142/1/3 146/1/3
f 150/2/3 149/2/3 148/2/3
f 151/2/3 149/2/3 150/2/3
f 154/1/3 153/1/3 152/1/3
f 155/1/3 153/1/3 154/1/3
f 158/1/3 157/1/3 156/1/3
f 159/1/3 157/1/3 158/1/3
f 162/1/3 161/1/3 160/1/3
f 163/1/3 161/1/3 162/1/3
f 164/1/4 165/1/4 166/1/4
f 166/1/4 165/1/4 167/1/4
f 168/1/4 169/1/4 170/1/4
f 170/1/4 169/1/4 171/1/4
f 172/1/4 173/1/4 174/1/4
f 174/1/4 173/1/4 175/1/4
f 176/1/4 177/1/4 179/1/4
f 178/2/4 179/2/4 180/2/4
f 179/1/4 177/1/4 181/1/4
f 180/2/4 179/2/4 181/2/4
f 181/1/4 177/1/4 182/1/4
f 183/2/4 184/2/4 185/2/4
f 185/2/4 184/2/4 186/2/4
f 187/1/4 188/1/4 189/1/4
f 189/1/4 188/1/4 190/1/4
f 191/3/4 192/3/4 193/3/4
f 193/3/4 192/3/4 194/3/4
f 195/3/4 196/3/4 197/3/4
f 197/3/4 196/3/4 198/3/4
f 195/3/4 197/3/4 199/3/4
f 199/3/4 197/3/4 200/3/4
f 197/4/4 198/4/4 201/4/4
f 200/3/4 197/3/4 201/3/4
f 198/3/4 196/3/4 202/3/4
f 201/4/4 198/4/4 202/4/4
f 195/3/4 199/3/4 204/3/4
f 203/1/4 204/1/4 205/1/4
f 204/3/4 199/3/4 206/3/4
f 205/1/4 204/1/4 206/1/4
f 200/3/4 201/3/4 207/3/4
f 201/3/4 202/3/4 207/3/4
f 202/3/4 196/3/4 208/3/4
f 207/3/4 202/3/4 208/3/4
f 206/3/4 199/3/4 209/3/4
f 200/3/4 207/3/4 210/3/4
f 206/3/4 209/3/4 211/3/4
f 209/3/4 210/3/4 211/3/4
f 210/3/4 207/3/4 212/3/4
f 211/3/4 210/3/4 212/3/4
f 213/1/4 214/1/4 217/1/4
f 217/1/4 214/1/4 218/1/4
f 215/3/4 216/3/4 219/3/4
f 219/3/4 216/3/4 220/3/4
f 223/1/5 222/1/5 221/1/5
f 224/1/5 222/1/5 223/1/5
f 226/1/5 222/1/5 224/1/5
f 227/1/5 226/1/5 225/1/5
f 228/1/5 222/1/5 226/1/5
f 228/1/5 226/1/5 227/1/5
f 231/1/5 230/1/5 229/1/5
f 232/1/5 230/1/5 231/1/5
f 234/1/5 230/1/5 232/1/5
f 235/1/5 234/1/5 233/1/5
f 236/1/5 230/1/5 234/1/5
f 236/1/5 234/1/5 235/1/5
f 241/3/5 238/3/5 237/3/5
f 242/3/5 240/3/5 239/3/5
f 243/3/5 240/3/5 242/3/5
f 245/3/5 241/3/5 237/3/5
f 245/3/5 244/3/5 243/3/5
f 245/3/5 243/3/5 242/3/5
f 245/3/5 242/3/5 241/3/5
f 246/3/5 244/3/5 245/3/5
f 247/3/5 244/3/5 246/3/5
f 248/3/5 244/3/5 247/3/5
f 249/3/5 245/3/5 237/3/5
f 250/3/5 245/3/5 249/3/5
f 251/3/5 247/3/5 246/3/5
f 252/3/5 247/3/5 251/3/5
f 255/3/5 254/3/5 253/3/5
f 256/3/5 254/3/5 255/3/5
f 259/3/5 258/3/5 257/3/5
f 260/3/5 258/3/5 259/3/5
f 263/2/5 262/2/5 261/2/5
f 264/2/5 262/2/5 263/2/5
f 267/1/5 266/1/5 265/1/5
f 268/1/5 266/1/5 267/1/5
f 269/1/6 270/1/6 271/1/6
f 271/1/6 270/1/6 272/1/6
f 272/1/6 270/1/6 273/1/6
f 273/1/6 270/1/6 274/1/6
f 272/1/6 273/1/6 276/1/6
f 276/1/6 273/1/6 277/1/6
f 274/1/6 270/1/6 278/1/6
f 276/1/6 277/1/6 279/1/6
f 277/1/6 278/1/6 279/1/6
f 275/1/6 276/1/6 279/1/6
f 278/1/6 270/1/6 280/1/6
f 279/1/6 278/1/6 280/1/6
f 281/1/6 282/1/6 283/1/6
f 283/1/6 282/1/6 284/1/6
f 284/1/6 282/1/6 285/1/6
f 285/1/6 282/1/6 286/1/6
f 284/1/6 285/1/6 288/1/6
f 288/1/6 285/1/6 289/1/6
f 286/1/6 282/1/6 290/1/6
f 288/1/6 289/1/6 291/1/6
f 289/1/6 290/1/6 291/1/6
f 287/1/6 288/1/6 291/1/6
f 290/1/6 282/1/6 292/1/6
f 291/1/6 290/1/6 292/1/6
f 293/3/6 294/3/6 295/3/6
f 295/3/6 294/3/6 296/3/6
f 297/3/6 298/3/6 299/3/6
f 299/3/6 298/3/6 300/3/6
f 301/3/6 302/3/6 303/3/6
f 301/3/6 303/3/6 305/3/6
f 303/3/6 304/3/6 305/3/6
f 305/3/6 304/3/6 306/3/6
f 301/3/6 305/3/6 307/3/6
f 307/3/6 305/3/6 308/3/6
f 309/1/6 310/1/6 311/1/6
f 311/1/6 310/1/6 312/1/6
f 313/3/6 314/3/6 315/3/6
f 315/3/6 314/3/6 316/3/6
f 313/3/6 315/3/6 317/3/6
f 316/3/6 314/3/6 318/3/6
f 313/3/6 317/3/6 319/3/6
f 317/3/6 318/3/6 319/3/6
f 318/3/6 314/3/6 320/3/6
f 319/3/6 318/3/6 320/3/6
f 321/2/6 322/2/6 323/2/6
f 323/2/6 322/2/6 324/2/6
