# MagicaVoxel @ Ephtracy

# group
o 

# material
mtllib Car2.mtl
usemtl palette

# normals
vn -1 0 0
vn 1 0 0
vn 0 0 1
vn 0 0 -1
vn 0 -1 0
vn 0 1 0

# texcoords
vt 0.0605469 0.5
vt 0.380859 0.5
vt 0.427734 0.5
vt 0.916016 0.5
vt 0.974609 0.5
vt 0.994141 0.5

# verts
v 0 0.9 -1.1
v 0 0.9 -1.3
v 0 1 -1.1
v 0 1 -1.3
v 0.1 0.5 -0.2
v 0.1 0.5 -0.5
v 0.1 0.5 -1.4
v 0.1 0.5 -1.7
v 0.1 0.6 -0.1
v 0.1 0.6 -0.2
v 0.1 0.6 -0.3
v 0.1 0.6 -0.4
v 0.1 0.6 -0.5
v 0.1 0.6 -1.4
v 0.1 0.6 -1.5
v 0.1 0.6 -1.6
v 0.1 0.6 -1.7
v 0.1 0.6 -1.9
v 0.1 0.7 -0.1
v 0.1 0.7 -0.2
v 0.1 0.7 -0.3
v 0.1 0.7 -0.4
v 0.1 0.7 -0.5
v 0.1 0.7 -1.4
v 0.1 0.7 -1.5
v 0.1 0.7 -1.6
v 0.1 0.7 -1.7
v 0.1 0.7 -1.9
v 0.1 0.8 -0.1
v 0.1 0.8 -0.2
v 0.1 0.8 -0.3
v 0.1 0.8 -0.5
v 0.1 0.8 -0.9
v 0.1 0.8 -1.4
v 0.1 0.8 -1.7
v 0.1 0.8 -1.9
v 0.1 0.9 -0.3
v 0.1 0.9 -0.9
v 0.1 0.9 -1.1
v 0.1 0.9 -1.3
v 0.1 1 -0.1
v 0.1 1 -1.1
v 0.1 1 -1.3
v 0.1 1 -1.9
v 0.2 1 -0.3
v 0.2 1 -0.4
v 0.2 1 -0.6
v 0.2 1 -0.7
v 0.2 1 -1.3
v 0.2 1 -1.4
v 0.2 1.2 -0.4
v 0.2 1.2 -0.6
v 0.2 1.2 -0.7
v 0.2 1.2 -1.3
v 0.2 1.3 -0.3
v 0.2 1.3 -1.4
v 0.3 1.3 -0.7
v 0.3 1.3 -0.8
v 0.3 1.3 -0.9
v 0.3 1.4 -0.7
v 0.3 1.4 -0.8
v 0.3 1.4 -0.9
v 0.8 0.5 -0.2
v 0.8 0.5 -0.5
v 0.8 0.5 -1.4
v 0.8 0.5 -1.7
v 0.8 0.6 -0.2
v 0.8 0.6 -0.5
v 0.8 0.6 -1.4
v 0.8 0.6 -1.7
v 0.2 0.5 -0.2
v 0.2 0.5 -0.5
v 0.2 0.5 -1.4
v 0.2 0.5 -1.7
v 0.2 0.6 -0.2
v 0.2 0.6 -0.5
v 0.2 0.6 -1.4
v 0.2 0.6 -1.7
v 0.7 1.3 -0.7
v 0.7 1.3 -0.8
v 0.7 1.3 -0.9
v 0.7 1.4 -0.7
v 0.7 1.4 -0.8
v 0.7 1.4 -0.9
v 0.8 1 -0.3
v 0.8 1 -0.4
v 0.8 1 -0.6
v 0.8 1 -0.7
v 0.8 1 -1.3
v 0.8 1 -1.4
v 0.8 1.2 -0.4
v 0.8 1.2 -0.6
v 0.8 1.2 -0.7
v 0.8 1.2 -1.3
v 0.8 1.3 -0.3
v 0.8 1.3 -1.4
v 0.9 0.5 -0.2
v 0.9 0.5 -0.5
v 0.9 0.5 -1.4
v 0.9 0.5 -1.7
v 0.9 0.6 -0.1
v 0.9 0.6 -0.2
v 0.9 0.6 -0.3
v 0.9 0.6 -0.4
v 0.9 0.6 -0.5
v 0.9 0.6 -1.4
v 0.9 0.6 -1.5
v 0.9 0.6 -1.6
v 0.9 0.6 -1.7
v 0.9 0.6 -1.9
v 0.9 0.7 -0.1
v 0.9 0.7 -0.2
v 0.9 0.7 -0.3
v 0.9 0.7 -0.4
v 0.9 0.7 -0.5
v 0.9 0.7 -1.4
v 0.9 0.7 -1.5
v 0.9 0.7 -1.6
v 0.9 0.7 -1.7
v 0.9 0.7 -1.9
v 0.9 0.8 -0.1
v 0.9 0.8 -0.2
v 0.9 0.8 -0.3
v 0.9 0.8 -0.5
v 0.9 0.8 -0.9
v 0.9 0.8 -1.4
v 0.9 0.8 -1.7
v 0.9 0.8 -1.9
v 0.9 0.9 -0.3
v 0.9 0.9 -0.9
v 0.9 0.9 -1.1
v 0.9 0.9 -1.3
v 0.9 1 -0.1
v 0.9 1 -1.1
v 0.9 1 -1.3
v 0.9 1 -1.9
v 1 0.9 -1.1
v 1 0.9 -1.3
v 1 1 -1.1
v 1 1 -1.3
v 0.1 0.6 -0.1
v 0.1 0.7 -0.1
v 0.1 0.8 -0.1
v 0.1 1 -0.1
v 0.4 0.8 -0.1
v 0.4 1 -0.1
v 0.6 0.8 -0.1
v 0.6 1 -0.1
v 0.9 0.6 -0.1
v 0.9 0.7 -0.1
v 0.9 0.8 -0.1
v 0.9 1 -0.1
v 0.1 0.5 -0.2
v 0.1 0.6 -0.2
v 0.2 0.5 -0.2
v 0.2 0.6 -0.2
v 0.8 0.5 -0.2
v 0.8 0.6 -0.2
v 0.9 0.5 -0.2
v 0.9 0.6 -0.2
v 0.2 1 -0.3
v 0.2 1.3 -0.3
v 0.3 1 -0.3
v 0.3 1.2 -0.3
v 0.4 1 -0.3
v 0.6 1 -0.3
v 0.7 1 -0.3
v 0.7 1.2 -0.3
v 0.8 1 -0.3
v 0.8 1.3 -0.3
v 0.3 1.3 -0.7
v 0.3 1.4 -0.7
v 0.7 1.3 -0.7
v 0.7 1.4 -0.7
v 0 0.9 -1.1
v 0 1 -1.1
v 0.1 0.9 -1.1
v 0.1 1 -1.1
v 0.9 0.9 -1.1
v 0.9 1 -1.1
v 1 0.9 -1.1
v 1 1 -1.1
v 0.1 0.5 -1.4
v 0.1 0.6 -1.4
v 0.2 0.5 -1.4
v 0.2 0.6 -1.4
v 0.8 0.5 -1.4
v 0.8 0.6 -1.4
v 0.9 0.5 -1.4
v 0.9 0.6 -1.4
v 0.1 0.5 -0.5
v 0.1 0.6 -0.5
v 0.2 0.5 -0.5
v 0.2 0.6 -0.5
v 0.8 0.5 -0.5
v 0.8 0.6 -0.5
v 0.9 0.5 -0.5
v 0.9 0.6 -0.5
v 0.3 1.3 -0.9
v 0.3 1.4 -0.9
v 0.7 1.3 -0.9
v 0.7 1.4 -0.9
v 0 0.9 -1.3
v 0 1 -1.3
v 0.1 0.9 -1.3
v 0.1 1 -1.3
v 0.9 0.9 -1.3
v 0.9 1 -1.3
v 1 0.9 -1.3
v 1 1 -1.3
v 0.2 1 -1.4
v 0.2 1.3 -1.4
v 0.3 1 -1.4
v 0.3 1.2 -1.4
v 0.4 1 -1.4
v 0.6 1 -1.4
v 0.7 1 -1.4
v 0.7 1.2 -1.4
v 0.8 1 -1.4
v 0.8 1.3 -1.4
v 0.1 0.5 -1.7
v 0.1 0.6 -1.7
v 0.2 0.5 -1.7
v 0.2 0.6 -1.7
v 0.8 0.5 -1.7
v 0.8 0.6 -1.7
v 0.9 0.5 -1.7
v 0.9 0.6 -1.7
v 0.1 0.6 -1.9
v 0.1 0.7 -1.9
v 0.1 0.8 -1.9
v 0.1 1 -1.9
v 0.2 0.8 -1.9
v 0.2 0.9 -1.9
v 0.3 0.8 -1.9
v 0.3 0.9 -1.9
v 0.4 0.8 -1.9
v 0.4 1 -1.9
v 0.6 0.8 -1.9
v 0.6 1 -1.9
v 0.7 0.8 -1.9
v 0.7 0.9 -1.9
v 0.8 0.8 -1.9
v 0.8 0.9 -1.9
v 0.9 0.6 -1.9
v 0.9 0.7 -1.9
v 0.9 0.8 -1.9
v 0.9 1 -1.9
v 0.1 0.5 -0.2
v 0.2 0.5 -0.2
v 0.8 0.5 -0.2
v 0.9 0.5 -0.2
v 0.1 0.5 -0.5
v 0.2 0.5 -0.5
v 0.8 0.5 -0.5
v 0.9 0.5 -0.5
v 0.1 0.5 -1.4
v 0.2 0.5 -1.4
v 0.8 0.5 -1.4
v 0.9 0.5 -1.4
v 0.1 0.5 -1.7
v 0.2 0.5 -1.7
v 0.8 0.5 -1.7
v 0.9 0.5 -1.7
v 0.1 0.6 -0.1
v 0.9 0.6 -0.1
v 0.1 0.6 -0.2
v 0.2 0.6 -0.2
v 0.8 0.6 -0.2
v 0.9 0.6 -0.2
v 0.1 0.6 -0.5
v 0.2 0.6 -0.5
v 0.8 0.6 -0.5
v 0.9 0.6 -0.5
v 0.1 0.6 -1.4
v 0.2 0.6 -1.4
v 0.8 0.6 -1.4
v 0.9 0.6 -1.4
v 0.1 0.6 -1.7
v 0.2 0.6 -1.7
v 0.8 0.6 -1.7
v 0.9 0.6 -1.7
v 0.1 0.6 -1.9
v 0.9 0.6 -1.9
v 0 0.9 -1.1
v 0.1 0.9 -1.1
v 0.9 0.9 -1.1
v 1 0.9 -1.1
v 0 0.9 -1.3
v 0.1 0.9 -1.3
v 0.9 0.9 -1.3
v 1 0.9 -1.3
v 0.1 1 -0.1
v 0.4 1 -0.1
v 0.6 1 -0.1
v 0.9 1 -0.1
v 0.2 1 -0.3
v 0.3 1 -0.3
v 0.4 1 -0.3
v 0.6 1 -0.3
v 0.7 1 -0.3
v 0.8 1 -0.3
v 0.2 1 -0.4
v 0.8 1 -0.4
v 0.2 1 -0.6
v 0.8 1 -0.6
v 0.2 1 -0.7
v 0.8 1 -0.7
v 0 1 -1.1
v 0.1 1 -1.1
v 0.9 1 -1.1
v 1 1 -1.1
v 0 1 -1.3
v 0.1 1 -1.3
v 0.2 1 -1.3
v 0.8 1 -1.3
v 0.9 1 -1.3
v 1 1 -1.3
v 0.2 1 -1.4
v 0.3 1 -1.4
v 0.4 1 -1.4
v 0.6 1 -1.4
v 0.7 1 -1.4
v 0.8 1 -1.4
v 0.1 1 -1.9
v 0.4 1 -1.9
v 0.6 1 -1.9
v 0.9 1 -1.9
v 0.2 1.3 -0.3
v 0.8 1.3 -0.3
v 0.3 1.3 -0.7
v 0.7 1.3 -0.7
v 0.3 1.3 -0.8
v 0.7 1.3 -0.8
v 0.3 1.3 -0.9
v 0.7 1.3 -0.9
v 0.2 1.3 -1.4
v 0.8 1.3 -1.4
v 0.3 1.4 -0.7
v 0.7 1.4 -0.7
v 0.3 1.4 -0.8
v 0.7 1.4 -0.8
v 0.3 1.4 -0.9
v 0.7 1.4 -0.9

# faces
f 3/2/1 2/2/1 1/2/1
f 4/2/1 2/2/1 3/2/1
f 10/6/1 6/6/1 5/6/1
f 11/6/1 6/6/1 10/6/1
f 12/6/1 6/6/1 11/6/1
f 13/6/1 6/6/1 12/6/1
f 14/6/1 8/6/1 7/6/1
f 15/6/1 8/6/1 14/6/1
f 16/6/1 8/6/1 15/6/1
f 17/6/1 8/6/1 16/6/1
f 19/5/1 10/5/1 9/5/1
f 20/6/1 11/6/1 10/6/1
f 20/5/1 10/5/1 19/5/1
f 21/4/1 12/4/1 11/4/1
f 21/6/1 11/6/1 20/6/1
f 22/6/1 13/6/1 12/6/1
f 22/4/1 12/4/1 21/4/1
f 23/5/1 14/5/1 13/5/1
f 23/6/1 13/6/1 22/6/1
f 24/6/1 15/6/1 14/6/1
f 24/5/1 14/5/1 23/5/1
f 25/4/1 16/4/1 15/4/1
f 25/6/1 15/6/1 24/6/1
f 26/6/1 17/6/1 16/6/1
f 26/4/1 16/4/1 25/4/1
f 27/5/1 18/5/1 17/5/1
f 27/6/1 17/6/1 26/6/1
f 28/5/1 18/5/1 27/5/1
f 29/2/1 20/2/1 19/2/1
f 30/6/1 21/6/1 20/6/1
f 30/2/1 20/2/1 29/2/1
f 30/6/1 22/6/1 21/6/1
f 30/6/1 23/6/1 22/6/1
f 31/6/1 23/6/1 30/6/1
f 32/2/1 24/2/1 23/2/1
f 32/6/1 23/6/1 31/6/1
f 33/2/1 24/2/1 32/2/1
f 34/6/1 26/6/1 25/6/1
f 34/2/1 24/2/1 33/2/1
f 34/6/1 27/6/1 26/6/1
f 34/6/1 25/6/1 24/6/1
f 35/2/1 28/2/1 27/2/1
f 35/6/1 27/6/1 34/6/1
f 36/2/1 28/2/1 35/2/1
f 37/1/1 33/1/1 32/1/1
f 37/1/1 32/1/1 31/1/1
f 37/3/1 31/3/1 30/3/1
f 37/3/1 30/3/1 29/3/1
f 38/3/1 34/3/1 33/3/1
f 38/1/1 33/1/1 37/1/1
f 38/3/1 36/3/1 35/3/1
f 38/3/1 35/3/1 34/3/1
f 39/3/1 36/3/1 38/3/1
f 40/3/1 36/3/1 39/3/1
f 41/3/1 37/3/1 29/3/1
f 41/3/1 38/3/1 37/3/1
f 41/3/1 39/3/1 38/3/1
f 42/3/1 39/3/1 41/3/1
f 43/3/1 36/3/1 40/3/1
f 44/3/1 36/3/1 43/3/1
f 51/4/1 46/4/1 45/4/1
f 51/6/1 47/6/1 46/6/1
f 52/4/1 48/4/1 47/4/1
f 52/6/1 47/6/1 51/6/1
f 53/6/1 49/6/1 48/6/1
f 53/4/1 48/4/1 52/4/1
f 54/4/1 50/4/1 49/4/1
f 54/6/1 49/6/1 53/6/1
f 55/4/1 53/4/1 52/4/1
f 55/4/1 52/4/1 51/4/1
f 55/4/1 54/4/1 53/4/1
f 55/4/1 51/4/1 45/4/1
f 56/4/1 50/4/1 54/4/1
f 56/4/1 54/4/1 55/4/1
f 60/2/1 58/2/1 57/2/1
f 61/3/1 59/3/1 58/3/1
f 61/2/1 58/2/1 60/2/1
f 62/3/1 59/3/1 61/3/1
f 67/6/1 64/6/1 63/6/1
f 68/6/1 64/6/1 67/6/1
f 69/6/1 66/6/1 65/6/1
f 70/6/1 66/6/1 69/6/1
f 71/6/2 72/6/2 75/6/2
f 75/6/2 72/6/2 76/6/2
f 73/6/2 74/6/2 77/6/2
f 77/6/2 74/6/2 78/6/2
f 79/2/2 80/2/2 82/2/2
f 80/3/2 81/3/2 83/3/2
f 82/2/2 80/2/2 83/2/2
f 83/3/2 81/3/2 84/3/2
f 85/4/2 86/4/2 91/4/2
f 86/6/2 87/6/2 91/6/2
f 87/4/2 88/4/2 92/4/2
f 91/6/2 87/6/2 92/6/2
f 88/6/2 89/6/2 93/6/2
f 92/4/2 88/4/2 93/4/2
f 89/4/2 90/4/2 94/4/2
f 93/6/2 89/6/2 94/6/2
f 92/4/2 93/4/2 95/4/2
f 91/4/2 92/4/2 95/4/2
f 93/4/2 94/4/2 95/4/2
f 85/4/2 91/4/2 95/4/2
f 94/4/2 90/4/2 96/4/2
f 95/4/2 94/4/2 96/4/2
f 97/6/2 98/6/2 102/6/2
f 102/6/2 98/6/2 103/6/2
f 103/6/2 98/6/2 104/6/2
f 104/6/2 98/6/2 105/6/2
f 99/6/2 100/6/2 106/6/2
f 106/6/2 100/6/2 107/6/2
f 107/6/2 100/6/2 108/6/2
f 108/6/2 100/6/2 109/6/2
f 101/5/2 102/5/2 111/5/2
f 102/6/2 103/6/2 112/6/2
f 111/5/2 102/5/2 112/5/2
f 103/4/2 104/4/2 113/4/2
f 112/6/2 103/6/2 113/6/2
f 104/6/2 105/6/2 114/6/2
f 113/4/2 104/4/2 114/4/2
f 105/5/2 106/5/2 115/5/2
f 114/6/2 105/6/2 115/6/2
f 106/6/2 107/6/2 116/6/2
f 115/5/2 106/5/2 116/5/2
f 107/4/2 108/4/2 117/4/2
f 116/6/2 107/6/2 117/6/2
f 108/6/2 109/6/2 118/6/2
f 117/4/2 108/4/2 118/4/2
f 109/5/2 110/5/2 119/5/2
f 118/6/2 109/6/2 119/6/2
f 119/5/2 110/5/2 120/5/2
f 111/2/2 112/2/2 121/2/2
f 112/6/2 113/6/2 122/6/2
f 121/2/2 112/2/2 122/2/2
f 113/6/2 114/6/2 122/6/2
f 114/6/2 115/6/2 122/6/2
f 122/6/2 115/6/2 123/6/2
f 115/2/2 116/2/2 124/2/2
f 123/6/2 115/6/2 124/6/2
f 124/2/2 116/2/2 125/2/2
f 117/6/2 118/6/2 126/6/2
f 125/2/2 116/2/2 126/2/2
f 118/6/2 119/6/2 126/6/2
f 116/6/2 117/6/2 126/6/2
f 119/2/2 120/2/2 127/2/2
f 126/6/2 119/6/2 127/6/2
f 127/2/2 120/2/2 128/2/2
f 124/1/2 125/1/2 129/1/2
f 123/1/2 124/1/2 129/1/2
f 122/3/2 123/3/2 129/3/2
f 121/3/2 122/3/2 129/3/2
f 125/3/2 126/3/2 130/3/2
f 129/1/2 125/1/2 130/1/2
f 127/3/2 128/3/2 130/3/2
f 126/3/2 127/3/2 130/3/2
f 130/3/2 128/3/2 131/3/2
f 131/3/2 128/3/2 132/3/2
f 121/3/2 129/3/2 133/3/2
f 129/3/2 130/3/2 133/3/2
f 130/3/2 131/3/2 133/3/2
f 133/3/2 131/3/2 134/3/2
f 132/3/2 128/3/2 135/3/2
f 135/3/2 128/3/2 136/3/2
f 137/2/2 138/2/2 139/2/2
f 139/2/2 138/2/2 140/2/2
f 145/2/3 143/2/3 142/2/3
f 145/3/3 144/3/3 143/3/3
f 146/3/3 144/3/3 145/3/3
f 147/2/3 145/2/3 142/2/3
f 147/2/3 146/2/3 145/2/3
f 148/2/3 146/2/3 147/2/3
f 149/5/3 142/5/3 141/5/3
f 150/2/3 147/2/3 142/2/3
f 150/5/3 142/5/3 149/5/3
f 151/3/3 148/3/3 147/3/3
f 151/2/3 147/2/3 150/2/3
f 152/3/3 148/3/3 151/3/3
f 155/6/3 154/6/3 153/6/3
f 156/6/3 154/6/3 155/6/3
f 159/6/3 158/6/3 157/6/3
f 160/6/3 158/6/3 159/6/3
f 163/4/3 162/4/3 161/4/3
f 164/4/3 162/4/3 163/4/3
f 165/6/3 164/6/3 163/6/3
f 166/6/3 164/6/3 165/6/3
f 167/6/3 164/6/3 166/6/3
f 168/4/3 162/4/3 164/4/3
f 168/6/3 164/6/3 167/6/3
f 169/4/3 168/4/3 167/4/3
f 170/4/3 162/4/3 168/4/3
f 170/4/3 168/4/3 169/4/3
f 173/2/3 172/2/3 171/2/3
f 174/2/3 172/2/3 173/2/3
f 177/2/3 176/2/3 175/2/3
f 178/2/3 176/2/3 177/2/3
f 181/2/3 180/2/3 179/2/3
f 182/2/3 180/2/3 181/2/3
f 185/6/3 184/6/3 183/6/3
f 186/6/3 184/6/3 185/6/3
f 189/6/3 188/6/3 187/6/3
f 190/6/3 188/6/3 189/6/3
f 191/6/4 192/6/4 193/6/4
f 193/6/4 192/6/4 194/6/4
f 195/6/4 196/6/4 197/6/4
f 197/6/4 196/6/4 198/6/4
f 199/3/4 200/3/4 201/3/4
f 201/3/4 200/3/4 202/3/4
f 203/2/4 204/2/4 205/2/4
f 205/2/4 204/2/4 206/2/4
f 207/2/4 208/2/4 209/2/4
f 209/2/4 208/2/4 210/2/4
f 211/4/4 212/4/4 213/4/4
f 213/4/4 212/4/4 214/4/4
f 213/6/4 214/6/4 215/6/4
f 215/6/4 214/6/4 216/6/4
f 216/6/4 214/6/4 217/6/4
f 214/4/4 212/4/4 218/4/4
f 217/6/4 214/6/4 218/6/4
f 217/4/4 218/4/4 219/4/4
f 218/4/4 212/4/4 220/4/4
f 219/4/4 218/4/4 220/4/4
f 221/6/4 222/6/4 223/6/4
f 223/6/4 222/6/4 224/6/4
f 225/6/4 226/6/4 227/6/4
f 227/6/4 226/6/4 228/6/4
f 230/2/4 231/2/4 233/2/4
f 231/3/4 232/3/4 233/3/4
f 233/3/4 232/3/4 234/3/4
f 230/2/4 233/2/4 235/2/4
f 233/4/4 234/4/4 235/4/4
f 234/3/4 232/3/4 236/3/4
f 235/4/4 234/4/4 236/4/4
f 230/2/4 235/2/4 237/2/4
f 235/3/4 236/3/4 237/3/4
f 236/3/4 232/3/4 238/3/4
f 237/3/4 236/3/4 238/3/4
f 230/2/4 237/2/4 239/2/4
f 237/2/4 238/2/4 239/2/4
f 239/2/4 238/2/4 240/2/4
f 230/2/4 239/2/4 241/2/4
f 239/3/4 240/3/4 241/3/4
f 241/3/4 240/3/4 242/3/4
f 230/2/4 241/2/4 243/2/4
f 241/4/4 242/4/4 243/4/4
f 242/3/4 240/3/4 244/3/4
f 243/4/4 242/4/4 244/4/4
f 229/5/4 230/5/4 245/5/4
f 230/2/4 243/2/4 246/2/4
f 245/5/4 230/5/4 246/5/4
f 243/3/4 244/3/4 247/3/4
f 246/2/4 243/2/4 247/2/4
f 244/3/4 240/3/4 248/3/4
f 247/3/4 244/3/4 248/3/4
f 253/6/5 250/6/5 249/6/5
f 254/6/5 250/6/5 253/6/5
f 255/6/5 252/6/5 251/6/5
f 256/6/5 252/6/5 255/6/5
f 261/6/5 258/6/5 257/6/5
f 262/6/5 258/6/5 261/6/5
f 263/6/5 260/6/5 259/6/5
f 264/6/5 260/6/5 263/6/5
f 267/5/5 266/5/5 265/5/5
f 268/5/5 266/5/5 267/5/5
f 269/5/5 266/5/5 268/5/5
f 270/5/5 266/5/5 269/5/5
f 272/5/5 269/5/5 268/5/5
f 273/5/5 269/5/5 272/5/5
f 275/5/5 272/5/5 271/5/5
f 275/5/5 274/5/5 273/5/5
f 275/5/5 273/5/5 272/5/5
f 276/5/5 274/5/5 275/5/5
f 277/5/5 274/5/5 276/5/5
f 278/5/5 274/5/5 277/5/5
f 280/5/5 277/5/5 276/5/5
f 281/5/5 277/5/5 280/5/5
f 283/5/5 280/5/5 279/5/5
f 283/5/5 282/5/5 281/5/5
f 283/5/5 281/5/5 280/5/5
f 284/5/5 282/5/5 283/5/5
f 289/2/5 286/2/5 285/2/5
f 290/2/5 286/2/5 289/2/5
f 291/2/5 288/2/5 287/2/5
f 292/2/5 288/2/5 291/2/5
f 293/3/6 294/3/6 297/3/6
f 297/3/6 294/3/6 298/3/6
f 294/2/6 295/2/6 299/2/6
f 298/3/6 294/3/6 299/3/6
f 295/3/6 296/3/6 300/3/6
f 299/2/6 295/2/6 300/2/6
f 300/3/6 296/3/6 301/3/6
f 301/3/6 296/3/6 302/3/6
f 293/3/6 297/3/6 303/3/6
f 302/3/6 296/3/6 304/3/6
f 293/3/6 303/3/6 305/3/6
f 304/3/6 296/3/6 306/3/6
f 293/3/6 305/3/6 307/3/6
f 306/3/6 296/3/6 308/3/6
f 293/3/6 307/3/6 310/3/6
f 308/3/6 296/3/6 311/3/6
f 309/2/6 310/2/6 313/2/6
f 310/3/6 307/3/6 314/3/6
f 313/2/6 310/2/6 314/2/6
f 314/3/6 307/3/6 315/3/6
f 308/3/6 311/3/6 316/3/6
f 311/2/6 312/2/6 317/2/6
f 316/3/6 311/3/6 317/3/6
f 317/2/6 312/2/6 318/2/6
f 314/3/6 315/3/6 319/3/6
f 316/3/6 317/3/6 324/3/6
f 314/3/6 319/3/6 325/3/6
f 319/3/6 320/3/6 325/3/6
f 320/3/6 321/3/6 325/3/6
f 321/2/6 322/2/6 326/2/6
f 325/3/6 321/3/6 326/3/6
f 322/3/6 323/3/6 327/3/6
f 326/2/6 322/2/6 327/2/6
f 323/3/6 324/3/6 327/3/6
f 324/3/6 317/3/6 328/3/6
f 327/3/6 324/3/6 328/3/6
f 329/4/6 330/4/6 331/4/6
f 331/4/6 330/4/6 332/4/6
f 329/4/6 331/4/6 333/4/6
f 332/4/6 330/4/6 334/4/6
f 329/4/6 333/4/6 335/4/6
f 334/4/6 330/4/6 336/4/6
f 329/4/6 335/4/6 337/4/6
f 335/4/6 336/4/6 337/4/6
f 336/4/6 330/4/6 338/4/6
f 337/4/6 336/4/6 338/4/6
f 339/2/6 340/2/6 341/2/6
f 341/2/6 340/2/6 342/2/6
f 341/3/6 342/3/6 343/3/6
f 343/3/6 342/3/6 344/3/6
