# MagicaVoxel @ Ephtracy

# group
o 

# material
mtllib Log1.mtl
usemtl palette

# normals
vn -1 0 0
vn 1 0 0
vn 0 0 1
vn 0 0 -1
vn 0 -1 0
vn 0 1 0

# texcoords
vt 0.244141 0.5
vt 0.248047 0.5
vt 0.279297 0.5

# verts
v 0.1 0.3 -0.2
v 0.1 0.3 -0.3
v 0.1 0.3 -0.7
v 0.1 0.3 -0.8
v 0.1 0.6 -0.3
v 0.1 0.6 -0.7
v 0.1 0.7 -0.2
v 0.1 0.7 -0.8
v 1.9 0.3 -0.2
v 1.9 0.3 -0.3
v 1.9 0.3 -0.7
v 1.9 0.3 -0.8
v 1.9 0.6 -0.3
v 1.9 0.6 -0.7
v 1.9 0.7 -0.2
v 1.9 0.7 -0.8
v 0.1 0.3 -0.2
v 0.1 0.7 -0.2
v 0.2 0.3 -0.2
v 0.2 0.7 -0.2
v 0.3 0.3 -0.2
v 0.3 0.4 -0.2
v 0.6 0.4 -0.2
v 0.6 0.6 -0.2
v 0.8 0.3 -0.2
v 0.8 0.6 -0.2
v 1 0.3 -0.2
v 1 0.4 -0.2
v 1.1 0.5 -0.2
v 1.1 0.7 -0.2
v 1.2 0.3 -0.2
v 1.2 0.4 -0.2
v 1.5 0.5 -0.2
v 1.5 0.7 -0.2
v 1.6 0.3 -0.2
v 1.6 0.4 -0.2
v 1.8 0.3 -0.2
v 1.8 0.4 -0.2
v 1.8 0.7 -0.2
v 1.9 0.3 -0.2
v 1.9 0.7 -0.2
v 0.1 0.3 -0.7
v 0.1 0.6 -0.7
v 0.2 0.3 -0.7
v 0.2 0.6 -0.7
v 0.3 0.3 -0.7
v 0.3 0.5 -0.7
v 0.6 0.3 -0.7
v 0.6 0.5 -0.7
v 0.7 0.3 -0.7
v 0.7 0.4 -0.7
v 0.8 0.4 -0.7
v 0.8 0.5 -0.7
v 1 0.3 -0.7
v 1 0.5 -0.7
v 1.2 0.3 -0.7
v 1.2 0.4 -0.7
v 1.8 0.3 -0.7
v 1.8 0.4 -0.7
v 1.8 0.6 -0.7
v 1.9 0.3 -0.7
v 1.9 0.6 -0.7
v 0.1 0.3 -0.3
v 0.1 0.6 -0.3
v 0.2 0.3 -0.3
v 0.2 0.6 -0.3
v 0.3 0.3 -0.3
v 0.3 0.4 -0.3
v 0.6 0.4 -0.3
v 0.6 0.6 -0.3
v 0.7 0.6 -0.3
v 0.8 0.3 -0.3
v 0.8 0.6 -0.3
v 0.9 0.6 -0.3
v 1 0.3 -0.3
v 1 0.4 -0.3
v 1.1 0.5 -0.3
v 1.1 0.6 -0.3
v 1.2 0.3 -0.3
v 1.2 0.4 -0.3
v 1.5 0.5 -0.3
v 1.5 0.6 -0.3
v 1.6 0.3 -0.3
v 1.6 0.4 -0.3
v 1.8 0.3 -0.3
v 1.8 0.4 -0.3
v 1.8 0.6 -0.3
v 1.9 0.3 -0.3
v 1.9 0.6 -0.3
v 0.1 0.3 -0.8
v 0.1 0.7 -0.8
v 0.2 0.3 -0.8
v 0.2 0.7 -0.8
v 0.3 0.3 -0.8
v 0.3 0.5 -0.8
v 0.4 0.6 -0.8
v 0.4 0.7 -0.8
v 0.6 0.3 -0.8
v 0.6 0.5 -0.8
v 0.7 0.3 -0.8
v 0.7 0.4 -0.8
v 0.8 0.4 -0.8
v 0.8 0.5 -0.8
v 0.9 0.6 -0.8
v 0.9 0.7 -0.8
v 1 0.3 -0.8
v 1 0.5 -0.8
v 1.1 0.6 -0.8
v 1.1 0.7 -0.8
v 1.2 0.3 -0.8
v 1.2 0.4 -0.8
v 1.2 0.6 -0.8
v 1.2 0.7 -0.8
v 1.4 0.6 -0.8
v 1.4 0.7 -0.8
v 1.7 0.6 -0.8
v 1.7 0.7 -0.8
v 1.8 0.3 -0.8
v 1.8 0.4 -0.8
v 1.8 0.7 -0.8
v 1.9 0.3 -0.8
v 1.9 0.7 -0.8
v 0.1 0.3 -0.2
v 0.2 0.3 -0.2
v 0.3 0.3 -0.2
v 0.8 0.3 -0.2
v 1 0.3 -0.2
v 1.2 0.3 -0.2
v 1.6 0.3 -0.2
v 1.8 0.3 -0.2
v 1.9 0.3 -0.2
v 0.1 0.3 -0.3
v 0.2 0.3 -0.3
v 0.3 0.3 -0.3
v 0.8 0.3 -0.3
v 1 0.3 -0.3
v 1.2 0.3 -0.3
v 1.6 0.3 -0.3
v 1.8 0.3 -0.3
v 1.9 0.3 -0.3
v 0.1 0.3 -0.7
v 0.2 0.3 -0.7
v 0.3 0.3 -0.7
v 0.6 0.3 -0.7
v 0.7 0.3 -0.7
v 1 0.3 -0.7
v 1.2 0.3 -0.7
v 1.8 0.3 -0.7
v 1.9 0.3 -0.7
v 0.1 0.3 -0.8
v 0.2 0.3 -0.8
v 0.3 0.3 -0.8
v 0.6 0.3 -0.8
v 0.7 0.3 -0.8
v 1 0.3 -0.8
v 1.2 0.3 -0.8
v 1.8 0.3 -0.8
v 1.9 0.3 -0.8
v 0.1 0.6 -0.3
v 0.2 0.6 -0.3
v 0.6 0.6 -0.3
v 0.7 0.6 -0.3
v 0.8 0.6 -0.3
v 0.9 0.6 -0.3
v 1.1 0.6 -0.3
v 1.5 0.6 -0.3
v 1.8 0.6 -0.3
v 1.9 0.6 -0.3
v 1.1 0.6 -0.4
v 1.3 0.6 -0.4
v 1.5 0.6 -0.4
v 1.7 0.6 -0.4
v 0.2 0.6 -0.5
v 0.7 0.6 -0.5
v 0.9 0.6 -0.5
v 1.1 0.6 -0.5
v 1.3 0.6 -0.6
v 1.7 0.6 -0.6
v 0.1 0.6 -0.7
v 0.2 0.6 -0.7
v 1.8 0.6 -0.7
v 1.9 0.6 -0.7
v 0.1 0.7 -0.2
v 0.2 0.7 -0.2
v 1.1 0.7 -0.2
v 1.5 0.7 -0.2
v 1.8 0.7 -0.2
v 1.9 0.7 -0.2
v 0.2 0.7 -0.3
v 0.7 0.7 -0.3
v 0.9 0.7 -0.3
v 1.1 0.7 -0.3
v 1.1 0.7 -0.4
v 1.3 0.7 -0.4
v 1.5 0.7 -0.4
v 1.7 0.7 -0.4
v 0.2 0.7 -0.5
v 0.7 0.7 -0.5
v 0.9 0.7 -0.5
v 1.1 0.7 -0.5
v 1.3 0.7 -0.6
v 1.7 0.7 -0.6
v 0.4 0.7 -0.7
v 0.9 0.7 -0.7
v 1.1 0.7 -0.7
v 1.2 0.7 -0.7
v 1.4 0.7 -0.7
v 1.7 0.7 -0.7
v 0.1 0.7 -0.8
v 0.2 0.7 -0.8
v 0.4 0.7 -0.8
v 0.9 0.7 -0.8
v 1.1 0.7 -0.8
v 1.2 0.7 -0.8
v 1.4 0.7 -0.8
v 1.7 0.7 -0.8
v 1.8 0.7 -0.8
v 1.9 0.7 -0.8

# faces
f 5/2/1 2/2/1 1/2/1
f 6/2/1 4/2/1 3/2/1
f 7/2/1 5/2/1 1/2/1
f 7/2/1 6/2/1 5/2/1
f 8/2/1 4/2/1 6/2/1
f 8/2/1 6/2/1 7/2/1
f 9/2/2 10/2/2 13/2/2
f 11/2/2 12/2/2 14/2/2
f 9/2/2 13/2/2 15/2/2
f 13/2/2 14/2/2 15/2/2
f 14/2/2 12/2/2 16/2/2
f 15/2/2 14/2/2 16/2/2
f 19/2/3 18/2/3 17/2/3
f 20/2/3 18/2/3 19/2/3
f 21/1/3 20/1/3 19/1/3
f 22/1/3 20/1/3 21/1/3
f 23/3/3 22/3/3 21/3/3
f 23/1/3 20/1/3 22/1/3
f 24/1/3 20/1/3 23/1/3
f 25/3/3 23/3/3 21/3/3
f 25/3/3 24/3/3 23/3/3
f 26/1/3 20/1/3 24/1/3
f 26/3/3 24/3/3 25/3/3
f 27/1/3 26/1/3 25/1/3
f 28/1/3 26/1/3 27/1/3
f 29/1/3 26/1/3 28/1/3
f 30/1/3 20/1/3 26/1/3
f 30/1/3 26/1/3 29/1/3
f 31/3/3 28/3/3 27/3/3
f 32/1/3 29/1/3 28/1/3
f 32/3/3 28/3/3 31/3/3
f 33/3/3 30/3/3 29/3/3
f 33/1/3 29/1/3 32/1/3
f 33/1/3 32/1/3 31/1/3
f 34/3/3 30/3/3 33/3/3
f 35/1/3 33/1/3 31/1/3
f 35/1/3 34/1/3 33/1/3
f 36/1/3 34/1/3 35/1/3
f 37/3/3 36/3/3 35/3/3
f 38/1/3 34/1/3 36/1/3
f 38/3/3 36/3/3 37/3/3
f 39/1/3 34/1/3 38/1/3
f 40/2/3 38/2/3 37/2/3
f 40/2/3 39/2/3 38/2/3
f 41/2/3 39/2/3 40/2/3
f 44/2/3 43/2/3 42/2/3
f 45/2/3 43/2/3 44/2/3
f 46/1/3 45/1/3 44/1/3
f 47/1/3 45/1/3 46/1/3
f 48/3/3 47/3/3 46/3/3
f 49/1/3 45/1/3 47/1/3
f 49/3/3 47/3/3 48/3/3
f 50/1/3 49/1/3 48/1/3
f 51/1/3 49/1/3 50/1/3
f 52/3/3 51/3/3 50/3/3
f 52/1/3 49/1/3 51/1/3
f 53/1/3 45/1/3 49/1/3
f 53/1/3 49/1/3 52/1/3
f 54/3/3 52/3/3 50/3/3
f 54/3/3 53/3/3 52/3/3
f 55/1/3 45/1/3 53/1/3
f 55/3/3 53/3/3 54/3/3
f 56/1/3 55/1/3 54/1/3
f 57/1/3 55/1/3 56/1/3
f 58/3/3 57/3/3 56/3/3
f 59/1/3 55/1/3 57/1/3
f 59/3/3 57/3/3 58/3/3
f 60/1/3 45/1/3 55/1/3
f 60/1/3 55/1/3 59/1/3
f 61/2/3 59/2/3 58/2/3
f 61/2/3 60/2/3 59/2/3
f 62/2/3 60/2/3 61/2/3
f 63/2/4 64/2/4 65/2/4
f 65/2/4 64/2/4 66/2/4
f 65/1/4 66/1/4 67/1/4
f 67/1/4 66/1/4 68/1/4
f 67/3/4 68/3/4 69/3/4
f 68/1/4 66/1/4 69/1/4
f 69/1/4 66/1/4 70/1/4
f 69/3/4 70/3/4 71/3/4
f 67/3/4 69/3/4 72/3/4
f 69/3/4 71/3/4 72/3/4
f 72/3/4 71/3/4 73/3/4
f 72/1/4 73/1/4 74/1/4
f 72/1/4 74/1/4 75/1/4
f 75/1/4 74/1/4 76/1/4
f 76/1/4 74/1/4 77/1/4
f 77/1/4 74/1/4 78/1/4
f 75/3/4 76/3/4 79/3/4
f 76/1/4 77/1/4 80/1/4
f 79/3/4 76/3/4 80/3/4
f 77/3/4 78/3/4 81/3/4
f 80/1/4 77/1/4 81/1/4
f 79/1/4 80/1/4 81/1/4
f 81/3/4 78/3/4 82/3/4
f 79/1/4 81/1/4 83/1/4
f 81/1/4 82/1/4 83/1/4
f 83/1/4 82/1/4 84/1/4
f 83/3/4 84/3/4 85/3/4
f 84/1/4 82/1/4 86/1/4
f 85/3/4 84/3/4 86/3/4
f 86/1/4 82/1/4 87/1/4
f 85/2/4 86/2/4 88/2/4
f 86/2/4 87/2/4 88/2/4
f 88/2/4 87/2/4 89/2/4
f 90/2/4 91/2/4 92/2/4
f 92/2/4 91/2/4 93/2/4
f 92/1/4 93/1/4 94/1/4
f 94/1/4 93/1/4 95/1/4
f 95/1/4 93/1/4 96/1/4
f 96/1/4 93/1/4 97/1/4
f 94/3/4 95/3/4 98/3/4
f 95/1/4 96/1/4 99/1/4
f 98/3/4 95/3/4 99/3/4
f 98/1/4 99/1/4 100/1/4
f 100/1/4 99/1/4 101/1/4
f 100/3/4 101/3/4 102/3/4
f 101/1/4 99/1/4 102/1/4
f 99/1/4 96/1/4 103/1/4
f 102/1/4 99/1/4 103/1/4
f 96/3/4 97/3/4 104/3/4
f 103/1/4 96/1/4 104/1/4
f 104/3/4 97/3/4 105/3/4
f 102/3/4 103/3/4 106/3/4
f 100/3/4 102/3/4 106/3/4
f 104/1/4 105/1/4 107/1/4
f 106/3/4 103/3/4 107/3/4
f 103/1/4 104/1/4 107/1/4
f 106/1/4 107/1/4 108/1/4
f 107/1/4 105/1/4 108/1/4
f 108/1/4 105/1/4 109/1/4
f 106/1/4 108/1/4 110/1/4
f 110/1/4 108/1/4 111/1/4
f 108/3/4 109/3/4 112/3/4
f 111/1/4 108/1/4 112/1/4
f 112/3/4 109/3/4 113/3/4
f 111/1/4 112/1/4 114/1/4
f 112/1/4 113/1/4 114/1/4
f 114/1/4 113/1/4 115/1/4
f 111/1/4 114/1/4 116/1/4
f 114/3/4 115/3/4 116/3/4
f 116/3/4 115/3/4 117/3/4
f 110/3/4 111/3/4 118/3/4
f 111/1/4 116/1/4 119/1/4
f 118/3/4 111/3/4 119/3/4
f 116/1/4 117/1/4 119/1/4
f 119/1/4 117/1/4 120/1/4
f 118/2/4 119/2/4 121/2/4
f 119/2/4 120/2/4 121/2/4
f 121/2/4 120/2/4 122/2/4
f 132/2/5 124/2/5 123/2/5
f 133/1/5 125/1/5 124/1/5
f 133/2/5 124/2/5 132/2/5
f 134/3/5 126/3/5 125/3/5
f 134/1/5 125/1/5 133/1/5
f 135/1/5 127/1/5 126/1/5
f 135/3/5 126/3/5 134/3/5
f 136/3/5 128/3/5 127/3/5
f 136/1/5 127/1/5 135/1/5
f 137/1/5 129/1/5 128/1/5
f 137/3/5 128/3/5 136/3/5
f 138/3/5 130/3/5 129/3/5
f 138/1/5 129/1/5 137/1/5
f 139/2/5 131/2/5 130/2/5
f 139/3/5 130/3/5 138/3/5
f 140/2/5 131/2/5 139/2/5
f 150/2/5 142/2/5 141/2/5
f 151/1/5 143/1/5 142/1/5
f 151/2/5 142/2/5 150/2/5
f 152/3/5 144/3/5 143/3/5
f 152/1/5 143/1/5 151/1/5
f 153/1/5 145/1/5 144/1/5
f 153/3/5 144/3/5 152/3/5
f 154/3/5 146/3/5 145/3/5
f 154/1/5 145/1/5 153/1/5
f 155/1/5 147/1/5 146/1/5
f 155/3/5 146/3/5 154/3/5
f 156/3/5 148/3/5 147/3/5
f 156/1/5 147/1/5 155/1/5
f 157/2/5 149/2/5 148/2/5
f 157/3/5 148/3/5 156/3/5
f 158/2/5 149/2/5 157/2/5
f 169/3/5 165/3/5 164/3/5
f 169/3/5 166/3/5 165/3/5
f 170/3/5 166/3/5 169/3/5
f 171/1/5 167/1/5 166/1/5
f 171/3/5 166/3/5 170/3/5
f 172/1/5 167/1/5 171/1/5
f 173/2/5 160/2/5 159/2/5
f 173/3/5 161/3/5 160/3/5
f 173/3/5 162/3/5 161/3/5
f 174/1/5 163/1/5 162/1/5
f 174/3/5 162/3/5 173/3/5
f 174/1/5 164/1/5 163/1/5
f 175/3/5 169/3/5 164/3/5
f 175/1/5 164/1/5 174/1/5
f 176/1/5 170/1/5 169/1/5
f 176/3/5 169/3/5 175/3/5
f 177/3/5 172/3/5 171/3/5
f 177/1/5 170/1/5 176/1/5
f 177/1/5 176/1/5 175/1/5
f 177/1/5 175/1/5 174/1/5
f 177/3/5 171/3/5 170/3/5
f 177/1/5 174/1/5 173/1/5
f 178/1/5 167/1/5 172/1/5
f 178/3/5 172/3/5 177/3/5
f 179/2/5 173/2/5 159/2/5
f 180/1/5 177/1/5 173/1/5
f 180/2/5 173/2/5 179/2/5
f 180/1/5 178/1/5 177/1/5
f 181/2/5 168/2/5 167/2/5
f 181/1/5 178/1/5 180/1/5
f 181/1/5 167/1/5 178/1/5
f 182/2/5 168/2/5 181/2/5
f 183/2/6 184/2/6 189/2/6
f 184/1/6 185/1/6 189/1/6
f 189/1/6 185/1/6 190/1/6
f 190/1/6 185/1/6 191/1/6
f 185/3/6 186/3/6 192/3/6
f 191/1/6 185/1/6 192/1/6
f 191/3/6 192/3/6 193/3/6
f 192/3/6 186/3/6 193/3/6
f 193/3/6 186/3/6 194/3/6
f 186/1/6 187/1/6 195/1/6
f 194/3/6 186/3/6 195/3/6
f 195/1/6 187/1/6 196/1/6
f 183/2/6 189/2/6 197/2/6
f 189/3/6 190/3/6 197/3/6
f 190/1/6 191/1/6 198/1/6
f 197/3/6 190/3/6 198/3/6
f 191/3/6 193/3/6 199/3/6
f 198/1/6 191/1/6 199/1/6
f 193/1/6 194/1/6 200/1/6
f 199/3/6 193/3/6 200/3/6
f 198/1/6 199/1/6 201/1/6
f 200/1/6 194/1/6 201/1/6
f 199/1/6 200/1/6 201/1/6
f 194/3/6 195/3/6 201/3/6
f 197/1/6 198/1/6 201/1/6
f 195/3/6 196/3/6 201/3/6
f 196/1/6 187/1/6 202/1/6
f 201/3/6 196/3/6 202/3/6
f 197/1/6 201/1/6 203/1/6
f 201/1/6 202/1/6 203/1/6
f 203/1/6 202/1/6 204/1/6
f 204/1/6 202/1/6 205/1/6
f 205/1/6 202/1/6 206/1/6
f 206/1/6 202/1/6 207/1/6
f 202/1/6 187/1/6 208/1/6
f 207/1/6 202/1/6 208/1/6
f 183/2/6 197/2/6 209/2/6
f 197/1/6 203/1/6 210/1/6
f 209/2/6 197/2/6 210/2/6
f 203/3/6 204/3/6 211/3/6
f 210/1/6 203/1/6 211/1/6
f 204/1/6 205/1/6 212/1/6
f 211/3/6 204/3/6 212/3/6
f 205/3/6 206/3/6 213/3/6
f 212/1/6 205/1/6 213/1/6
f 206/1/6 207/1/6 214/1/6
f 213/3/6 206/3/6 214/3/6
f 207/3/6 208/3/6 215/3/6
f 214/1/6 207/1/6 215/1/6
f 208/1/6 187/1/6 216/1/6
f 215/3/6 208/3/6 216/3/6
f 187/2/6 188/2/6 217/2/6
f 216/1/6 187/1/6 217/1/6
f 217/2/6 188/2/6 218/2/6
