# MagicaVoxel @ Ephtracy

# group
o 

# material
mtllib Car1.mtl
usemtl palette

# normals
vn -1 0 0
vn 1 0 0
vn 0 0 1
vn 0 0 -1
vn 0 -1 0
vn 0 1 0

# texcoords
vt 0.205078 0.5
vt 0.208984 0.5
vt 0.912109 0.5
vt 0.916016 0.5
vt 0.974609 0.5
vt 0.994141 0.5

# verts
v 0 0.9 -1
v 0 0.9 -1.2
v 0 1 -1
v 0 1 -1.2
v 0.1 0.5 -0.2
v 0.1 0.5 -0.5
v 0.1 0.5 -1.4
v 0.1 0.5 -1.7
v 0.1 0.6 -0.1
v 0.1 0.6 -0.2
v 0.1 0.6 -0.3
v 0.1 0.6 -0.4
v 0.1 0.6 -0.5
v 0.1 0.6 -1.4
v 0.1 0.6 -1.5
v 0.1 0.6 -1.6
v 0.1 0.6 -1.7
v 0.1 0.6 -1.9
v 0.1 0.7 -0.1
v 0.1 0.7 -0.2
v 0.1 0.7 -0.3
v 0.1 0.7 -0.4
v 0.1 0.7 -0.5
v 0.1 0.7 -1.4
v 0.1 0.7 -1.5
v 0.1 0.7 -1.6
v 0.1 0.7 -1.7
v 0.1 0.7 -1.9
v 0.1 0.8 -0.1
v 0.1 0.8 -0.2
v 0.1 0.8 -0.5
v 0.1 0.8 -1.4
v 0.1 0.8 -1.7
v 0.1 0.8 -1.9
v 0.1 0.9 -1
v 0.1 0.9 -1.2
v 0.1 1 -0.1
v 0.1 1 -1
v 0.1 1 -1.2
v 0.1 1 -1.9
v 0.2 1 -0.2
v 0.2 1 -0.3
v 0.2 1 -0.6
v 0.2 1 -0.7
v 0.2 1 -1.1
v 0.2 1 -1.2
v 0.2 1.2 -0.3
v 0.2 1.2 -0.6
v 0.2 1.2 -0.7
v 0.2 1.2 -1.1
v 0.2 1.2 -1.2
v 0.2 1.3 -0.2
v 0.2 1.3 -0.3
v 0.2 1.3 -1.2
v 0.8 0.5 -0.2
v 0.8 0.5 -0.5
v 0.8 0.5 -1.4
v 0.8 0.5 -1.7
v 0.8 0.6 -0.2
v 0.8 0.6 -0.5
v 0.8 0.6 -1.4
v 0.8 0.6 -1.7
v 0.2 0.5 -0.2
v 0.2 0.5 -0.5
v 0.2 0.5 -1.4
v 0.2 0.5 -1.7
v 0.2 0.6 -0.2
v 0.2 0.6 -0.5
v 0.2 0.6 -1.4
v 0.2 0.6 -1.7
v 0.8 1 -0.2
v 0.8 1 -0.3
v 0.8 1 -0.6
v 0.8 1 -0.7
v 0.8 1 -1.1
v 0.8 1 -1.2
v 0.8 1.2 -0.3
v 0.8 1.2 -0.6
v 0.8 1.2 -0.7
v 0.8 1.2 -1.1
v 0.8 1.2 -1.2
v 0.8 1.3 -0.2
v 0.8 1.3 -0.3
v 0.8 1.3 -1.2
v 0.9 0.5 -0.2
v 0.9 0.5 -0.5
v 0.9 0.5 -1.4
v 0.9 0.5 -1.7
v 0.9 0.6 -0.1
v 0.9 0.6 -0.2
v 0.9 0.6 -0.3
v 0.9 0.6 -0.4
v 0.9 0.6 -0.5
v 0.9 0.6 -1.4
v 0.9 0.6 -1.5
v 0.9 0.6 -1.6
v 0.9 0.6 -1.7
v 0.9 0.6 -1.9
v 0.9 0.7 -0.1
v 0.9 0.7 -0.2
v 0.9 0.7 -0.3
v 0.9 0.7 -0.4
v 0.9 0.7 -0.5
v 0.9 0.7 -1.4
v 0.9 0.7 -1.5
v 0.9 0.7 -1.6
v 0.9 0.7 -1.7
v 0.9 0.7 -1.9
v 0.9 0.8 -0.1
v 0.9 0.8 -0.2
v 0.9 0.8 -0.5
v 0.9 0.8 -1.4
v 0.9 0.8 -1.7
v 0.9 0.8 -1.9
v 0.9 0.9 -1
v 0.9 0.9 -1.2
v 0.9 1 -0.1
v 0.9 1 -1
v 0.9 1 -1.2
v 0.9 1 -1.9
v 1 0.9 -1
v 1 0.9 -1.2
v 1 1 -1
v 1 1 -1.2
v 0.1 0.6 -0.1
v 0.1 0.7 -0.1
v 0.1 0.8 -0.1
v 0.1 1 -0.1
v 0.4 0.8 -0.1
v 0.4 1 -0.1
v 0.6 0.8 -0.1
v 0.6 1 -0.1
v 0.9 0.6 -0.1
v 0.9 0.7 -0.1
v 0.9 0.8 -0.1
v 0.9 1 -0.1
v 0.1 0.5 -0.2
v 0.1 0.6 -0.2
v 0.2 0.5 -0.2
v 0.2 0.6 -0.2
v 0.2 1 -0.2
v 0.2 1.3 -0.2
v 0.3 1 -0.2
v 0.3 1.2 -0.2
v 0.4 1 -0.2
v 0.6 1 -0.2
v 0.7 1 -0.2
v 0.7 1.2 -0.2
v 0.8 0.5 -0.2
v 0.8 0.6 -0.2
v 0.8 1 -0.2
v 0.8 1.3 -0.2
v 0.9 0.5 -0.2
v 0.9 0.6 -0.2
v 0 0.9 -1
v 0 1 -1
v 0.1 0.9 -1
v 0.1 1 -1
v 0.9 0.9 -1
v 0.9 1 -1
v 1 0.9 -1
v 1 1 -1
v 0.1 0.5 -1.4
v 0.1 0.6 -1.4
v 0.2 0.5 -1.4
v 0.2 0.6 -1.4
v 0.8 0.5 -1.4
v 0.8 0.6 -1.4
v 0.9 0.5 -1.4
v 0.9 0.6 -1.4
v 0.1 0.5 -0.5
v 0.1 0.6 -0.5
v 0.2 0.5 -0.5
v 0.2 0.6 -0.5
v 0.8 0.5 -0.5
v 0.8 0.6 -0.5
v 0.9 0.5 -0.5
v 0.9 0.6 -0.5
v 0 0.9 -1.2
v 0 1 -1.2
v 0.1 0.9 -1.2
v 0.1 1 -1.2
v 0.2 1 -1.2
v 0.2 1.2 -1.2
v 0.2 1.3 -1.2
v 0.3 1 -1.2
v 0.3 1.2 -1.2
v 0.4 1 -1.2
v 0.6 1 -1.2
v 0.7 1 -1.2
v 0.7 1.2 -1.2
v 0.8 1 -1.2
v 0.8 1.2 -1.2
v 0.8 1.3 -1.2
v 0.9 0.9 -1.2
v 0.9 1 -1.2
v 1 0.9 -1.2
v 1 1 -1.2
v 0.1 0.5 -1.7
v 0.1 0.6 -1.7
v 0.2 0.5 -1.7
v 0.2 0.6 -1.7
v 0.8 0.5 -1.7
v 0.8 0.6 -1.7
v 0.9 0.5 -1.7
v 0.9 0.6 -1.7
v 0.1 0.6 -1.9
v 0.1 0.7 -1.9
v 0.1 0.8 -1.9
v 0.1 1 -1.9
v 0.2 0.8 -1.9
v 0.2 0.9 -1.9
v 0.3 0.8 -1.9
v 0.3 0.9 -1.9
v 0.4 0.8 -1.9
v 0.4 1 -1.9
v 0.6 0.8 -1.9
v 0.6 1 -1.9
v 0.7 0.8 -1.9
v 0.7 0.9 -1.9
v 0.8 0.8 -1.9
v 0.8 0.9 -1.9
v 0.9 0.6 -1.9
v 0.9 0.7 -1.9
v 0.9 0.8 -1.9
v 0.9 1 -1.9
v 0.1 0.5 -0.2
v 0.2 0.5 -0.2
v 0.8 0.5 -0.2
v 0.9 0.5 -0.2
v 0.1 0.5 -0.5
v 0.2 0.5 -0.5
v 0.8 0.5 -0.5
v 0.9 0.5 -0.5
v 0.1 0.5 -1.4
v 0.2 0.5 -1.4
v 0.8 0.5 -1.4
v 0.9 0.5 -1.4
v 0.1 0.5 -1.7
v 0.2 0.5 -1.7
v 0.8 0.5 -1.7
v 0.9 0.5 -1.7
v 0.1 0.6 -0.1
v 0.9 0.6 -0.1
v 0.1 0.6 -0.2
v 0.2 0.6 -0.2
v 0.8 0.6 -0.2
v 0.9 0.6 -0.2
v 0.1 0.6 -0.5
v 0.2 0.6 -0.5
v 0.8 0.6 -0.5
v 0.9 0.6 -0.5
v 0.1 0.6 -1.4
v 0.2 0.6 -1.4
v 0.8 0.6 -1.4
v 0.9 0.6 -1.4
v 0.1 0.6 -1.7
v 0.2 0.6 -1.7
v 0.8 0.6 -1.7
v 0.9 0.6 -1.7
v 0.1 0.6 -1.9
v 0.9 0.6 -1.9
v 0 0.9 -1
v 0.1 0.9 -1
v 0.9 0.9 -1
v 1 0.9 -1
v 0 0.9 -1.2
v 0.1 0.9 -1.2
v 0.9 0.9 -1.2
v 1 0.9 -1.2
v 0.1 1 -0.1
v 0.4 1 -0.1
v 0.6 1 -0.1
v 0.9 1 -0.1
v 0.2 1 -0.2
v 0.3 1 -0.2
v 0.4 1 -0.2
v 0.6 1 -0.2
v 0.7 1 -0.2
v 0.8 1 -0.2
v 0.2 1 -0.3
v 0.8 1 -0.3
v 0.2 1 -0.6
v 0.8 1 -0.6
v 0.2 1 -0.7
v 0.8 1 -0.7
v 0 1 -1
v 0.1 1 -1
v 0.9 1 -1
v 1 1 -1
v 0.2 1 -1.1
v 0.8 1 -1.1
v 0 1 -1.2
v 0.1 1 -1.2
v 0.2 1 -1.2
v 0.3 1 -1.2
v 0.4 1 -1.2
v 0.6 1 -1.2
v 0.7 1 -1.2
v 0.8 1 -1.2
v 0.9 1 -1.2
v 1 1 -1.2
v 0.1 1 -1.9
v 0.4 1 -1.9
v 0.6 1 -1.9
v 0.9 1 -1.9
v 0.2 1.3 -0.2
v 0.8 1.3 -0.2
v 0.2 1.3 -0.3
v 0.8 1.3 -0.3
v 0.2 1.3 -1.2
v 0.8 1.3 -1.2

# faces
f 3/2/1 2/2/1 1/2/1
f 4/2/1 2/2/1 3/2/1
f 10/6/1 6/6/1 5/6/1
f 11/6/1 6/6/1 10/6/1
f 12/6/1 6/6/1 11/6/1
f 13/6/1 6/6/1 12/6/1
f 14/6/1 8/6/1 7/6/1
f 15/6/1 8/6/1 14/6/1
f 16/6/1 8/6/1 15/6/1
f 17/6/1 8/6/1 16/6/1
f 19/5/1 10/5/1 9/5/1
f 20/6/1 11/6/1 10/6/1
f 20/5/1 10/5/1 19/5/1
f 21/4/1 12/4/1 11/4/1
f 21/6/1 11/6/1 20/6/1
f 22/6/1 13/6/1 12/6/1
f 22/4/1 12/4/1 21/4/1
f 23/5/1 14/5/1 13/5/1
f 23/6/1 13/6/1 22/6/1
f 24/6/1 15/6/1 14/6/1
f 24/5/1 14/5/1 23/5/1
f 25/4/1 16/4/1 15/4/1
f 25/6/1 15/6/1 24/6/1
f 26/6/1 17/6/1 16/6/1
f 26/4/1 16/4/1 25/4/1
f 27/5/1 18/5/1 17/5/1
f 27/6/1 17/6/1 26/6/1
f 28/5/1 18/5/1 27/5/1
f 29/2/1 20/2/1 19/2/1
f 30/6/1 21/6/1 20/6/1
f 30/2/1 20/2/1 29/2/1
f 30/6/1 22/6/1 21/6/1
f 30/6/1 23/6/1 22/6/1
f 31/2/1 24/2/1 23/2/1
f 31/6/1 23/6/1 30/6/1
f 32/6/1 26/6/1 25/6/1
f 32/2/1 24/2/1 31/2/1
f 32/6/1 27/6/1 26/6/1
f 32/6/1 25/6/1 24/6/1
f 33/2/1 28/2/1 27/2/1
f 33/6/1 27/6/1 32/6/1
f 34/2/1 28/2/1 33/2/1
f 35/1/1 31/1/1 30/1/1
f 35/1/1 32/1/1 31/1/1
f 35/1/1 34/1/1 33/1/1
f 35/1/1 33/1/1 32/1/1
f 35/1/1 30/1/1 29/1/1
f 36/1/1 34/1/1 35/1/1
f 37/1/1 35/1/1 29/1/1
f 38/1/1 35/1/1 37/1/1
f 39/1/1 34/1/1 36/1/1
f 40/1/1 34/1/1 39/1/1
f 47/3/1 42/3/1 41/3/1
f 47/6/1 43/6/1 42/6/1
f 48/3/1 44/3/1 43/3/1
f 48/6/1 43/6/1 47/6/1
f 49/6/1 45/6/1 44/6/1
f 49/3/1 44/3/1 48/3/1
f 50/3/1 46/3/1 45/3/1
f 50/6/1 45/6/1 49/6/1
f 51/3/1 46/3/1 50/3/1
f 52/3/1 47/3/1 41/3/1
f 53/4/1 49/4/1 48/4/1
f 53/3/1 47/3/1 52/3/1
f 53/4/1 48/4/1 47/4/1
f 53/4/1 51/4/1 50/4/1
f 53/4/1 50/4/1 49/4/1
f 54/4/1 51/4/1 53/4/1
f 59/6/1 56/6/1 55/6/1
f 60/6/1 56/6/1 59/6/1
f 61/6/1 58/6/1 57/6/1
f 62/6/1 58/6/1 61/6/1
f 63/6/2 64/6/2 67/6/2
f 67/6/2 64/6/2 68/6/2
f 65/6/2 66/6/2 69/6/2
f 69/6/2 66/6/2 70/6/2
f 71/3/2 72/3/2 77/3/2
f 72/6/2 73/6/2 77/6/2
f 73/3/2 74/3/2 78/3/2
f 77/6/2 73/6/2 78/6/2
f 74/6/2 75/6/2 79/6/2
f 78/3/2 74/3/2 79/3/2
f 75/3/2 76/3/2 80/3/2
f 79/6/2 75/6/2 80/6/2
f 80/3/2 76/3/2 81/3/2
f 71/3/2 77/3/2 82/3/2
f 78/4/2 79/4/2 83/4/2
f 82/3/2 77/3/2 83/3/2
f 77/4/2 78/4/2 83/4/2
f 80/4/2 81/4/2 83/4/2
f 79/4/2 80/4/2 83/4/2
f 83/4/2 81/4/2 84/4/2
f 85/6/2 86/6/2 90/6/2
f 90/6/2 86/6/2 91/6/2
f 91/6/2 86/6/2 92/6/2
f 92/6/2 86/6/2 93/6/2
f 87/6/2 88/6/2 94/6/2
f 94/6/2 88/6/2 95/6/2
f 95/6/2 88/6/2 96/6/2
f 96/6/2 88/6/2 97/6/2
f 89/5/2 90/5/2 99/5/2
f 90/6/2 91/6/2 100/6/2
f 99/5/2 90/5/2 100/5/2
f 91/4/2 92/4/2 101/4/2
f 100/6/2 91/6/2 101/6/2
f 92/6/2 93/6/2 102/6/2
f 101/4/2 92/4/2 102/4/2
f 93/5/2 94/5/2 103/5/2
f 102/6/2 93/6/2 103/6/2
f 94/6/2 95/6/2 104/6/2
f 103/5/2 94/5/2 104/5/2
f 95/4/2 96/4/2 105/4/2
f 104/6/2 95/6/2 105/6/2
f 96/6/2 97/6/2 106/6/2
f 105/4/2 96/4/2 106/4/2
f 97/5/2 98/5/2 107/5/2
f 106/6/2 97/6/2 107/6/2
f 107/5/2 98/5/2 108/5/2
f 99/2/2 100/2/2 109/2/2
f 100/6/2 101/6/2 110/6/2
f 109/2/2 100/2/2 110/2/2
f 101/6/2 102/6/2 110/6/2
f 102/6/2 103/6/2 110/6/2
f 103/2/2 104/2/2 111/2/2
f 110/6/2 103/6/2 111/6/2
f 105/6/2 106/6/2 112/6/2
f 111/2/2 104/2/2 112/2/2
f 106/6/2 107/6/2 112/6/2
f 104/6/2 105/6/2 112/6/2
f 107/2/2 108/2/2 113/2/2
f 112/6/2 107/6/2 113/6/2
f 113/2/2 108/2/2 114/2/2
f 110/1/2 111/1/2 115/1/2
f 111/1/2 112/1/2 115/1/2
f 113/1/2 114/1/2 115/1/2
f 112/1/2 113/1/2 115/1/2
f 109/1/2 110/1/2 115/1/2
f 115/1/2 114/1/2 116/1/2
f 109/1/2 115/1/2 117/1/2
f 117/1/2 115/1/2 118/1/2
f 116/1/2 114/1/2 119/1/2
f 119/1/2 114/1/2 120/1/2
f 121/2/2 122/2/2 123/2/2
f 123/2/2 122/2/2 124/2/2
f 129/2/3 127/2/3 126/2/3
f 129/1/3 128/1/3 127/1/3
f 130/1/3 128/1/3 129/1/3
f 131/2/3 129/2/3 126/2/3
f 131/2/3 130/2/3 129/2/3
f 132/2/3 130/2/3 131/2/3
f 133/5/3 126/5/3 125/5/3
f 134/2/3 131/2/3 126/2/3
f 134/5/3 126/5/3 133/5/3
f 135/1/3 132/1/3 131/1/3
f 135/2/3 131/2/3 134/2/3
f 136/1/3 132/1/3 135/1/3
f 139/6/3 138/6/3 137/6/3
f 140/6/3 138/6/3 139/6/3
f 143/3/3 142/3/3 141/3/3
f 144/3/3 142/3/3 143/3/3
f 145/6/3 144/6/3 143/6/3
f 146/6/3 144/6/3 145/6/3
f 147/6/3 144/6/3 146/6/3
f 148/3/3 142/3/3 144/3/3
f 148/6/3 144/6/3 147/6/3
f 151/3/3 148/3/3 147/3/3
f 152/3/3 142/3/3 148/3/3
f 152/3/3 148/3/3 151/3/3
f 153/6/3 150/6/3 149/6/3
f 154/6/3 150/6/3 153/6/3
f 157/2/3 156/2/3 155/2/3
f 158/2/3 156/2/3 157/2/3
f 161/2/3 160/2/3 159/2/3
f 162/2/3 160/2/3 161/2/3
f 165/6/3 164/6/3 163/6/3
f 166/6/3 164/6/3 165/6/3
f 169/6/3 168/6/3 167/6/3
f 170/6/3 168/6/3 169/6/3
f 171/6/4 172/6/4 173/6/4
f 173/6/4 172/6/4 174/6/4
f 175/6/4 176/6/4 177/6/4
f 177/6/4 176/6/4 178/6/4
f 179/2/4 180/2/4 181/2/4
f 181/2/4 180/2/4 182/2/4
f 183/3/4 184/3/4 186/3/4
f 184/4/4 185/4/4 187/4/4
f 186/3/4 184/3/4 187/3/4
f 186/6/4 187/6/4 188/6/4
f 188/6/4 187/6/4 189/6/4
f 189/6/4 187/6/4 190/6/4
f 187/4/4 185/4/4 191/4/4
f 190/6/4 187/6/4 191/6/4
f 190/3/4 191/3/4 192/3/4
f 191/4/4 185/4/4 193/4/4
f 192/3/4 191/3/4 193/3/4
f 193/4/4 185/4/4 194/4/4
f 195/2/4 196/2/4 197/2/4
f 197/2/4 196/2/4 198/2/4
f 199/6/4 200/6/4 201/6/4
f 201/6/4 200/6/4 202/6/4
f 203/6/4 204/6/4 205/6/4
f 205/6/4 204/6/4 206/6/4
f 208/2/4 209/2/4 211/2/4
f 209/1/4 210/1/4 211/1/4
f 211/1/4 210/1/4 212/1/4
f 208/2/4 211/2/4 213/2/4
f 211/3/4 212/3/4 213/3/4
f 212/1/4 210/1/4 214/1/4
f 213/3/4 212/3/4 214/3/4
f 208/2/4 213/2/4 215/2/4
f 213/1/4 214/1/4 215/1/4
f 214/1/4 210/1/4 216/1/4
f 215/1/4 214/1/4 216/1/4
f 208/2/4 215/2/4 217/2/4
f 215/2/4 216/2/4 217/2/4
f 217/2/4 216/2/4 218/2/4
f 208/2/4 217/2/4 219/2/4
f 217/1/4 218/1/4 219/1/4
f 219/1/4 218/1/4 220/1/4
f 208/2/4 219/2/4 221/2/4
f 219/3/4 220/3/4 221/3/4
f 220/1/4 218/1/4 222/1/4
f 221/3/4 220/3/4 222/3/4
f 207/5/4 208/5/4 223/5/4
f 208/2/4 221/2/4 224/2/4
f 223/5/4 208/5/4 224/5/4
f 221/1/4 222/1/4 225/1/4
f 224/2/4 221/2/4 225/2/4
f 222/1/4 218/1/4 226/1/4
f 225/1/4 222/1/4 226/1/4
f 231/6/5 228/6/5 227/6/5
f 232/6/5 228/6/5 231/6/5
f 233/6/5 230/6/5 229/6/5
f 234/6/5 230/6/5 233/6/5
f 239/6/5 236/6/5 235/6/5
f 240/6/5 236/6/5 239/6/5
f 241/6/5 238/6/5 237/6/5
f 242/6/5 238/6/5 241/6/5
f 245/5/5 244/5/5 243/5/5
f 246/5/5 244/5/5 245/5/5
f 247/5/5 244/5/5 246/5/5
f 248/5/5 244/5/5 247/5/5
f 250/5/5 247/5/5 246/5/5
f 251/5/5 247/5/5 250/5/5
f 253/5/5 250/5/5 249/5/5
f 253/5/5 252/5/5 251/5/5
f 253/5/5 251/5/5 250/5/5
f 254/5/5 252/5/5 253/5/5
f 255/5/5 252/5/5 254/5/5
f 256/5/5 252/5/5 255/5/5
f 258/5/5 255/5/5 254/5/5
f 259/5/5 255/5/5 258/5/5
f 261/5/5 258/5/5 257/5/5
f 261/5/5 260/5/5 259/5/5
f 261/5/5 259/5/5 258/5/5
f 262/5/5 260/5/5 261/5/5
f 267/2/5 264/2/5 263/2/5
f 268/2/5 264/2/5 267/2/5
f 269/2/5 266/2/5 265/2/5
f 270/2/5 266/2/5 269/2/5
f 271/1/6 272/1/6 275/1/6
f 275/1/6 272/1/6 276/1/6
f 272/2/6 273/2/6 277/2/6
f 276/1/6 272/1/6 277/1/6
f 273/1/6 274/1/6 278/1/6
f 277/2/6 273/2/6 278/2/6
f 278/1/6 274/1/6 279/1/6
f 279/1/6 274/1/6 280/1/6
f 271/1/6 275/1/6 281/1/6
f 280/1/6 274/1/6 282/1/6
f 271/1/6 281/1/6 283/1/6
f 282/1/6 274/1/6 284/1/6
f 271/1/6 283/1/6 285/1/6
f 284/1/6 274/1/6 286/1/6
f 271/1/6 285/1/6 288/1/6
f 286/1/6 274/1/6 289/1/6
f 288/1/6 285/1/6 291/1/6
f 286/1/6 289/1/6 292/1/6
f 287/2/6 288/2/6 293/2/6
f 288/1/6 291/1/6 294/1/6
f 293/2/6 288/2/6 294/2/6
f 294/1/6 291/1/6 295/1/6
f 292/1/6 289/1/6 300/1/6
f 289/2/6 290/2/6 301/2/6
f 300/1/6 289/1/6 301/1/6
f 301/2/6 290/2/6 302/2/6
f 294/1/6 295/1/6 303/1/6
f 295/1/6 296/1/6 303/1/6
f 296/1/6 297/1/6 303/1/6
f 297/2/6 298/2/6 304/2/6
f 303/1/6 297/1/6 304/1/6
f 298/1/6 299/1/6 305/1/6
f 304/2/6 298/2/6 305/2/6
f 299/1/6 300/1/6 305/1/6
f 300/1/6 301/1/6 305/1/6
f 305/1/6 301/1/6 306/1/6
f 307/3/6 308/3/6 309/3/6
f 309/3/6 308/3/6 310/3/6
f 309/4/6 310/4/6 311/4/6
f 311/4/6 310/4/6 312/4/6
