# MagicaVoxel @ Ephtracy

# group
o 

# material
mtllib Car4.mtl
usemtl palette

# normals
vn -1 0 0
vn 1 0 0
vn 0 0 1
vn 0 0 -1
vn 0 -1 0
vn 0 1 0

# texcoords
vt 0.0566406 0.5
vt 0.146484 0.5
vt 0.912109 0.5
vt 0.916016 0.5
vt 0.962891 0.5
vt 0.974609 0.5
vt 0.994141 0.5

# verts
v 0 0.8 -2.5
v 0 0.8 -2.6
v 0 1 -2.5
v 0 1 -2.6
v 0.1 0.5 -0.3
v 0.1 0.5 -0.6
v 0.1 0.5 -1.5
v 0.1 0.5 -1.8
v 0.1 0.5 -2.2
v 0.1 0.5 -2.5
v 0.1 0.6 -0.2
v 0.1 0.6 -0.3
v 0.1 0.6 -0.4
v 0.1 0.6 -0.5
v 0.1 0.6 -0.6
v 0.1 0.6 -1.5
v 0.1 0.6 -1.6
v 0.1 0.6 -1.7
v 0.1 0.6 -1.8
v 0.1 0.6 -2
v 0.1 0.6 -2.1
v 0.1 0.6 -2.2
v 0.1 0.6 -2.3
v 0.1 0.6 -2.4
v 0.1 0.6 -2.5
v 0.1 0.6 -2.7
v 0.1 0.7 -0.1
v 0.1 0.7 -0.2
v 0.1 0.7 -0.3
v 0.1 0.7 -0.4
v 0.1 0.7 -0.5
v 0.1 0.7 -0.6
v 0.1 0.7 -1.5
v 0.1 0.7 -1.6
v 0.1 0.7 -1.7
v 0.1 0.7 -1.8
v 0.1 0.7 -2
v 0.1 0.7 -2.1
v 0.1 0.7 -2.2
v 0.1 0.7 -2.3
v 0.1 0.7 -2.4
v 0.1 0.7 -2.5
v 0.1 0.7 -2.7
v 0.1 0.8 -0.2
v 0.1 0.8 -1.9
v 0.1 0.8 -2.1
v 0.1 0.8 -2.2
v 0.1 0.8 -2.5
v 0.1 0.8 -2.6
v 0.1 0.8 -2.7
v 0.1 1 -2.4
v 0.1 1 -2.5
v 0.1 1 -2.6
v 0.1 1 -2.7
v 0.1 1.2 -2.4
v 0.1 1.2 -2.7
v 0.1 1.3 -2.1
v 0.1 1.3 -2.7
v 0.1 1.4 -0.2
v 0.1 1.4 -1.9
v 0.1 1.5 -0.1
v 0.1 1.5 -2
v 0.2 0.6 -2
v 0.2 0.6 -2.1
v 0.2 0.7 -2
v 0.2 0.7 -2.1
v 0.2 1.3 -2.1
v 0.2 1.3 -2.4
v 0.2 1.4 -2.3
v 0.2 1.4 -2.4
v 0.2 1.5 -2.1
v 0.2 1.5 -2.3
v 0.8 0.5 -0.3
v 0.8 0.5 -0.6
v 0.8 0.5 -1.5
v 0.8 0.5 -1.8
v 0.8 0.5 -2.2
v 0.8 0.5 -2.5
v 0.8 0.6 -0.3
v 0.8 0.6 -0.6
v 0.8 0.6 -1.5
v 0.8 0.6 -1.8
v 0.8 0.6 -2.2
v 0.8 0.6 -2.5
v 0.2 0.5 -0.3
v 0.2 0.5 -0.6
v 0.2 0.5 -1.5
v 0.2 0.5 -1.8
v 0.2 0.5 -2.2
v 0.2 0.5 -2.5
v 0.2 0.6 -0.3
v 0.2 0.6 -0.6
v 0.2 0.6 -1.5
v 0.2 0.6 -1.8
v 0.2 0.6 -2.2
v 0.2 0.6 -2.5
v 0.8 0.6 -2
v 0.8 0.6 -2.1
v 0.8 0.7 -2
v 0.8 0.7 -2.1
v 0.8 1.3 -2.1
v 0.8 1.3 -2.4
v 0.8 1.4 -2.3
v 0.8 1.4 -2.4
v 0.8 1.5 -2.1
v 0.8 1.5 -2.3
v 0.9 0.5 -0.3
v 0.9 0.5 -0.6
v 0.9 0.5 -1.5
v 0.9 0.5 -1.8
v 0.9 0.5 -2.2
v 0.9 0.5 -2.5
v 0.9 0.6 -0.2
v 0.9 0.6 -0.3
v 0.9 0.6 -0.4
v 0.9 0.6 -0.5
v 0.9 0.6 -0.6
v 0.9 0.6 -1.5
v 0.9 0.6 -1.6
v 0.9 0.6 -1.7
v 0.9 0.6 -1.8
v 0.9 0.6 -2
v 0.9 0.6 -2.1
v 0.9 0.6 -2.2
v 0.9 0.6 -2.3
v 0.9 0.6 -2.4
v 0.9 0.6 -2.5
v 0.9 0.6 -2.7
v 0.9 0.7 -0.1
v 0.9 0.7 -0.2
v 0.9 0.7 -0.3
v 0.9 0.7 -0.4
v 0.9 0.7 -0.5
v 0.9 0.7 -0.6
v 0.9 0.7 -1.5
v 0.9 0.7 -1.6
v 0.9 0.7 -1.7
v 0.9 0.7 -1.8
v 0.9 0.7 -2
v 0.9 0.7 -2.1
v 0.9 0.7 -2.2
v 0.9 0.7 -2.3
v 0.9 0.7 -2.4
v 0.9 0.7 -2.5
v 0.9 0.7 -2.7
v 0.9 0.8 -0.2
v 0.9 0.8 -1.9
v 0.9 0.8 -2.1
v 0.9 0.8 -2.2
v 0.9 0.8 -2.5
v 0.9 0.8 -2.6
v 0.9 0.8 -2.7
v 0.9 1 -2.4
v 0.9 1 -2.5
v 0.9 1 -2.6
v 0.9 1 -2.7
v 0.9 1.2 -2.4
v 0.9 1.2 -2.7
v 0.9 1.3 -2.1
v 0.9 1.3 -2.7
v 0.9 1.4 -0.2
v 0.9 1.4 -1.9
v 0.9 1.5 -0.1
v 0.9 1.5 -2
v 1 0.8 -2.5
v 1 0.8 -2.6
v 1 1 -2.5
v 1 1 -2.6
v 0.1 0.7 -0.1
v 0.1 1.5 -0.1
v 0.9 0.7 -0.1
v 0.9 1.5 -0.1
v 0.1 0.6 -0.2
v 0.1 0.7 -0.2
v 0.9 0.6 -0.2
v 0.9 0.7 -0.2
v 0.1 0.5 -0.3
v 0.1 0.6 -0.3
v 0.2 0.5 -0.3
v 0.2 0.6 -0.3
v 0.8 0.5 -0.3
v 0.8 0.6 -0.3
v 0.9 0.5 -0.3
v 0.9 0.6 -0.3
v 0.1 0.5 -1.5
v 0.1 0.6 -1.5
v 0.2 0.5 -1.5
v 0.2 0.6 -1.5
v 0.8 0.5 -1.5
v 0.8 0.6 -1.5
v 0.9 0.5 -1.5
v 0.9 0.6 -1.5
v 0.1 0.6 -2.1
v 0.1 0.7 -2.1
v 0.1 0.8 -2.1
v 0.1 1.3 -2.1
v 0.2 0.6 -2.1
v 0.2 0.7 -2.1
v 0.2 1.3 -2.1
v 0.2 1.5 -2.1
v 0.8 0.6 -2.1
v 0.8 0.7 -2.1
v 0.8 1.3 -2.1
v 0.8 1.5 -2.1
v 0.9 0.6 -2.1
v 0.9 0.7 -2.1
v 0.9 0.8 -2.1
v 0.9 1.3 -2.1
v 0.1 0.5 -2.2
v 0.1 0.6 -2.2
v 0.2 0.5 -2.2
v 0.2 0.6 -2.2
v 0.8 0.5 -2.2
v 0.8 0.6 -2.2
v 0.9 0.5 -2.2
v 0.9 0.6 -2.2
v 0 0.8 -2.5
v 0 1 -2.5
v 0.1 0.8 -2.5
v 0.1 1 -2.5
v 0.9 0.8 -2.5
v 0.9 1 -2.5
v 1 0.8 -2.5
v 1 1 -2.5
v 0.1 0.5 -0.6
v 0.1 0.6 -0.6
v 0.2 0.5 -0.6
v 0.2 0.6 -0.6
v 0.8 0.5 -0.6
v 0.8 0.6 -0.6
v 0.9 0.5 -0.6
v 0.9 0.6 -0.6
v 0.1 0.5 -1.8
v 0.1 0.6 -1.8
v 0.2 0.5 -1.8
v 0.2 0.6 -1.8
v 0.8 0.5 -1.8
v 0.8 0.6 -1.8
v 0.9 0.5 -1.8
v 0.9 0.6 -1.8
v 0.1 0.6 -2
v 0.1 0.7 -2
v 0.1 1.5 -2
v 0.2 0.6 -2
v 0.2 0.7 -2
v 0.8 0.6 -2
v 0.8 0.7 -2
v 0.9 0.6 -2
v 0.9 0.7 -2
v 0.9 1.5 -2
v 0.2 1.4 -2.3
v 0.2 1.5 -2.3
v 0.8 1.4 -2.3
v 0.8 1.5 -2.3
v 0.2 1.3 -2.4
v 0.2 1.4 -2.4
v 0.8 1.3 -2.4
v 0.8 1.4 -2.4
v 0.1 0.5 -2.5
v 0.1 0.6 -2.5
v 0.2 0.5 -2.5
v 0.2 0.6 -2.5
v 0.8 0.5 -2.5
v 0.8 0.6 -2.5
v 0.9 0.5 -2.5
v 0.9 0.6 -2.5
v 0 0.8 -2.6
v 0 1 -2.6
v 0.1 0.8 -2.6
v 0.1 1 -2.6
v 0.9 0.8 -2.6
v 0.9 1 -2.6
v 1 0.8 -2.6
v 1 1 -2.6
v 0.1 0.6 -2.7
v 0.1 0.7 -2.7
v 0.1 0.8 -2.7
v 0.1 1 -2.7
v 0.1 1.2 -2.7
v 0.1 1.3 -2.7
v 0.2 0.7 -2.7
v 0.2 0.8 -2.7
v 0.3 0.7 -2.7
v 0.3 0.8 -2.7
v 0.7 0.7 -2.7
v 0.7 0.8 -2.7
v 0.8 0.7 -2.7
v 0.8 0.8 -2.7
v 0.9 0.6 -2.7
v 0.9 0.7 -2.7
v 0.9 0.8 -2.7
v 0.9 1 -2.7
v 0.9 1.2 -2.7
v 0.9 1.3 -2.7
v 0.1 0.5 -0.3
v 0.2 0.5 -0.3
v 0.8 0.5 -0.3
v 0.9 0.5 -0.3
v 0.1 0.5 -0.6
v 0.2 0.5 -0.6
v 0.8 0.5 -0.6
v 0.9 0.5 -0.6
v 0.1 0.5 -1.5
v 0.2 0.5 -1.5
v 0.8 0.5 -1.5
v 0.9 0.5 -1.5
v 0.1 0.5 -1.8
v 0.2 0.5 -1.8
v 0.8 0.5 -1.8
v 0.9 0.5 -1.8
v 0.1 0.5 -2.2
v 0.2 0.5 -2.2
v 0.8 0.5 -2.2
v 0.9 0.5 -2.2
v 0.1 0.5 -2.5
v 0.2 0.5 -2.5
v 0.8 0.5 -2.5
v 0.9 0.5 -2.5
v 0.1 0.6 -0.2
v 0.9 0.6 -0.2
v 0.1 0.6 -0.3
v 0.2 0.6 -0.3
v 0.8 0.6 -0.3
v 0.9 0.6 -0.3
v 0.1 0.6 -0.6
v 0.2 0.6 -0.6
v 0.8 0.6 -0.6
v 0.9 0.6 -0.6
v 0.1 0.6 -1.5
v 0.2 0.6 -1.5
v 0.8 0.6 -1.5
v 0.9 0.6 -1.5
v 0.1 0.6 -1.8
v 0.2 0.6 -1.8
v 0.8 0.6 -1.8
v 0.9 0.6 -1.8
v 0.1 0.6 -2
v 0.2 0.6 -2
v 0.8 0.6 -2
v 0.9 0.6 -2
v 0.1 0.6 -2.1
v 0.2 0.6 -2.1
v 0.8 0.6 -2.1
v 0.9 0.6 -2.1
v 0.1 0.6 -2.2
v 0.2 0.6 -2.2
v 0.8 0.6 -2.2
v 0.9 0.6 -2.2
v 0.1 0.6 -2.5
v 0.2 0.6 -2.5
v 0.8 0.6 -2.5
v 0.9 0.6 -2.5
v 0.1 0.6 -2.7
v 0.9 0.6 -2.7
v 0.1 0.7 -0.1
v 0.9 0.7 -0.1
v 0.1 0.7 -0.2
v 0.9 0.7 -0.2
v 0 0.8 -2.5
v 0.1 0.8 -2.5
v 0.9 0.8 -2.5
v 1 0.8 -2.5
v 0 0.8 -2.6
v 0.1 0.8 -2.6
v 0.9 0.8 -2.6
v 1 0.8 -2.6
v 0.2 0.7 -2
v 0.8 0.7 -2
v 0.2 0.7 -2.1
v 0.8 0.7 -2.1
v 0 1 -2.5
v 0.1 1 -2.5
v 0.9 1 -2.5
v 1 1 -2.5
v 0 1 -2.6
v 0.1 1 -2.6
v 0.9 1 -2.6
v 1 1 -2.6
v 0.1 1.3 -2.1
v 0.2 1.3 -2.1
v 0.8 1.3 -2.1
v 0.9 1.3 -2.1
v 0.2 1.3 -2.4
v 0.8 1.3 -2.4
v 0.1 1.3 -2.7
v 0.9 1.3 -2.7
v 0.2 1.4 -2.3
v 0.8 1.4 -2.3
v 0.2 1.4 -2.4
v 0.8 1.4 -2.4
v 0.1 1.5 -0.1
v 0.9 1.5 -0.1
v 0.1 1.5 -2
v 0.9 1.5 -2
v 0.2 1.5 -2.1
v 0.8 1.5 -2.1
v 0.2 1.5 -2.3
v 0.8 1.5 -2.3

# faces
f 3/1/1 2/1/1 1/1/1
f 4/1/1 2/1/1 3/1/1
f 12/7/1 6/7/1 5/7/1
f 13/7/1 6/7/1 12/7/1
f 14/7/1 6/7/1 13/7/1
f 15/7/1 6/7/1 14/7/1
f 16/7/1 8/7/1 7/7/1
f 17/7/1 8/7/1 16/7/1
f 18/7/1 8/7/1 17/7/1
f 19/7/1 8/7/1 18/7/1
f 22/7/1 10/7/1 9/7/1
f 23/7/1 10/7/1 22/7/1
f 24/7/1 10/7/1 23/7/1
f 25/7/1 10/7/1 24/7/1
f 28/6/1 12/6/1 11/6/1
f 29/7/1 13/7/1 12/7/1
f 29/6/1 12/6/1 28/6/1
f 30/4/1 14/4/1 13/4/1
f 30/7/1 13/7/1 29/7/1
f 31/7/1 15/7/1 14/7/1
f 31/4/1 14/4/1 30/4/1
f 32/6/1 16/6/1 15/6/1
f 32/7/1 15/7/1 31/7/1
f 33/7/1 17/7/1 16/7/1
f 33/6/1 16/6/1 32/6/1
f 34/4/1 18/4/1 17/4/1
f 34/7/1 17/7/1 33/7/1
f 35/7/1 19/7/1 18/7/1
f 35/4/1 18/4/1 34/4/1
f 36/6/1 20/6/1 19/6/1
f 36/7/1 19/7/1 35/7/1
f 37/6/1 20/6/1 36/6/1
f 38/6/1 22/6/1 21/6/1
f 39/7/1 23/7/1 22/7/1
f 39/6/1 22/6/1 38/6/1
f 40/4/1 24/4/1 23/4/1
f 40/7/1 23/7/1 39/7/1
f 41/7/1 25/7/1 24/7/1
f 41/4/1 24/4/1 40/4/1
f 42/6/1 26/6/1 25/6/1
f 42/7/1 25/7/1 41/7/1
f 43/6/1 26/6/1 42/6/1
f 44/5/1 35/5/1 34/5/1
f 44/5/1 30/5/1 29/5/1
f 44/5/1 28/5/1 27/5/1
f 44/5/1 29/5/1 28/5/1
f 44/5/1 36/5/1 35/5/1
f 44/5/1 31/5/1 30/5/1
f 44/5/1 32/5/1 31/5/1
f 44/5/1 33/5/1 32/5/1
f 44/5/1 34/5/1 33/5/1
f 44/5/1 37/5/1 36/5/1
f 45/5/1 37/5/1 44/5/1
f 46/1/1 39/1/1 38/1/1
f 47/7/1 41/7/1 40/7/1
f 47/1/1 39/1/1 46/1/1
f 47/7/1 42/7/1 41/7/1
f 47/7/1 40/7/1 39/7/1
f 48/1/1 43/1/1 42/1/1
f 48/7/1 42/7/1 47/7/1
f 49/1/1 43/1/1 48/1/1
f 50/1/1 43/1/1 49/1/1
f 51/2/1 47/2/1 46/2/1
f 51/2/1 48/2/1 47/2/1
f 52/2/1 48/2/1 51/2/1
f 53/2/1 50/2/1 49/2/1
f 54/2/1 50/2/1 53/2/1
f 55/7/1 52/7/1 51/7/1
f 55/2/1 51/2/1 46/2/1
f 55/7/1 54/7/1 53/7/1
f 55/7/1 53/7/1 52/7/1
f 56/7/1 54/7/1 55/7/1
f 57/2/1 55/2/1 46/2/1
f 57/2/1 56/2/1 55/2/1
f 58/2/1 56/2/1 57/2/1
f 59/3/1 45/3/1 44/3/1
f 59/5/1 44/5/1 27/5/1
f 60/5/1 37/5/1 45/5/1
f 60/3/1 45/3/1 59/3/1
f 61/5/1 59/5/1 27/5/1
f 61/5/1 60/5/1 59/5/1
f 62/5/1 37/5/1 60/5/1
f 62/5/1 60/5/1 61/5/1
f 65/6/1 64/6/1 63/6/1
f 66/6/1 64/6/1 65/6/1
f 69/4/1 68/4/1 67/4/1
f 70/4/1 68/4/1 69/4/1
f 71/4/1 69/4/1 67/4/1
f 72/4/1 69/4/1 71/4/1
f 79/7/1 74/7/1 73/7/1
f 80/7/1 74/7/1 79/7/1
f 81/7/1 76/7/1 75/7/1
f 82/7/1 76/7/1 81/7/1
f 83/7/1 78/7/1 77/7/1
f 84/7/1 78/7/1 83/7/1
f 85/7/2 86/7/2 91/7/2
f 91/7/2 86/7/2 92/7/2
f 87/7/2 88/7/2 93/7/2
f 93/7/2 88/7/2 94/7/2
f 89/7/2 90/7/2 95/7/2
f 95/7/2 90/7/2 96/7/2
f 97/6/2 98/6/2 99/6/2
f 99/6/2 98/6/2 100/6/2
f 101/4/2 102/4/2 103/4/2
f 103/4/2 102/4/2 104/4/2
f 101/4/2 103/4/2 105/4/2
f 105/4/2 103/4/2 106/4/2
f 107/7/2 108/7/2 114/7/2
f 114/7/2 108/7/2 115/7/2
f 115/7/2 108/7/2 116/7/2
f 116/7/2 108/7/2 117/7/2
f 109/7/2 110/7/2 118/7/2
f 118/7/2 110/7/2 119/7/2
f 119/7/2 110/7/2 120/7/2
f 120/7/2 110/7/2 121/7/2
f 111/7/2 112/7/2 124/7/2
f 124/7/2 112/7/2 125/7/2
f 125/7/2 112/7/2 126/7/2
f 126/7/2 112/7/2 127/7/2
f 113/6/2 114/6/2 130/6/2
f 114/7/2 115/7/2 131/7/2
f 130/6/2 114/6/2 131/6/2
f 115/4/2 116/4/2 132/4/2
f 131/7/2 115/7/2 132/7/2
f 116/7/2 117/7/2 133/7/2
f 132/4/2 116/4/2 133/4/2
f 117/6/2 118/6/2 134/6/2
f 133/7/2 117/7/2 134/7/2
f 118/7/2 119/7/2 135/7/2
f 134/6/2 118/6/2 135/6/2
f 119/4/2 120/4/2 136/4/2
f 135/7/2 119/7/2 136/7/2
f 120/7/2 121/7/2 137/7/2
f 136/4/2 120/4/2 137/4/2
f 121/6/2 122/6/2 138/6/2
f 137/7/2 121/7/2 138/7/2
f 138/6/2 122/6/2 139/6/2
f 123/6/2 124/6/2 140/6/2
f 124/7/2 125/7/2 141/7/2
f 140/6/2 124/6/2 141/6/2
f 125/4/2 126/4/2 142/4/2
f 141/7/2 125/7/2 142/7/2
f 126/7/2 127/7/2 143/7/2
f 142/4/2 126/4/2 143/4/2
f 127/6/2 128/6/2 144/6/2
f 143/7/2 127/7/2 144/7/2
f 144/6/2 128/6/2 145/6/2
f 136/5/2 137/5/2 146/5/2
f 131/5/2 132/5/2 146/5/2
f 129/5/2 130/5/2 146/5/2
f 130/5/2 131/5/2 146/5/2
f 137/5/2 138/5/2 146/5/2
f 132/5/2 133/5/2 146/5/2
f 133/5/2 134/5/2 146/5/2
f 134/5/2 135/5/2 146/5/2
f 135/5/2 136/5/2 146/5/2
f 138/5/2 139/5/2 146/5/2
f 146/5/2 139/5/2 147/5/2
f 140/1/2 141/1/2 148/1/2
f 142/7/2 143/7/2 149/7/2
f 148/1/2 141/1/2 149/1/2
f 143/7/2 144/7/2 149/7/2
f 141/7/2 142/7/2 149/7/2
f 144/1/2 145/1/2 150/1/2
f 149/7/2 144/7/2 150/7/2
f 150/1/2 145/1/2 151/1/2
f 151/1/2 145/1/2 152/1/2
f 148/2/2 149/2/2 153/2/2
f 149/2/2 150/2/2 153/2/2
f 153/2/2 150/2/2 154/2/2
f 151/2/2 152/2/2 155/2/2
f 155/2/2 152/2/2 156/2/2
f 153/7/2 154/7/2 157/7/2
f 148/2/2 153/2/2 157/2/2
f 155/7/2 156/7/2 157/7/2
f 154/7/2 155/7/2 157/7/2
f 157/7/2 156/7/2 158/7/2
f 148/2/2 157/2/2 159/2/2
f 157/2/2 158/2/2 159/2/2
f 159/2/2 158/2/2 160/2/2
f 146/3/2 147/3/2 161/3/2
f 129/5/2 146/5/2 161/5/2
f 147/5/2 139/5/2 162/5/2
f 161/3/2 147/3/2 162/3/2
f 129/5/2 161/5/2 163/5/2
f 161/5/2 162/5/2 163/5/2
f 162/5/2 139/5/2 164/5/2
f 163/5/2 162/5/2 164/5/2
f 165/1/2 166/1/2 167/1/2
f 167/1/2 166/1/2 168/1/2
f 171/5/3 170/5/3 169/5/3
f 172/5/3 170/5/3 171/5/3
f 175/6/3 174/6/3 173/6/3
f 176/6/3 174/6/3 175/6/3
f 179/7/3 178/7/3 177/7/3
f 180/7/3 178/7/3 179/7/3
f 183/7/3 182/7/3 181/7/3
f 184/7/3 182/7/3 183/7/3
f 187/7/3 186/7/3 185/7/3
f 188/7/3 186/7/3 187/7/3
f 191/7/3 190/7/3 189/7/3
f 192/7/3 190/7/3 191/7/3
f 197/6/3 194/6/3 193/6/3
f 198/1/3 195/1/3 194/1/3
f 198/6/3 194/6/3 197/6/3
f 199/2/3 196/2/3 195/2/3
f 202/1/3 195/1/3 198/1/3
f 203/2/3 199/2/3 195/2/3
f 203/4/3 200/4/3 199/4/3
f 204/4/3 200/4/3 203/4/3
f 205/6/3 202/6/3 201/6/3
f 206/1/3 195/1/3 202/1/3
f 206/6/3 202/6/3 205/6/3
f 207/2/3 203/2/3 195/2/3
f 207/1/3 195/1/3 206/1/3
f 208/2/3 203/2/3 207/2/3
f 211/7/3 210/7/3 209/7/3
f 212/7/3 210/7/3 211/7/3
f 215/7/3 214/7/3 213/7/3
f 216/7/3 214/7/3 215/7/3
f 219/1/3 218/1/3 217/1/3
f 220/1/3 218/1/3 219/1/3
f 223/1/3 222/1/3 221/1/3
f 224/1/3 222/1/3 223/1/3
f 225/7/4 226/7/4 227/7/4
f 227/7/4 226/7/4 228/7/4
f 229/7/4 230/7/4 231/7/4
f 231/7/4 230/7/4 232/7/4
f 233/7/4 234/7/4 235/7/4
f 235/7/4 234/7/4 236/7/4
f 237/7/4 238/7/4 239/7/4
f 239/7/4 238/7/4 240/7/4
f 241/6/4 242/6/4 244/6/4
f 242/5/4 243/5/4 245/5/4
f 244/6/4 242/6/4 245/6/4
f 245/5/4 243/5/4 247/5/4
f 246/6/4 247/6/4 248/6/4
f 247/5/4 243/5/4 249/5/4
f 248/6/4 247/6/4 249/6/4
f 249/5/4 243/5/4 250/5/4
f 251/4/4 252/4/4 253/4/4
f 253/4/4 252/4/4 254/4/4
f 255/4/4 256/4/4 257/4/4
f 257/4/4 256/4/4 258/4/4
f 259/7/4 260/7/4 261/7/4
f 261/7/4 260/7/4 262/7/4
f 263/7/4 264/7/4 265/7/4
f 265/7/4 264/7/4 266/7/4
f 267/1/4 268/1/4 269/1/4
f 269/1/4 268/1/4 270/1/4
f 271/1/4 272/1/4 273/1/4
f 273/1/4 272/1/4 274/1/4
f 275/6/4 276/6/4 281/6/4
f 276/1/4 277/1/4 281/1/4
f 277/2/4 278/2/4 282/2/4
f 281/1/4 277/1/4 282/1/4
f 275/6/4 281/6/4 283/6/4
f 281/3/4 282/3/4 283/3/4
f 282/2/4 278/2/4 284/2/4
f 283/3/4 282/3/4 284/3/4
f 275/6/4 283/6/4 285/6/4
f 283/1/4 284/1/4 285/1/4
f 284/2/4 278/2/4 286/2/4
f 285/1/4 284/1/4 286/1/4
f 275/6/4 285/6/4 287/6/4
f 285/3/4 286/3/4 287/3/4
f 286/2/4 278/2/4 288/2/4
f 287/3/4 286/3/4 288/3/4
f 275/6/4 287/6/4 289/6/4
f 287/1/4 288/1/4 290/1/4
f 289/6/4 287/6/4 290/6/4
f 288/2/4 278/2/4 291/2/4
f 290/1/4 288/1/4 291/1/4
f 278/7/4 279/7/4 292/7/4
f 291/2/4 278/2/4 292/2/4
f 279/2/4 280/2/4 293/2/4
f 292/7/4 279/7/4 293/7/4
f 293/2/4 280/2/4 294/2/4
f 299/7/5 296/7/5 295/7/5
f 300/7/5 296/7/5 299/7/5
f 301/7/5 298/7/5 297/7/5
f 302/7/5 298/7/5 301/7/5
f 307/7/5 304/7/5 303/7/5
f 308/7/5 304/7/5 307/7/5
f 309/7/5 306/7/5 305/7/5
f 310/7/5 306/7/5 309/7/5
f 315/7/5 312/7/5 311/7/5
f 316/7/5 312/7/5 315/7/5
f 317/7/5 314/7/5 313/7/5
f 318/7/5 314/7/5 317/7/5
f 321/6/5 320/6/5 319/6/5
f 322/6/5 320/6/5 321/6/5
f 323/6/5 320/6/5 322/6/5
f 324/6/5 320/6/5 323/6/5
f 326/6/5 323/6/5 322/6/5
f 327/6/5 323/6/5 326/6/5
f 329/6/5 326/6/5 325/6/5
f 329/6/5 328/6/5 327/6/5
f 329/6/5 327/6/5 326/6/5
f 330/6/5 328/6/5 329/6/5
f 331/6/5 328/6/5 330/6/5
f 332/6/5 328/6/5 331/6/5
f 334/6/5 331/6/5 330/6/5
f 335/6/5 331/6/5 334/6/5
f 337/6/5 334/6/5 333/6/5
f 337/6/5 336/6/5 335/6/5
f 337/6/5 335/6/5 334/6/5
f 338/6/5 336/6/5 337/6/5
f 339/6/5 336/6/5 338/6/5
f 340/6/5 336/6/5 339/6/5
f 342/6/5 339/6/5 338/6/5
f 343/6/5 339/6/5 342/6/5
f 345/6/5 342/6/5 341/6/5
f 345/6/5 344/6/5 343/6/5
f 345/6/5 343/6/5 342/6/5
f 346/6/5 344/6/5 345/6/5
f 347/6/5 344/6/5 346/6/5
f 348/6/5 344/6/5 347/6/5
f 350/6/5 347/6/5 346/6/5
f 351/6/5 347/6/5 350/6/5
f 353/6/5 350/6/5 349/6/5
f 353/6/5 352/6/5 351/6/5
f 353/6/5 351/6/5 350/6/5
f 354/6/5 352/6/5 353/6/5
f 357/5/5 356/5/5 355/5/5
f 358/5/5 356/5/5 357/5/5
f 363/1/5 360/1/5 359/1/5
f 364/1/5 360/1/5 363/1/5
f 365/1/5 362/1/5 361/1/5
f 366/1/5 362/1/5 365/1/5
f 367/6/6 368/6/6 369/6/6
f 369/6/6 368/6/6 370/6/6
f 371/1/6 372/1/6 375/1/6
f 375/1/6 372/1/6 376/1/6
f 373/1/6 374/1/6 377/1/6
f 377/1/6 374/1/6 378/1/6
f 379/2/6 380/2/6 383/2/6
f 381/2/6 382/2/6 384/2/6
f 379/2/6 383/2/6 385/2/6
f 383/2/6 384/2/6 385/2/6
f 384/2/6 382/2/6 386/2/6
f 385/2/6 384/2/6 386/2/6
f 387/4/6 388/4/6 389/4/6
f 389/4/6 388/4/6 390/4/6
f 391/5/6 392/5/6 393/5/6
f 393/5/6 392/5/6 394/5/6
f 395/4/6 396/4/6 397/4/6
f 397/4/6 396/4/6 398/4/6
